<svg xmlns="http://www.w3.org/2000/svg" viewBox="0 0 43 43">
  <defs>
    <style>
      .cls-1, .cls-4 {
        fill: none;
      }

      .cls-1, .cls-2 {
        stroke: #f3d95a;
      }

      .cls-1 {
        stroke-width: 5px;
      }

      .cls-2 {
        fill: #f3d95a;
      }

      .cls-3 {
        stroke: none;
      }
    </style>
  </defs>
  <g id="Group_1024" data-name="Group 1024" transform="translate(-1448 -1373)">
    <g id="Ellipse_7" data-name="Ellipse 7" class="cls-1" transform="translate(1448 1373)">
      <circle class="cls-3" cx="21.5" cy="21.5" r="21.5"/>
      <circle class="cls-4" cx="21.5" cy="21.5" r="19"/>
    </g>
    <g id="Group_780" data-name="Group 780" transform="translate(1461 1386)">
      <g id="Group_779" data-name="Group 779">
        <path id="Path_411" data-name="Path 411" class="cls-2" d="M32.971,10.931h0a.415.415,0,0,0,.414-.351c.032-.287.223-2.868-.637-4.047a.389.389,0,1,0-.637.446,6.005,6.005,0,0,1,.51,3.123H30.549c-1.721,0-1.785-1.211-1.785-1.37V.382A.388.388,0,0,0,28.382,0,.411.411,0,0,0,28,.382v8.35a2.16,2.16,0,0,0,.637,1.466,2.68,2.68,0,0,0,1.944.7h.032C31.7,10.9,32.971,10.931,32.971,10.931Z" transform="translate(-19.077)"/>
        <path id="Path_412" data-name="Path 412" class="cls-2" d="M6.5,0a.388.388,0,0,0-.382.382V9.815A3.737,3.737,0,0,1,5,12.652a2.147,2.147,0,0,1-1.753.51C1.115,12.875.8,10.389.8,8.955a.388.388,0,0,0-.382-.382A.443.443,0,0,0,0,8.955c0,2.9,1.147,4.717,3.123,5a2.258,2.258,0,0,0,.446.032,2.812,2.812,0,0,0,1.912-.733,4.6,4.6,0,0,0,1.37-3.442V.382C6.915.191,6.724,0,6.5,0Z"/>
        <path id="Path_413" data-name="Path 413" class="cls-2" d="M29.618,48.645a.406.406,0,1,0-.574.574l1.338,1.37a.346.346,0,0,0,.287.127.389.389,0,0,0,.287-.127.4.4,0,0,0,0-.574Z" transform="translate(-19.707 -33.061)"/>
        <path id="Path_414" data-name="Path 414" class="cls-2" d="M37.218,48.445a.406.406,0,1,0-.574.574l1.338,1.37a.346.346,0,0,0,.287.127.389.389,0,0,0,.287-.127.4.4,0,0,0,0-.574Z" transform="translate(-24.885 -32.925)"/>
        <path id="Path_415" data-name="Path 415" class="cls-2" d="M41.3,23.535a.4.4,0,1,0-.7.382,3.4,3.4,0,0,1-.319,4.047,2.917,2.917,0,0,1-3.346.7.394.394,0,1,0-.287.733,4.294,4.294,0,0,0,1.5.287,3.583,3.583,0,0,0,2.709-1.211A4.175,4.175,0,0,0,41.3,23.535Z" transform="translate(-24.789 -15.887)"/>
      </g>
    </g>
  </g>
</svg>
