<svg id="Group_1036" data-name="Group 1036" xmlns="http://www.w3.org/2000/svg" viewBox="0 0 60.269 59.697">
  <defs>
    <style>
      .cls-1 {
        fill: #e21f8f;
      }
    </style>
  </defs>
  <path id="Path_636" data-name="Path 636" class="cls-1" d="M.953,19.059l3.494.476a11.691,11.691,0,0,0,.794,1.747c-.238.318-.635.794-1.032,1.35l-.318.476q-.476.6-.715.953a.954.954,0,0,0,0,1.112,34.679,34.679,0,0,0,3.335,3.494,1.07,1.07,0,0,0,1.271.079L10.641,26.6c.556.238,1.032.4,1.509.556l.556,3.574a1.015,1.015,0,0,0,.953.874h0l4.447-.079a1.015,1.015,0,0,0,.953-.874v-.159q.119-1.072.476-3.335a7.539,7.539,0,0,0,1.668-.715l2.7,2.144a1.1,1.1,0,0,0,.874.159c.159-.079.556-.159,1.826-1.429a24.426,24.426,0,0,0,1.985-2.144.862.862,0,0,0,0-1.191c-.715-.953-1.429-1.826-2.065-2.7.238-.556.476-1.032.715-1.588l3.574-.556a1.033,1.033,0,0,0,.874-1.032l-.079-4.447a1.015,1.015,0,0,0-.874-.953l-3.494-.476a11.484,11.484,0,0,0-.715-1.747c.079-.159.238-.318.4-.556s.4-.476.635-.794l.318-.4q.476-.6.715-.953a.954.954,0,0,0,0-1.112A35.523,35.523,0,0,0,25.253,3.1a.965.965,0,0,0-1.271-.079L21.2,5.162a13.24,13.24,0,0,0-1.588-.635L19.059.953A.917.917,0,0,0,18.106,0L13.659.079a.943.943,0,0,0-.953.794,31.457,31.457,0,0,0-.556,3.574,7.539,7.539,0,0,0-1.668.715L7.941,3.1c-.079-.079-.159-.159-.238-.159-.635-.238-1.112,0-2.541,1.429A17.154,17.154,0,0,0,3.176,6.512a.864.864,0,0,0,0,1.191l.159.238c.715.953,1.35,1.747,1.826,2.462a7.539,7.539,0,0,0-.715,1.668l-3.574.635A.947.947,0,0,0,0,13.659l.079,4.447A1.015,1.015,0,0,0,.953,19.059ZM5.4,13.976a1.092,1.092,0,0,0,.794-.635l.159-.476a13.24,13.24,0,0,1,.635-1.588l.238-.476a1.12,1.12,0,0,0-.079-1.112l-.238-.4c-.4-.556-1.032-1.271-1.668-2.144.318-.4.794-.874,1.35-1.429.318-.318.556-.476.715-.635L9.926,7.068a.951.951,0,0,0,1.112.079l.4-.238a12.218,12.218,0,0,1,1.509-.635l.476-.159a1.033,1.033,0,0,0,.715-.874V4.765a22.388,22.388,0,0,1,.4-2.779h2.779l.476,3.335a1.092,1.092,0,0,0,.635.794l.476.159a9.465,9.465,0,0,1,1.588.635l.476.238A1.187,1.187,0,0,0,22,7.068l2.621-1.985c.794.794,1.588,1.509,2.065,2.065a1.1,1.1,0,0,0-.238.318l-.318.4a6.944,6.944,0,0,1-.635.794c-.238.238-.4.476-.556.635l-.318.4a.963.963,0,0,0-.079,1.032l.238.476a6.74,6.74,0,0,1,.715,1.747l.159.476a.855.855,0,0,0,.794.635l3.256.476.079,2.7-3.335.476a1.092,1.092,0,0,0-.794.635l-.159.4a8.606,8.606,0,0,1-.635,1.509l-.238.476a.96.96,0,0,0,.079,1.112l.318.4c.556.715,1.112,1.509,1.668,2.3l-1.35,1.35c-.318.318-.556.476-.715.635L22,24.459a.951.951,0,0,0-1.112-.079l-.476.238a12.218,12.218,0,0,1-1.509.635l-.476.159a1.033,1.033,0,0,0-.715.874l-.079.476c-.159,1.191-.238,2.065-.4,2.779H14.453l-.476-3.335a1.092,1.092,0,0,0-.635-.794l-.476-.159a14.317,14.317,0,0,1-1.668-.635.078.078,0,0,1-.079-.079l-.4-.079a1.1,1.1,0,0,0-.874.159L7.226,26.6a24.377,24.377,0,0,1-1.985-2.065c.079-.079.159-.159.159-.238l.318-.4c.476-.635.874-1.112,1.112-1.429l.318-.4a1.105,1.105,0,0,0,.079-1.112l-.238-.4A6.223,6.223,0,0,1,6.273,18.9l-.159-.476a.932.932,0,0,0-.794-.715l-3.335-.476-.079-2.7Z"/>
  <path id="Path_637" data-name="Path 637" class="cls-1" d="M27.615,42.254A10.375,10.375,0,0,0,15.148,56.548a1.022,1.022,0,0,0,1.35.476c.079-.079.159-.079.238-.159l5.479-5.479,2.224,1.032,1.271,2.462-5.241,5.241a1.007,1.007,0,0,0,0,1.429c.079.079.238.159.318.238a10.329,10.329,0,0,0,13.341-5.956,10.506,10.506,0,0,0,.318-6.432L50.089,33.757A10.321,10.321,0,0,0,62.795,26.61a10.165,10.165,0,0,0-.318-6.512.966.966,0,0,0-1.271-.556,1.1,1.1,0,0,0-.318.238L55.965,24.7l-2.224-1.032L52.471,21.21l5.082-5.082a1.007,1.007,0,0,0,0-1.429c-.079-.079-.159-.159-.238-.159a10.3,10.3,0,0,0-13.738,4.923,10.748,10.748,0,0,0-.556,7.544ZM52.868,15.493a7.174,7.174,0,0,1,2.224.318l-4.526,4.447a.866.866,0,0,0-.159,1.112l1.747,3.415a.716.716,0,0,0,.476.476l3.176,1.429a.983.983,0,0,0,1.112-.238l4.209-4.209a8.371,8.371,0,0,1-10.959,9.371.963.963,0,0,0-1.032.238L32.618,48.369A.963.963,0,0,0,32.38,49.4a8.243,8.243,0,0,1-5.162,10.562,8.156,8.156,0,0,1-4.129.318l4.526-4.526a.866.866,0,0,0,.159-1.112l-1.747-3.415a.716.716,0,0,0-.476-.476l-3.176-1.429a.983.983,0,0,0-1.112.238L16.418,54.4A8.411,8.411,0,0,1,27.536,44.4a.841.841,0,0,0,1.032-.238L44.848,27.881a1,1,0,0,0,.238-1.032,8.358,8.358,0,0,1,4.765-10.8A7.827,7.827,0,0,1,52.868,15.493Z" transform="translate(-2.918 -2.787)"/>
</svg>
