<svg id="Group_1029" data-name="Group 1029" xmlns="http://www.w3.org/2000/svg" viewBox="0 0 53.321 53.321">
  <defs>
    <style>
      .cls-1 {
        fill: #91c63f;
      }
    </style>
  </defs>
  <path id="Path_630" data-name="Path 630" class="cls-1" d="M50.46,18a4.663,4.663,0,0,0-2.15.516A4.662,4.662,0,0,0,46.16,18a5.16,5.16,0,0,0,0,10.32,4.662,4.662,0,0,0,2.15-.516,4.663,4.663,0,0,0,2.15.516,5.16,5.16,0,0,0,0-10.32Zm0,8.6a3.1,3.1,0,0,1-1.72-.516l-.43-.258-.43.258a3.1,3.1,0,0,1-1.72.516,3.44,3.44,0,0,1,0-6.88,3.1,3.1,0,0,1,1.72.516l.43.258.43-.258a3.1,3.1,0,0,1,1.72-.516,3.44,3.44,0,1,1,0,6.88Z" transform="translate(-5.739 -2.52)"/>
  <path id="Path_631" data-name="Path 631" class="cls-1" d="M29.241,29.241h19.78a4.258,4.258,0,0,0,4.3-4.3V4.3a4.258,4.258,0,0,0-4.3-4.3H14.62a4.326,4.326,0,0,0-4.214,3.44H0V53.321H29.241v-5.16h1.72v5.16H53.321v-6.88h-5.16V43h1.72v-5.16h3.44v-6.88H30.961v5.16h-1.72Zm19.78-1.72H14.62a2.534,2.534,0,0,1-2.58-2.58V12.9H51.6v12.04A2.534,2.534,0,0,1,49.021,27.521ZM12.04,6.88H51.6v4.3H12.04Zm2.58,22.361h9.46a9.229,9.229,0,0,1-2.838,5.934A9.476,9.476,0,1,1,10.32,19.952v4.988A4.258,4.258,0,0,0,14.62,29.241Zm0-27.521h34.4A2.534,2.534,0,0,1,51.6,4.3v.86H12.04V4.3A2.534,2.534,0,0,1,14.62,1.72ZM27.521,51.6H1.72V5.16h8.6v12.9A11.075,11.075,0,0,0,3.44,28.983,11.319,11.319,0,0,0,14.1,39.561h.43a11.149,11.149,0,0,0,7.74-3.1,10.947,10.947,0,0,0,3.354-7.224h1.72v12.04h-1.72v6.88h1.72V51.6Zm24.081,0H32.681v-3.44H34.4v1.72h1.72v-1.72h1.72v1.72h1.72v-1.72h1.72v1.72H43v-1.72h1.72v1.72h1.72v-1.72h1.72v1.72h1.72v-1.72H51.6Zm-5.16-5.16H27.521V43h1.72v1.72h1.72V43h1.72v1.72H34.4V43h1.72v1.72h1.72V43h1.72v1.72h1.72V43H43v1.72h1.72V43h1.72Zm-13.76-13.76H34.4V34.4h1.72v-1.72h1.72V34.4h1.72v-1.72h1.72V34.4H43v-1.72h1.72V34.4h1.72v-1.72h1.72V34.4h1.72v-1.72H51.6v3.44H32.681Zm0,6.88v-1.72H34.4v1.72h1.72v-1.72h1.72v1.72h1.72v-1.72h1.72v1.72H43v-1.72h1.72v1.72h1.72v-1.72h1.72v3.44H29.241v-3.44h1.72v1.72Z"/>
</svg>
