<svg xmlns="http://www.w3.org/2000/svg" viewBox="0 0 36.3 82.272">
  <defs>
    <style>
      .cls-1 {
        fill: none;
        stroke: #45b6e4;
        stroke-miterlimit: 10;
        stroke-width: 2px;
      }

      .cls-2 {
        fill: #45b6e4;
      }
    </style>
  </defs>
  <g id="Group_1026" data-name="Group 1026" transform="translate(0.5 -0.027)">
    <path id="Path_622" data-name="Path 622" class="cls-1" d="M.5,40.6a1.9,1.9,0,0,1,1.9-1.9H32.9a1.9,1.9,0,0,1,0,3.8H2.4A1.839,1.839,0,0,1,.5,40.6ZM32.1,62.7c3.7,7-2.7,18.6-13.7,18.6A14.784,14.784,0,0,1,3.7,68c-.5-6.8,3.3-3.6,5-22.3H28.1C28.3,47.2,27.1,53.1,32.1,62.7Z"/>
    <path id="Path_623" data-name="Path 623" class="cls-2" d="M4.5,23.7A1.7,1.7,0,0,0,4.1,26a1.721,1.721,0,0,0,2.3.4c9.4-6.8-3-12.5.4-17.9a1.634,1.634,0,0,0-.5-2.3,1.5,1.5,0,0,0-2.2.5C-.8,14.3,11,19,4.5,23.7Z"/>
    <path id="Path_624" data-name="Path 624" class="cls-2" d="M15.7,17.8a1.7,1.7,0,0,0-.4,2.3,1.721,1.721,0,0,0,2.3.4c5.6-4.1,3.2-8.3,1.5-11.3C17.5,6.5,16.7,4.7,18,2.6A1.634,1.634,0,0,0,17.5.3a1.634,1.634,0,0,0-2.3.5c-2.5,3.9-.6,7.3,1,10C18.2,14.1,18.8,15.5,15.7,17.8Z"/>
    <path id="Path_625" data-name="Path 625" class="cls-2" d="M26.7,23.7a1.7,1.7,0,0,0-.4,2.3,1.721,1.721,0,0,0,2.3.4c5.6-4.1,3.2-8.3,1.5-11.3-1.6-2.7-2.4-4.5-1.1-6.6a1.664,1.664,0,1,0-2.8-1.8c-2.5,3.9-.6,7.3,1,10C29.2,20,29.8,21.4,26.7,23.7Z"/>
  </g>
</svg>
