<svg id="Group_776" data-name="Group 776" xmlns="http://www.w3.org/2000/svg" viewBox="0 0 97.1 90.4">
  <defs>
    <style>
      .cls-1 {
        fill: #afd960;
      }
    </style>
  </defs>
  <path id="Path_402" data-name="Path 402" class="cls-1" d="M28.5,61.5A2.475,2.475,0,0,1,25,65h0a33.373,33.373,0,0,1-7.8-12.7A2.53,2.53,0,0,1,22,50.7v.1A28.312,28.312,0,0,0,28.5,61.5ZM78.2,49.1A2.624,2.624,0,0,0,75,50.7h0a28.657,28.657,0,0,1-6.6,10.8A2.475,2.475,0,1,0,71.9,65h0a33.373,33.373,0,0,0,7.8-12.7,2.31,2.31,0,0,0-1.5-3.2Zm-36-34.4a29.738,29.738,0,0,1,12.6,0,2.535,2.535,0,0,0,1.3-4.9h-.2a33.6,33.6,0,0,0-14.8,0A2.536,2.536,0,0,0,39.5,13a2.624,2.624,0,0,0,2.7,1.7ZM18.4.1A10.45,10.45,0,1,1,7.9,10.5,10.609,10.609,0,0,1,18.4.1Zm0,5a5.3,5.3,0,0,0-5.2,5.5,5.3,5.3,0,0,0,5.5,5.2,5.4,5.4,0,0,0,5.2-5.4A5.445,5.445,0,0,0,18.4,5.1ZM20.9,32l4.9-4.8h1.5a4.4,4.4,0,0,1,4.5,4.4h0v5.7a2.5,2.5,0,0,0,5,0V31.6a9.475,9.475,0,0,0-9.5-9.4H24.8a2.875,2.875,0,0,0-1.8.7l-4.6,4.5L13.8,23a2.41,2.41,0,0,0-1.8-.7H9.5A9.475,9.475,0,0,0,0,31.7v5.7a2.476,2.476,0,0,0,2.5,2.5A2.476,2.476,0,0,0,5,37.4V31.7a4.4,4.4,0,0,1,4.5-4.4H11l4.9,4.8a3.594,3.594,0,0,0,5-.1ZM89.1,10.5A10.5,10.5,0,1,1,78.6,0,10.5,10.5,0,0,1,89.1,10.5Zm-5,0a5.5,5.5,0,0,0-11-.2,5.422,5.422,0,0,0,5.4,5.6h.1A5.529,5.529,0,0,0,84.1,10.5Zm3.4,11.8H84.9a2.875,2.875,0,0,0-1.8.7l-4.6,4.5L74,23a2.41,2.41,0,0,0-1.8-.7H69.7a9.475,9.475,0,0,0-9.5,9.4v5.7a2.5,2.5,0,0,0,5,0V31.7a4.46,4.46,0,0,1,4.5-4.4h1.5l4.9,4.8a3.693,3.693,0,0,0,5,0L86,27.3h1.6a4.4,4.4,0,0,1,4.5,4.4h0v5.7a2.5,2.5,0,0,0,5,0V31.7A9.495,9.495,0,0,0,87.5,22.3ZM38,61A10.5,10.5,0,1,1,48.6,71.3h-.1A10.33,10.33,0,0,1,38,61Zm5,0a5.5,5.5,0,1,0,5.6-5.4h-.1A5.463,5.463,0,0,0,43,61ZM57.4,72.8H54.9a2.875,2.875,0,0,0-1.8.7L48.5,78l-4.6-4.5a2.41,2.41,0,0,0-1.8-.7H39.6a9.475,9.475,0,0,0-9.5,9.4v5.7a2.5,2.5,0,0,0,5,0V82.2a4.46,4.46,0,0,1,4.5-4.4h1.5L46,82.6a3.693,3.693,0,0,0,5,0l4.9-4.8h1.5a4.4,4.4,0,0,1,4.5,4.4h0v5.7a2.5,2.5,0,0,0,5,0V82.2A9.348,9.348,0,0,0,57.4,72.8Z"/>
</svg>
