<svg xmlns="http://www.w3.org/2000/svg" viewBox="0 0 109.355 99.499">
  <defs>
    <style>
      .cls-1 {
        fill: none;
        stroke: #f3d95a;
        stroke-miterlimit: 10;
        stroke-width: 4px;
      }
    </style>
  </defs>
  <g id="Group_589" data-name="Group 589" transform="translate(-60.556 -69.3)">
    <g id="Group_587" data-name="Group 587">
      <path id="Path_256" data-name="Path 256" class="cls-1" d="M42.7,136.5,32.6,135c-.4,0-.7-.4-.9-.7l-4.6-9.8a3.613,3.613,0,0,0-3.3-2.2,3.246,3.246,0,0,0-3.3,2.2l-4.6,9.8a1.208,1.208,0,0,1-.9.7L4.8,136.5a3.728,3.728,0,0,0-3,2.4,3.405,3.405,0,0,0,.9,3.7l7.4,7.8a1.277,1.277,0,0,1,.4,1.1L8.7,162.4a3.983,3.983,0,0,0,1.5,3.7,3.871,3.871,0,0,0,3.9.2l9.1-5a1.483,1.483,0,0,1,1.3,0l9.1,5a2.827,2.827,0,0,0,1.8.4,3.737,3.737,0,0,0,3.7-4.4l-2.1-11a1.277,1.277,0,0,1,.4-1.1l7.4-7.6a3.814,3.814,0,0,0,.9-3.7A3.728,3.728,0,0,0,42.7,136.5Z" transform="translate(94 -51)"/>
      <path id="Path_257" data-name="Path 257" class="cls-1" d="M103.8,136.5,93.6,135c-.4,0-.7-.4-.9-.7l-4.6-9.8a3.613,3.613,0,0,0-3.3-2.2,3.246,3.246,0,0,0-3.3,2.2l-4.6,9.8a1.208,1.208,0,0,1-.9.7l-10.2,1.5a3.728,3.728,0,0,0-3,2.4,3.405,3.405,0,0,0,.9,3.7l7.4,7.8a1.277,1.277,0,0,1,.4,1.1l-1.8,10.9a3.983,3.983,0,0,0,1.5,3.7,3.871,3.871,0,0,0,3.9.2l9.1-5a1.483,1.483,0,0,1,1.3,0l9.1,5a2.827,2.827,0,0,0,1.8.4,3.737,3.737,0,0,0,3.7-4.4l-2.1-11a1.277,1.277,0,0,1,.4-1.1l7.4-7.6a3.814,3.814,0,0,0,.9-3.7A3.59,3.59,0,0,0,103.8,136.5Z"/>
      <path id="Path_258" data-name="Path 258" class="cls-1" d="M166.8,142.6a3.814,3.814,0,0,0,.9-3.7,3.728,3.728,0,0,0-3-2.4L154.5,135c-.4,0-.7-.4-.9-.7l-4.6-9.8a3.613,3.613,0,0,0-3.3-2.2,3.246,3.246,0,0,0-3.3,2.2l-4.6,9.8a1.208,1.208,0,0,1-.9.7l-10.2,1.5a3.728,3.728,0,0,0-3,2.4,3.405,3.405,0,0,0,.9,3.7l7.4,7.6a1.277,1.277,0,0,1,.4,1.1l-1.8,10.9a3.983,3.983,0,0,0,1.5,3.7,3.871,3.871,0,0,0,3.9.2l9.1-5a1.483,1.483,0,0,1,1.3,0l9.1,5a2.827,2.827,0,0,0,1.8.4,3.737,3.737,0,0,0,3.7-4.4l-1.8-10.9a1.277,1.277,0,0,1,.4-1.1Z"/>
    </g>
  </g>
</svg>
