<svg xmlns="http://www.w3.org/2000/svg" viewBox="0 0 112.814 144.227">
  <defs>
    <style>
      .cls-1 {
        fill: #fff;
        stroke: #fff;
        stroke-width: 6px;
      }
    </style>
  </defs>
  <g id="Group_97" data-name="Group 97" transform="translate(3.003 -949.391)">
    <path id="Path_62" data-name="Path 62" class="cls-1" d="M103.539,952.395a3.184,3.184,0,0,0-2.346,1.191l-21.978,26.67a3.11,3.11,0,0,0,0,4.006l17.756,21.545H15.7a3.14,3.14,0,0,0-.072,6.28h87.986a3.142,3.142,0,0,0,3.14-3.14,3.222,3.222,0,0,0-.722-2.021L85.711,982.241l20.318-24.685a3.115,3.115,0,0,0-.325-4.439A3.339,3.339,0,0,0,103.539,952.395ZM2.85,952.431A3.141,3.141,0,0,0,0,955.571v131.87a3.119,3.119,0,0,0,3.1,3.176,3.12,3.12,0,0,0,3.176-3.1V958.71H85.464a3.14,3.14,0,0,0,.072-6.28H2.85Z" transform="translate(0 0)"/>
  </g>
</svg>
