
<svg xmlns="http://www.w3.org/2000/svg" viewBox="0 0 171.627 120.139">
  <defs>
    <style>
      .cls-1 {
        fill: #fff;
      }
    </style>
  </defs>
  <g id="Group_591" data-name="Group 591" transform="translate(-13 -13)">
    <path id="Path_63" data-name="Path 63" class="cls-1" d="M256.084,165.4H230.339a8.594,8.594,0,0,0-8.581,8.581,42.906,42.906,0,0,1-73.246,30.339,8.576,8.576,0,0,0-12.129,12.129,60.063,60.063,0,0,0,101.929-33.886h17.771a8.581,8.581,0,0,0,0-17.163Z" transform="translate(-80.038 -100.912)"/>
    <path id="Path_64" data-name="Path 64" class="cls-1" d="M98.814,30.163a42.627,42.627,0,0,1,30.339,12.568A8.576,8.576,0,1,0,141.281,30.6,60.063,60.063,0,0,0,39.352,64.488H21.581a8.581,8.581,0,1,0,0,17.163H47.325a8.594,8.594,0,0,0,8.581-8.581A42.968,42.968,0,0,1,98.814,30.163Z" transform="translate(0)"/>
    <circle id="Ellipse_4" data-name="Ellipse 4" class="cls-1" cx="25.744" cy="25.744" r="25.744" transform="translate(73.07 47.325)"/>
  </g>
</svg>
