<svg xmlns="http://www.w3.org/2000/svg" viewBox="0 0 188.021 175.964">
  <defs>
    <style>
      .cls-1 {
        fill: #fff;
        stroke: #fff;
        stroke-width: 2px;
      }
    </style>
  </defs>
  <g id="Group_795" data-name="Group 795" transform="translate(1.053 1)">
    <path id="Path_459" data-name="Path 459" class="cls-1" d="M4.781,150.026l33.844,22.287a9.476,9.476,0,0,0,5.778,1.651,11.06,11.06,0,0,0,8.874-4.746l16.715-25.176a9.946,9.946,0,0,0,1.445-8.048v-.206l1.857-1.032,14.445-5.985a41.244,41.244,0,0,0,5.778-3.3l12.588-8.461L128.6,99.054l4.127-3.1v23.319a2.064,2.064,0,0,0,4.127,0V93.07l4.746-3.508a8.8,8.8,0,0,0,2.27-2.476,24.841,24.841,0,0,0,9.286,1.857,26.3,26.3,0,0,0,15.065-4.953V97.61a2.27,2.27,0,0,0,1.238,2.064l13.207,6.191a1.546,1.546,0,0,0,1.032.206,2.933,2.933,0,0,0,1.238-.413,2.462,2.462,0,0,0,1.032-1.857V23.113a2.167,2.167,0,0,0-1.032-1.857,2.442,2.442,0,0,0-2.064-.206L169.665,27.24a2.27,2.27,0,0,0-1.238,2.064v13.62a21.587,21.587,0,0,0-4.746-2.683,25.822,25.822,0,0,0-13-2.064l-1.651-3.921a12.987,12.987,0,0,0-5.365-6.191l-6.6-3.921V2.064a2.064,2.064,0,1,0-4.127,0V21.875l-7.223-4.127a14.9,14.9,0,0,0-13.826-.619L71.23,36.114a5.706,5.706,0,0,0-2.683,2.27L25.83,105.452A10.949,10.949,0,0,0,18.4,110.2L1.685,135.374a9.946,9.946,0,0,0-1.445,8.048A10.228,10.228,0,0,0,4.781,150.026ZM155.22,61.909a.758.758,0,0,1-.206.619l-.619,1.445c0,.206-.206.413-.413.619l-1.651,2.27-.413.413-3.1,2.476a8.648,8.648,0,0,1,.825-3.1C150.886,63.766,153.156,61.909,155.22,61.909ZM181.634,26v74.91l-9.286-4.334v-16.3a28.414,28.414,0,0,0,4.127-6.4,26.291,26.291,0,0,0,.619-19.4,25.83,25.83,0,0,0-4.54-7.635V30.335ZM161.823,43.955a21.283,21.283,0,0,1,10.731,28.065,20.783,20.783,0,0,1-11.763,11.144,21.622,21.622,0,0,1-14.858.206,3.826,3.826,0,0,0,.413-1.445l.825-2.683a.2.2,0,0,1,.206-.206l1.238-2.683a9.933,9.933,0,0,1,2.476-3.3l3.3-2.683c.413-.206.619-.619,1.032-1.032l1.651-2.27a5.173,5.173,0,0,0,.825-1.445l.619-1.445a8.393,8.393,0,0,0,.413-4.54,6.974,6.974,0,0,0-1.238-2.476l-.825-1.032c-.206-.206-.619-.619-.825-.619l-2.27-.825a16.326,16.326,0,0,0-9.905-.619l-.413.206a14.866,14.866,0,0,0-4.953,2.064l-2.889,1.857a15.7,15.7,0,0,0-3.921,2.476,18.585,18.585,0,0,1,1.651-5.778,16.139,16.139,0,0,1,3.508-5.365,21.744,21.744,0,0,1,12.382-6.81A20.184,20.184,0,0,1,161.823,43.955Zm-29.1,4.127a20.56,20.56,0,0,0-2.889,4.953,23.319,23.319,0,0,0-2.064,11.144l-1.238,1.032a11.8,11.8,0,0,1-1.651,1.445l-5.572,4.334a21.587,21.587,0,0,1-4.746,2.683l-7.223,3.1h-.619c-.206,0-.206-.206-.413-.413L102.6,64.592a6.339,6.339,0,0,1,.619-5.159l4.54-7.223a2.487,2.487,0,0,1,1.032-1.032l12.175-8.048a2.617,2.617,0,0,1,1.238-.206l9.08,3.715c.206,0,.413.206.619.413l.619.825.206.206ZM71.849,40.447c.206-.413.619-.619.825-.825l40.86-18.985a11.589,11.589,0,0,1,10.112.413L141.6,31.574a8.455,8.455,0,0,1,3.508,4.127l1.238,3.1a26.4,26.4,0,0,0-10.525,5.778l-.206-.413a6.451,6.451,0,0,0-2.27-1.857l-9.08-3.715a6.4,6.4,0,0,0-5.159.413l-12.175,8.048a5.49,5.49,0,0,0-2.064,2.27l-4.54,7.223a10.651,10.651,0,0,0-1.238,8.667L102.8,76.973a4.88,4.88,0,0,0,2.476,2.889,4.371,4.371,0,0,0,3.921,0l7.223-2.889a18.958,18.958,0,0,0,5.572-3.3l5.778-4.334a13.352,13.352,0,0,0,1.857-1.651l3.3-3.1a18.551,18.551,0,0,1,5.365-3.508.2.2,0,0,0,.206-.206l2.889-1.857a14.66,14.66,0,0,1,3.715-1.651l.413-.206a13.5,13.5,0,0,1,7.016.206,12.1,12.1,0,0,0-6.4,6.4,11.738,11.738,0,0,0-.619,9.08c0,.206-.206.413-.206.619l-1.445,3.1c0,.206-.206.206-.206.413v.206L142.425,81.1a13.151,13.151,0,0,0-.413,1.445l-.619,1.238a9.771,9.771,0,0,1-2.27,2.683l-13,9.493-22.494,17.954-12.588,8.461a26.511,26.511,0,0,1-5.159,2.889l-14.445,5.985a.2.2,0,0,0-.206.206l-1.445.619A8.992,8.992,0,0,0,66.9,129.39L33.053,107.1a7.821,7.821,0,0,0-2.683-1.238Zm-66.655,97.2,16.715-25.176a6.486,6.486,0,0,1,5.365-2.889,6.957,6.957,0,0,1,3.508,1.032L64.626,132.9a7.272,7.272,0,0,1,2.889,4.127,6.13,6.13,0,0,1-1.032,4.953L49.768,167.154a6.486,6.486,0,0,1-5.365,2.889,6.957,6.957,0,0,1-3.508-1.032L7.051,146.724A7.272,7.272,0,0,1,4.162,142.6,8,8,0,0,1,5.194,137.644Z" transform="translate(0)"/>
  </g>
</svg>
