<svg xmlns="http://www.w3.org/2000/svg" viewBox="0 0 256.258 256.001">
  <defs>
    <style>
      .cls-1 {
        fill: #fff;
      }
    </style>
  </defs>
  <g id="Group_794" data-name="Group 794" transform="matrix(0.978, -0.208, 0.208, 0.978, 0, 44.933)">
    <path id="Path_451" data-name="Path 451" class="cls-1" d="M204.661,53.28h-63.07V13.12A12.866,12.866,0,0,0,128.8,0H13.12A12.937,12.937,0,0,0,0,13.12V202.6a12.952,12.952,0,0,0,13.12,13.187H128.8a13.145,13.145,0,0,0,13.12-13.12V162.5h63.07a11.229,11.229,0,0,0,11.122-11.122V64.4A11.754,11.754,0,0,0,204.661,53.28ZM209.39,64.4V76.19H115.684a38.93,38.93,0,0,0-6.727-16.184h95.77A4.165,4.165,0,0,1,209.39,64.4ZM51.615,81.252a28.971,28.971,0,1,1,28.971,28.971A29.164,29.164,0,0,1,51.615,81.252Zm64.4,1.332h93.04V93.706h-95.1A31,31,0,0,0,116.017,82.584ZM13.12,6.394H128.8a6.393,6.393,0,0,1,6.394,6.394V28.3H6.394V13.12A6.794,6.794,0,0,1,13.12,6.394Zm115.684,203H13.12A6.393,6.393,0,0,1,6.727,203V187.478h128.8V203A7.135,7.135,0,0,1,128.8,209.39Zm6.394-28.638H6.394V35.1H135.2V52.947H102.5a35.074,35.074,0,0,0-21.911-7.393A35.488,35.488,0,0,0,45.155,81.318a36.272,36.272,0,0,0,14.852,28.971v41.159A11.229,11.229,0,0,0,71.129,162.57H135.2Zm69.464-24.642H71.129a4.479,4.479,0,0,1-4.4-4.4V113.952a33.923,33.923,0,0,0,14.186,3.064A35.855,35.855,0,0,0,110.955,100.5h98.767v51.282A5.061,5.061,0,0,1,204.661,156.11Z"/>
    <path id="Path_452" data-name="Path 452" class="cls-1" d="M262.739,180.2a14.664,14.664,0,0,0-7.393,2.331,13.888,13.888,0,0,0-7.393-2.331A12.434,12.434,0,0,0,235.5,192.654a12.654,12.654,0,0,0,12.454,12.454,13.7,13.7,0,0,0,7.393-2.331,11.534,11.534,0,0,0,7.393,2.331,12.434,12.434,0,0,0,12.454-12.454A12.609,12.609,0,0,0,262.739,180.2Zm-20.846,12.521a6.061,6.061,0,1,1,6.061,6.061A6.04,6.04,0,0,1,241.894,192.721Zm20.846,6.394a4.969,4.969,0,0,1-3.064-1,13.7,13.7,0,0,0,1-5.062,12.484,12.484,0,0,0-1-5.062,5.411,5.411,0,0,1,3.064-1,6.061,6.061,0,0,1,0,12.121Z" transform="translate(-78.658 -60.187)"/>
    <path id="Path_453" data-name="Path 453" class="cls-1" d="M129.4,188.993h41.825a3.4,3.4,0,0,0,0-6.793H129.4a3.407,3.407,0,0,0-3.4,3.4A3.216,3.216,0,0,0,129.4,188.993Z" transform="translate(-42.084 -60.855)"/>
    <path id="Path_454" data-name="Path 454" class="cls-1" d="M191.135,206.1H129.4a3.407,3.407,0,0,0-3.4,3.4,3.216,3.216,0,0,0,3.4,3.4h61.738a3.4,3.4,0,0,0,0-6.793Z" transform="translate(-42.084 -68.838)"/>
    <path id="Path_455" data-name="Path 455" class="cls-1" d="M109.345,292.6H91.5a3.407,3.407,0,0,0-3.4,3.4,3.182,3.182,0,0,0,3.4,3.4h17.849a3.4,3.4,0,0,0,0-6.793Z" transform="translate(-29.426 -97.729)"/>
    <path id="Path_456" data-name="Path 456" class="cls-1" d="M89.228,27.028a3.344,3.344,0,1,0-4.729,0A3.3,3.3,0,0,0,89.228,27.028Z" transform="translate(-27.889 -7.114)"/>
    <path id="Path_457" data-name="Path 457" class="cls-1" d="M107.028,27.153a3.3,3.3,0,0,0,0-4.729,4.1,4.1,0,0,0-4.729,0,3.344,3.344,0,1,0,4.729,4.729Z" transform="translate(-33.834 -7.24)"/>
    <path id="Path_458" data-name="Path 458" class="cls-1" d="M124.728,27.028a3.344,3.344,0,1,0-4.729,0A3.3,3.3,0,0,0,124.728,27.028Z" transform="translate(-39.746 -7.114)"/>
  </g>
</svg>
