<svg xmlns="http://www.w3.org/2000/svg" viewBox="0 0 138.245 193.543">
  <defs>
    <style>
      .cls-1 {
        fill: #fff;
      }
    </style>
  </defs>
  <path id="Path_464" data-name="Path 464" class="cls-1" d="M41.473,78.339h55.3a4.622,4.622,0,0,0,4.608-4.608A4.689,4.689,0,0,0,100,70.275L72.809,34.1a4.8,4.8,0,0,0-7.373,0L37.787,70.966a4.589,4.589,0,0,0-.461,4.839A4.352,4.352,0,0,0,41.473,78.339Zm27.649-33.87L87.555,69.122H50.69ZM96.771,115.2h-55.3a4.352,4.352,0,0,0-4.147,2.534,4.589,4.589,0,0,0,.461,4.839l27.649,36.865a4.608,4.608,0,0,0,7.373,0l27.649-36.865a4.585,4.585,0,0,0-3.687-7.373Zm-27.649,33.87L50.69,124.42H87.555ZM69.122,0A69.326,69.326,0,0,0,0,69.122v55.3a69.122,69.122,0,1,0,138.245,0v-55.3A69.326,69.326,0,0,0,69.122,0Zm59.906,124.42a59.906,59.906,0,1,1-119.812,0v-55.3a59.906,59.906,0,0,1,119.812,0ZM105.988,92.163H32.257a4.608,4.608,0,1,0,0,9.216h73.731a4.608,4.608,0,1,0,0-9.216Z"/>
</svg>
