<svg xmlns="http://www.w3.org/2000/svg" viewBox="0 0 197 208.094">
  <defs>
    <style>
      .cls-1 {
        fill: #fff;
        stroke: #fff;
        stroke-width: 2px;
      }
    </style>
  </defs>
  <g id="Group_796" data-name="Group 796" transform="translate(1 1)">
    <path id="Path_460" data-name="Path 460" class="cls-1" d="M116.936,133.184l.466-.233a71.7,71.7,0,0,0,13.045-13.51c.932-1.165,1.631-2.329,2.562-3.494a71.255,71.255,0,0,0,11.647-39.134V73.784a14.329,14.329,0,0,0-.233-3.028,12.309,12.309,0,0,1-.233-2.8v-.233c0-.7-.233-1.4-.233-2.1-.233-1.4-.466-2.562-.7-3.96-.233-.7-.233-1.4-.466-2.1,0-.233-.233-.466-.466-.7-.233-.7-.233-1.165-.466-1.864-.233-.932-.466-1.631-.7-2.562a16.052,16.052,0,0,0-.7-1.864c0-.233-.233-.466-.233-.7-.233-.932-.7-1.631-.932-2.562-.466-.932-.7-1.631-1.165-2.562L137.9,46.3a12.484,12.484,0,0,1-1.165-2.562,9.04,9.04,0,0,0-1.4-2.562,15.668,15.668,0,0,0-1.631-2.562,60.317,60.317,0,0,0-7.454-9.783,15.07,15.07,0,0,1-1.864-2.1l-2.1-2.1-2.1-2.1-.233-.233c-.7-.7-1.4-1.165-2.1-1.864h-.233a8.366,8.366,0,0,0-2.329-1.631l-.233-.233-1.864-1.4c-.233-.233-.466-.466-.7-.466l-1.4-.932c-.466-.233-.932-.7-1.4-.932s-1.631-.932-2.329-1.4a7.658,7.658,0,0,0-1.4-.7l-2.1-1.165-.466-.233c-.7-.233-1.4-.7-2.1-.932l-.932-.466-1.864-.932L95.971,8.1l-1.864-.7-1.4-.466v4.659c2.562.932,5.125,1.864,7.687,3.028l2.329,1.165a37.688,37.688,0,0,1,4.193,2.329l.7.466,4.193,2.8a7.079,7.079,0,0,0,1.631,1.165,24.754,24.754,0,0,1,2.562,2.1l1.864,1.631L119.5,27.9l1.4,1.4,1.4,1.631.466.466a10.13,10.13,0,0,1,1.4,1.631l.466.7c.466.7.932,1.165,1.4,1.864a28.26,28.26,0,0,1,2.329,3.261c.7,1.165,1.4,2.329,2.1,3.261a48.954,48.954,0,0,1,3.028,6.056,8.274,8.274,0,0,1,.932,2.1,24.166,24.166,0,0,1,.932,2.329c.233.932.466.932.466,1.4a3.311,3.311,0,0,0,.466,1.4,4.318,4.318,0,0,1,.466,1.631l.233.7a4.388,4.388,0,0,1,.466,1.864,4.318,4.318,0,0,0,.466,1.631l.233.932c.233.7.233,1.4.466,2.1l.233.7A2.51,2.51,0,0,1,139.3,66.8c0,.7.233,1.165.233,1.864s.233,1.4.233,2.1.233,1.864.233,2.8v2.8a68.206,68.206,0,0,1-12.812,39.833l-.466.466a71.323,71.323,0,0,1-12.346,12.812l-.233.233-2.1,1.631-.233.233a.228.228,0,0,0-.233.233A67.987,67.987,0,0,1,4.193,76.347V73.085a7.181,7.181,0,0,1,.233-2.329V69.591c0-.7.233-1.631.233-2.329v-.7c.233-.932.233-1.864.466-2.8s.466-2.1.7-3.028a15.067,15.067,0,0,1,.932-3.028,15.067,15.067,0,0,0,.932-3.028l2.8-6.988a10.082,10.082,0,0,1,1.165-2.8.228.228,0,0,1,.233-.233A24.553,24.553,0,0,1,13.51,42.1c.233-.233.233-.7.466-.932a24.554,24.554,0,0,1,1.631-2.562c.466-.7,1.4-1.864,2.1-2.8a24.755,24.755,0,0,1,2.1-2.562l.233-.233a12.209,12.209,0,0,1,2.329-2.562A26.574,26.574,0,0,0,24.925,27.9a23.2,23.2,0,0,1,2.562-2.329,11.815,11.815,0,0,0,1.631-1.4,31.445,31.445,0,0,1,2.562-2.1v81.762a30.317,30.317,0,0,0,4.193,5.358V23.7H52.411v97.369A31.112,31.112,0,0,0,56.6,122.7h0V21.606a2.088,2.088,0,0,0-2.1-2.1h-19.8c1.4-.932,3.028-1.864,4.659-2.8a4.873,4.873,0,0,0,1.4-.932l1.4-.7c1.4-.7,2.562-1.165,3.96-1.864l1.631-.7,2.1-.7c.932-.233,1.631-.466,2.562-.7l1.165-.233a6.8,6.8,0,0,1,2.1-.466l.7-.233,2.8-.7V5.3c-.932.233-2.1.466-3.028.7-1.4.233-2.562.7-3.96.932l-2.1.466-1.631.466a77.03,77.03,0,0,0-15.374,7.221A43.847,43.847,0,0,0,27.72,18.81,74.952,74.952,0,0,0,21.2,24.4a5.081,5.081,0,0,1-1.165.932h0L18.169,27.2l-1.4,1.4-.466,1.631a7.079,7.079,0,0,0-1.165,1.631l-.932,1.165-.233.466a5.072,5.072,0,0,0-1.165,1.864c-.233.7-1.165,1.165-1.631,1.864l-.7,1.165-.233.466c-.466.932-1.165,1.864-1.631,2.8a16.9,16.9,0,0,1-1.165,2.1c-.466.7-.7,1.864-1.165,2.8h0a14.249,14.249,0,0,0-1.165,2.8v.233c-.233.7-.7,1.631-.932,2.329l-.466,1.165-.7,2.1a7.2,7.2,0,0,0-.466,1.864,12.552,12.552,0,0,1-.7,2.329A8.374,8.374,0,0,0,1.4,61.9a13.134,13.134,0,0,1-.233,1.631c0,.466-.233,1.4-.233,2.1S.466,66.8.466,67.495.233,69.125.233,70.057,0,71.921,0,72.853H0v3.494a72.273,72.273,0,0,0,72.211,72.211h0a71.451,71.451,0,0,0,39.367-11.647,33.335,33.335,0,0,0,3.494-2.562Z" transform="translate(0 7.046)"/>
    <path id="Path_461" data-name="Path 461" class="cls-1" d="M48.3,116.891l-1.4-.466-3.028-.932c-.932-.466-1.864-.7-2.8-1.165l-.466-.233c-.233-.233-.7-.233-.932-.466a43.321,43.321,0,0,1-8.153-5.125l-4.193-3.494-.7-.466-1.4-1.4-.932-1.165a6.176,6.176,0,0,1-1.165-1.4h0l-1.4-1.864c-.466-.7-.932-1.165-1.4-1.864a4.346,4.346,0,0,0-.7-.932h0c-.233-.466-.466-.7-.7-1.165a52.347,52.347,0,0,1,0-56.837V30.47a57.277,57.277,0,0,0,4.892,76.87h0a56.584,56.584,0,0,0,21.43,13.045H45.5a56.464,56.464,0,0,0,10.482,2.329h.7c.7,0,1.165.233,1.864.233a34.4,34.4,0,0,0,4.892.233,32.8,32.8,0,0,0,4.892-.233,71.439,71.439,0,0,0,9.783-1.631h0a55.932,55.932,0,0,0,8.852-2.8h0a57.186,57.186,0,0,0,21.43-17.238l.233-.466a57.163,57.163,0,0,0,3.96-63.36l-.233-.466A56.215,56.215,0,0,0,83.935,13v4.659a52.8,52.8,0,0,1,25.157,22.129,2.075,2.075,0,0,0-1.864-1.165H86.264a2.088,2.088,0,0,0-2.1,2.1V110.6a37.689,37.689,0,0,0,4.193-2.329V42.583H104.9V91.5a43.865,43.865,0,0,0,4.193-8.852V40.487a1.761,1.761,0,0,0-.233-.932,53.4,53.4,0,0,1,4.426,43.793h0l-.233.7c-.932,2.562-2.1,4.892-3.261,7.454-.233.466-.466.7-.7,1.165V92.9a32.119,32.119,0,0,1-3.96,5.824l-.466.466-4.193,4.892a57.087,57.087,0,0,1-8.153,6.755h0l-.7.466-.7.466-1.165.7a1.766,1.766,0,0,1-.932.466h-.233c-.7.466-1.631.7-2.329,1.165l-.466.233-1.165.466H84.4a8.275,8.275,0,0,0-2.1.932l-2.1.7-2.8.932-.466.233-1.165.233a43.827,43.827,0,0,1-7.687,1.165,31.22,31.22,0,0,1-4.659.233,26.749,26.749,0,0,1-4.426-.233h-.466l-1.165-.233-1.4-.233-.932-.233-.932-.233h0c-.466,0-.932-.233-1.631-.233H50.858C49.926,117.357,48.994,117.357,48.3,116.891Z" transform="translate(8.542 17.282)"/>
    <path id="Path_462" data-name="Path 462" class="cls-1" d="M125.138,108.508,70.4,54a33.332,33.332,0,0,1-2.562,3.494L80.181,69.84l-7.454,7.454a2.306,2.306,0,0,0,3.261,3.261h0l7.221-7.221,38.435,38.435a10.738,10.738,0,1,1-13.976,16.306L106.5,126.91,52.694,72.868C51.529,73.8,50.365,74.5,49.2,75.43l54.508,54.508a15.327,15.327,0,0,0,21.43,0C131.195,124.115,130.962,114.564,125.138,108.508Z" transform="translate(65.406 71.787)"/>
    <path id="Path_463" data-name="Path 463" class="cls-1" d="M31.626,132.077V4.193H48.165V130.679h.466c1.165-.466,2.562-.7,3.727-1.165V2.1a2.088,2.088,0,0,0-2.1-2.1H29.3a2.088,2.088,0,0,0-2.1,2.1V131.378c.932.233,1.864.233,2.8.466Z" transform="translate(36.16)"/>
  </g>
</svg>
