<svg xmlns="http://www.w3.org/2000/svg" viewBox="0 0 167.585 146.582">
  <defs>
    <style>
      .cls-1 {
        fill: #fff;
      }
    </style>
  </defs>
  <path id="Path_134" data-name="Path 134" class="cls-1" d="M5.207,146.572H125.739a5.151,5.151,0,0,0,5.207-5.207V121.551l3.556,1.143a3.751,3.751,0,0,0,1.651.254,5.368,5.368,0,0,0,4.953-3.429l26.164-73.284a5.058,5.058,0,0,0-.254-4.064,5.286,5.286,0,0,0-3.048-2.667L51.439.257a5.248,5.248,0,0,0-6.6,3.175L24.767,57.538H5.207A5.151,5.151,0,0,0,0,62.746v78.492A5.259,5.259,0,0,0,5.207,146.572Zm127.772-35.436-2.032-.635V65.413l16.384,5.715ZM52.836,11.815,155.587,47.631l-4.826,13.59L47.883,25.278ZM44.2,35.057l64.267,22.481H35.944Zm-33.785,32.9H120.4V136.03H10.415ZM49.788,86.369a5.151,5.151,0,0,1-5.207,5.207H28.831a5.207,5.207,0,1,1,0-10.415H44.453A5.259,5.259,0,0,1,49.788,86.369Z" transform="translate(0 0.01)"/>
</svg>
