<svg xmlns="http://www.w3.org/2000/svg" viewBox="0 0 61.391 60.659">
  <defs>
    <style>
      .cls-1, .cls-2 {
        fill: #f3d95a;
      }

      .cls-2 {
        stroke: #f3d95a;
      }
    </style>
  </defs>
  <g id="Group_802" data-name="Group 802" transform="translate(-1430 -1356)">
    <g id="Group_1027" data-name="Group 1027">
      <g id="Group_798" data-name="Group 798" transform="translate(1430 1356)">
        <path id="Path_465" data-name="Path 465" class="cls-1" d="M392.1,223.573a15.68,15.68,0,0,0-6.378-5.646,1.2,1.2,0,1,0-1.031,2.158,13.212,13.212,0,0,1,5.934,18.078,1.2,1.2,0,0,0,1.055,1.762,1.184,1.184,0,0,0,1.055-.635,15.591,15.591,0,0,0-.635-15.716Z" transform="translate(-337.973 -191.697)"/>
        <path id="Path_466" data-name="Path 466" class="cls-1" d="M348.111,208.4h.072a1.2,1.2,0,0,0,0-2.4H348.1a1.2,1.2,0,1,0,.012,2.4Z" transform="translate(-305.314 -181.305)"/>
        <path id="Path_467" data-name="Path 467" class="cls-1" d="M221.878,289.568a13.2,13.2,0,0,1-5.946-18.078,1.2,1.2,0,0,0-2.11-1.127,15.585,15.585,0,0,0,7.013,21.363,1.157,1.157,0,0,0,.515.12,1.2,1.2,0,0,0,1.079-.683A1.179,1.179,0,0,0,221.878,289.568Z" transform="translate(-186.585 -237.396)"/>
        <path id="Path_468" data-name="Path 468" class="cls-1" d="M317.671,446H317.6a1.2,1.2,0,1,0,0,2.4h.084a1.2,1.2,0,1,0-.012-2.4Z" transform="translate(-278.47 -392.534)"/>
        <path id="Path_469" data-name="Path 469" class="cls-1" d="M46.441,20.643a5.955,5.955,0,0,0-.527-.983h3.117a5.514,5.514,0,0,0,0-11.029h-9.6A5.508,5.508,0,0,0,34.885,0H5.514a5.514,5.514,0,0,0,0,11.029h9.6a5.488,5.488,0,0,0,0,6.234H11.988a5.512,5.512,0,0,0-3.429,9.83,5.507,5.507,0,0,0,0,8.631,5.507,5.507,0,0,0,0,8.631,5.512,5.512,0,0,0,3.429,9.83H26.122a20.375,20.375,0,1,0,20.32-33.542ZM2.4,5.514A3.126,3.126,0,0,1,5.514,2.4H34.885a3.117,3.117,0,0,1,0,6.234H5.514A3.126,3.126,0,0,1,2.4,5.514Zm14.146,8.631a3.126,3.126,0,0,1,3.117-3.117H49.031a3.117,3.117,0,1,1,0,6.234H19.66A3.126,3.126,0,0,1,16.543,14.146ZM8.871,22.777a3.126,3.126,0,0,1,3.117-3.117H41.359a3.039,3.039,0,0,1,1.355.312C42.15,19.924,41.574,19.9,41,19.9a20.312,20.312,0,0,0-14.422,5.994H11.988A3.126,3.126,0,0,1,8.871,22.777Zm0,8.631a3.126,3.126,0,0,1,3.117-3.117H24.527a20.331,20.331,0,0,0-3.081,6.234H11.988A3.126,3.126,0,0,1,8.871,31.409Zm0,8.631a3.126,3.126,0,0,1,3.117-3.117H20.9a20.5,20.5,0,0,0-.072,6.234H11.988A3.126,3.126,0,0,1,8.871,40.04Zm3.117,11.748a3.117,3.117,0,1,1,0-6.234h9.327a20.111,20.111,0,0,0,2.877,6.234ZM41,58.262A17.982,17.982,0,1,1,58.981,40.28,18,18,0,0,1,41,58.262Z"/>
      </g>
      <g id="Group_780" data-name="Group 780" transform="translate(1461 1386)">
        <g id="Group_779" data-name="Group 779">
          <path id="Path_411" data-name="Path 411" class="cls-2" d="M32.971,10.931h0a.415.415,0,0,0,.414-.351c.032-.287.223-2.868-.637-4.047a.389.389,0,1,0-.637.446,6.005,6.005,0,0,1,.51,3.123H30.549c-1.721,0-1.785-1.211-1.785-1.37V.382A.388.388,0,0,0,28.382,0,.411.411,0,0,0,28,.382v8.35a2.16,2.16,0,0,0,.637,1.466,2.68,2.68,0,0,0,1.944.7h.032C31.7,10.9,32.971,10.931,32.971,10.931Z" transform="translate(-19.077)"/>
          <path id="Path_412" data-name="Path 412" class="cls-2" d="M6.5,0a.388.388,0,0,0-.382.382V9.815A3.737,3.737,0,0,1,5,12.652a2.147,2.147,0,0,1-1.753.51C1.115,12.875.8,10.389.8,8.955a.388.388,0,0,0-.382-.382A.443.443,0,0,0,0,8.955c0,2.9,1.147,4.717,3.123,5a2.258,2.258,0,0,0,.446.032,2.812,2.812,0,0,0,1.912-.733,4.6,4.6,0,0,0,1.37-3.442V.382C6.915.191,6.724,0,6.5,0Z"/>
          <path id="Path_413" data-name="Path 413" class="cls-2" d="M29.618,48.645a.406.406,0,1,0-.574.574l1.338,1.37a.346.346,0,0,0,.287.127.389.389,0,0,0,.287-.127.4.4,0,0,0,0-.574Z" transform="translate(-19.707 -33.061)"/>
          <path id="Path_414" data-name="Path 414" class="cls-2" d="M37.218,48.445a.406.406,0,1,0-.574.574l1.338,1.37a.346.346,0,0,0,.287.127.389.389,0,0,0,.287-.127.4.4,0,0,0,0-.574Z" transform="translate(-24.885 -32.925)"/>
          <path id="Path_415" data-name="Path 415" class="cls-2" d="M41.3,23.535a.4.4,0,1,0-.7.382,3.4,3.4,0,0,1-.319,4.047,2.917,2.917,0,0,1-3.346.7.394.394,0,1,0-.287.733,4.294,4.294,0,0,0,1.5.287,3.583,3.583,0,0,0,2.709-1.211A4.175,4.175,0,0,0,41.3,23.535Z" transform="translate(-24.789 -15.887)"/>
        </g>
      </g>
    </g>
  </g>
</svg>
