<svg xmlns="http://www.w3.org/2000/svg" width="44.002" height="49.802" viewBox="0 0 44.002 49.802"><defs><style>.a{fill:#489490;}</style></defs><g transform="translate(-16.242 -11.793)"><path class="a" d="M20.995,11.793a4.752,4.752,0,1,0,4.753,4.753A4.758,4.758,0,0,0,20.995,11.793Zm0,7.66a2.907,2.907,0,1,1,2.91-2.907A2.911,2.911,0,0,1,20.995,19.453Z"/><path class="a" d="M39.089,21.3a4.752,4.752,0,1,0-4.753-4.75A4.756,4.756,0,0,0,39.089,21.3Zm0-7.66a2.907,2.907,0,1,1-2.907,2.907A2.912,2.912,0,0,1,39.089,13.64Z" transform="translate(-6.302 -0.001)"/><path class="a" d="M57.187,21.3a4.752,4.752,0,1,0-4.753-4.75A4.756,4.756,0,0,0,57.187,21.3Zm0-7.66a2.907,2.907,0,1,1-2.907,2.907A2.912,2.912,0,0,1,57.187,13.64Z" transform="translate(-12.605 -0.001)"/><path class="a" d="M20.995,29.938a4.753,4.753,0,1,0,4.753,4.753A4.76,4.76,0,0,0,20.995,29.938Zm0,7.663a2.908,2.908,0,1,1,2.91-2.907A2.91,2.91,0,0,1,20.995,37.6Z" transform="translate(0 -6.32)"/><path class="a" d="M39.089,39.447a4.753,4.753,0,1,0-4.753-4.753A4.758,4.758,0,0,0,39.089,39.447Zm0-7.663a2.909,2.909,0,1,1-2.907,2.91A2.914,2.914,0,0,1,39.089,31.784Z" transform="translate(-6.302 -6.321)"/><path class="a" d="M20.995,48.086a4.753,4.753,0,1,0,4.753,4.753A4.76,4.76,0,0,0,20.995,48.086Zm0,7.66a2.907,2.907,0,1,1,2.91-2.907A2.911,2.911,0,0,1,20.995,55.746Z" transform="translate(0 -12.64)"/><path class="a" d="M66.952,52.788c-.489-7.1-9.213-8.785-12.042-9.147V33.608a3.671,3.671,0,0,0-7.342-.059L45.643,49.216l-2.752-3.663a4.019,4.019,0,0,0-3.2-1.6A3.995,3.995,0,0,0,36.456,50.3l4.636,8.5c.033.053.1.173.2.349.937,1.678,3.791,6.782,6.708,8.627a.919.919,0,0,0,.491.143h11.52a.93.93,0,0,0,.237-.031c4.549-1.217,7.245-7.281,6.705-15.1Zm-7.07,13.279H48.767c-1.632-1.143-3.607-3.773-5.868-7.823-.1-.178-.181-.313-.232-.4l-4.621-8.48a1.038,1.038,0,0,0-.071-.112,2.151,2.151,0,0,1,.43-3.014,2.2,2.2,0,0,1,3.014.43l4.124,5.491a.924.924,0,0,0,1.655-.443l2.21-17.989c0-.038.005-.074.005-.112a1.827,1.827,0,0,1,3.653,0V44.478a.921.921,0,0,0,.86.919c.107.008,10.723.81,11.186,7.523s-1.683,12.1-5.231,13.146Z" transform="translate(-6.775 -6.319)"/></g></svg>