<svg xmlns="http://www.w3.org/2000/svg" viewBox="0 0 54.022 54.011">
  <defs>
    <style>
      .cls-1 {
        fill: #7acaec;
        stroke: #7acaec;
      }
    </style>
  </defs>
  <g id="Group_805" data-name="Group 805" transform="translate(0.5 0.5)">
    <path id="Path_481" data-name="Path 481" class="cls-1" d="M336.862,289.67h-2.651V272.884a.88.88,0,0,0-1.6-.508l-12.369,17.67a.877.877,0,0,0,.729,1.38h11.486v2.651a.884.884,0,0,0,1.767,0v-2.651h2.651a.878.878,0,1,0-.011-1.756Zm-4.418-13.982V289.67h-9.785Z" transform="translate(-284.734 -241.96)"/>
    <path id="Path_482" data-name="Path 482" class="cls-1" d="M221.338,293.179H210.879l9.73-11.453c.022-.022.044-.055.066-.077a6.152,6.152,0,0,0-1.392-8.349,7.062,7.062,0,0,0-11.188,5.743.884.884,0,1,0,1.767,0,5.3,5.3,0,0,1,5.3-5.3,5.37,5.37,0,0,1,3.092.994,4.363,4.363,0,0,1,.972,5.887l-10.923,12.866a.883.883,0,0,0,.674,1.458h12.369a.886.886,0,0,0,.884-.883A.9.9,0,0,0,221.338,293.179Z" transform="translate(-185.113 -241.935)"/>
    <path id="Path_483" data-name="Path 483" class="cls-1" d="M23.877,46.849a.887.887,0,0,0-.85-.917h0A22.058,22.058,0,0,1,1.8,24.739H5.3a.884.884,0,1,0,0-1.767H1.8A22.028,22.028,0,0,1,22.972,1.8V4.418a.884.884,0,1,0,1.767,0V1.8A22.042,22.042,0,0,1,45.9,22.563l-3.446-3.446a.883.883,0,0,0-1.248,1.248L46.142,25.3a.833.833,0,0,0,.353.254.327.327,0,0,0,.11.022.935.935,0,0,0,.188.044h.044a.645.645,0,0,0,.2-.044.392.392,0,0,0,.11-.022.871.871,0,0,0,.32-.2l5-4.992a.883.883,0,0,0-1.248-1.248l-3.534,3.534A23.852,23.852,0,0,0,23.921.011C23.9.011,23.877,0,23.855,0s-.044.011-.066.011A23.821,23.821,0,0,0,.011,23.789c0,.022-.011.044-.011.066s.011.044.011.066A23.833,23.833,0,0,0,22.961,47.7h.033A.9.9,0,0,0,23.877,46.849Z"/>
    <path id="Path_484" data-name="Path 484" class="cls-1" d="M170.54,106.432a.887.887,0,0,0-1.248,0l-9.5,9.5a2.761,2.761,0,0,0-2.253,0l-4.495-4.495a.883.883,0,0,0-1.248,1.248l4.484,4.484a2.646,2.646,0,0,0,4.263,3h0a2.623,2.623,0,0,0,.508-3.015l9.487-9.487A.873.873,0,0,0,170.54,106.432Zm-11.243,12.5h0a.908.908,0,0,1-1.248,0,.882.882,0,1,1,1.248,0Z" transform="translate(-134.813 -94.449)"/>
  </g>
</svg>
