<svg xmlns="http://www.w3.org/2000/svg" viewBox="0 0 31.033 57.381"><defs><style>.a{fill:#489490;}</style></defs><path class="a" d="M28.2,20.887l3.113-5.35h8.7V4.958h2.3v10.58H51l3.113,5.35h2.56v7.97H54.712q-1.851,16.74-3.68,33.482H31.273Q29.421,45.6,27.6,28.857H25.639v-7.97H28.2ZM31.36,42.149c.839-.537,1.7-1.048,2.56-1.5a19.153,19.153,0,0,1,3.6-1.505,13.852,13.852,0,0,1,6.32-.119,19.222,19.222,0,0,0,3.4.3,16.882,16.882,0,0,0,2.361-.259c.565-.095,1.142-.214,1.719-.341q.541-4.931,1.087-9.863H29.9q.724,6.647,1.458,13.292Zm19.695-1.028c-.356.072-.717.142-1.077.2a19.315,19.315,0,0,1-2.675.284,20.893,20.893,0,0,1-3.8-.314,11.99,11.99,0,0,0-5.37.057,16.833,16.833,0,0,0-3.148,1.326A36.826,36.826,0,0,0,31.642,44.7q.844,7.67,1.685,15.338H48.977q1.038-9.462,2.078-18.921ZM30.85,20.887H51.46q-.888-1.527-1.777-3.051H32.627q-.888,1.527-1.777,3.051Zm23.524,2.782H27.937v2.8H54.375Z" transform="translate(-25.64 -4.958)"/></svg>