<svg xmlns="http://www.w3.org/2000/svg" width="43.873" height="46.749"><defs><style>.a{fill:#489490}</style></defs><path class="a" d="M7.592.001C3.13.001 0 7.781 0 11.992a8.233 8.233 0 005.434 7.923L4.597 42.49a4.925 4.925 0 001.128 3.549 2.151 2.151 0 001.561.711h.615a2.157 2.157 0 001.563-.713 4.905 4.905 0 001.126-3.547l-.841-22.573a8.235 8.235 0 005.434-7.923c0-4.213-3.132-11.993-7.591-11.993zM8.77 18.58a.5.5 0 00-.078.035.785.785 0 00-.15.067.641.641 0 00-.115.081 1.067 1.067 0 00-.109.115.857.857 0 00-.131.265.778.778 0 00-.024.146c0 .031-.017.059-.017.091l.861 23.167a3.45 3.45 0 01-.685 2.393.616.616 0 01-.422.228h-.611a.606.606 0 01-.42-.228 3.459 3.459 0 01-.687-2.393l.859-23.163a.5.5 0 00-.02-.117.593.593 0 00-.017-.1.669.669 0 00-.074-.185.854.854 0 00-.052-.089.691.691 0 00-.13-.135.608.608 0 00-.1-.072.755.755 0 00-.157-.07.554.554 0 00-.076-.033 6.588 6.588 0 01-4.835-6.589c0-3.915 2.911-10.412 6.012-10.412s6.01 6.5 6.01 10.412A6.583 6.583 0 018.77 18.58zM41.108 3.709h-21.73a2.769 2.769 0 00-2.765 2.765v34.544a2.77 2.77 0 002.765 2.765h21.73a2.771 2.771 0 002.765-2.765V6.475a2.769 2.769 0 00-2.765-2.766zm1.185 37.309a1.186 1.186 0 01-1.185 1.185h-21.73a1.186 1.186 0 01-1.185-1.185V6.475a1.186 1.186 0 011.185-1.186h21.73a1.186 1.186 0 011.185 1.185z"/><path class="a" d="M23.436 11.891a1.279 1.279 0 11-2.558 0 1.279 1.279 0 012.558 0m16.171-.788H25.45a.791.791 0 100 1.582h14.157a.791.791 0 100-1.582zm-16.171 8.69a1.279 1.279 0 01-2.558 0 1.279 1.279 0 012.558 0m16.171-.787H25.45a.791.791 0 100 1.582h14.157a.791.791 0 100-1.582zM23.436 27.7a1.279 1.279 0 01-2.558 0 1.279 1.279 0 012.558 0m16.171-.795H25.45a.791.791 0 100 1.582h14.157a.791.791 0 100-1.582zm-16.171 8.692a1.279 1.279 0 11-2.558 0 1.279 1.279 0 012.558 0m16.171-.79H25.45a.791.791 0 100 1.582h14.157a.791.791 0 100-1.582z"/></svg>