<svg xmlns="http://www.w3.org/2000/svg" viewBox="0 0 62.357 63.123"><defs><style>.a{fill:#f3d95a;stroke:#f3d95a;}</style></defs><g transform="translate(-2.728 -2.427)"><path class="a" d="M11.837,75.3c-2.381,3.567.735,8.191,4.541,8.191,3,0,5.026-3.254,5.193-4.556A6.717,6.717,0,0,0,19.614,74c-2.481-2.281-6.084-1.192-7.777,1.3Zm8.457,3.46c-.1.755-1.644,3.442-3.917,3.442-2.751,0-5.286-3.457-3.472-6.182,1.279-1.88,3.978-2.776,5.83-1.079a5.486,5.486,0,0,1,1.559,3.819Z" transform="translate(-2.627 -23.913)"/><path class="a" d="M63.263,18.78c1.333-2.086,2.152-3.894.55-8.168a.644.644,0,0,0-1.045-.241c-2.869,2.7-5.656,5.466-6.133,5.848-1.4-1.487-2.787-3.064-4.235-4.808,2.766-2.74,4.672-4.628,6.4-6.326a.643.643,0,0,0-.1-1,7.38,7.38,0,0,0-4.048-1.151c-6.477,0-13.543,7.363-10.946,13.522-3.966,4.03-7.582,7.72-11.1,11.319C20.253,14.8,18.4,12.824,17.729,12.113c-.393-.776-3.922-6.411-4.477-6.586C10.717,4.731,6.826,3.015,6.785,3a.65.65,0,0,0-.717.134l-2.5,2.5a.653.653,0,0,0-.121.742A54.263,54.263,0,0,1,6.094,12.68.65.65,0,0,0,6.315,13a69.591,69.591,0,0,0,6.555,4.225c4.6,4.834,9.893,10.423,14.753,15.634-3.375,3.447-6.765,6.9-10.389,10.577a7.554,7.554,0,0,0-2.584-.429c-8.039,0-16.584,9.721-7.222,19.081,3.3,3.578,11.221,3.827,15.78-3.252,1.495-2.358,1.852-3.77.868-7.117,1.017-1,4.366-4.346,8.4-8.4.318.935,1.084,1.957,2.086,1.957,1.251,0,1.729-1.235,2.376-.588.7.7.745.919.306,1.387-1.323,1.407-.884,1.839,4.51,7.122,2.312,2.268,5.81,5.692,10.659,10.628a3.32,3.32,0,0,0,4.644.108c2.455-2.286,4.79-4.6,6.549-6.357a3.32,3.32,0,0,0-.01-4.716C49.829,39.155,48.339,36.949,46.831,36.949c-.966,0-1.456,1.307-2.116.645-.568-.57-.447-.75-.085-1.289a1.747,1.747,0,0,0-.123-2.532,4.022,4.022,0,0,0-1.592-.968c3.737-3.783,6.96-7.066,8.417-8.6,4.564,1.551,8.635-.3,11.932-5.419ZM13.709,16.235A56.717,56.717,0,0,1,7.262,12.1,53.511,53.511,0,0,0,4.807,6.216L6.669,4.354c1.045.452,3.876,1.654,6,2.34,3.329,4.469,3.786,6.213,4.269,6.462,4.125,4.382,15.9,16.743,20.876,21.959q-1.668,1.657-3.275,3.326C28.4,31.722,20.32,23.185,13.709,16.235ZM33.252,39.78a3.5,3.5,0,0,0-.917,1.862c-10.191,10.237-9.773,9.531-9.6,10.078,1.043,3.367.683,4.384-.609,6.421-4.043,6.277-10.965,6.082-13.764,3.051-8.37-8.37-.853-16.9,6.293-16.9a6.063,6.063,0,0,1,2.478.488.651.651,0,0,0,.722-.136c3.724-3.776,7.2-7.315,10.654-10.844,1.808,1.944,3.539,3.817,5.139,5.568-.128.139-.265.275-.393.411Zm10.353-5.091c.853.842-1.865,1.744.2,3.814a1.892,1.892,0,0,0,1.348.557,1.925,1.925,0,0,0,1.341-.542,1.916,1.916,0,0,1,.339-.285c.768,0,4.741,4.469,15.86,15.541a2.027,2.027,0,0,1,.005,2.887c-1.752,1.752-4.076,4.053-6.519,6.326a2.075,2.075,0,0,1-2.841-.069c-4.859-4.944-8.36-8.375-10.677-10.646-2.936-2.877-4.708-4.613-4.695-5.037.069-.3,1.955-1.4-.11-3.465-1.628-1.634-2.918.768-3.647-.01a2.242,2.242,0,0,1-.021-3.1c1.949-2.068,4-4.143,6.087-6.174a2.33,2.33,0,0,1,3.329.2Zm7.081-11.681c-1.407,1.505-5.137,5.3-9.418,9.631a3.368,3.368,0,0,0-1.89.925c-.218.213-.429.429-.647.642-1.346-1.413-3.185-3.341-5.24-5.5,3.624-3.7,7.346-7.5,11.445-11.665a.644.644,0,0,0,.118-.74,6.7,6.7,0,0,1,.658-6.66c1.942-3.141,5.7-5.419,8.941-5.419a6.251,6.251,0,0,1,2.63.552c-1.472,1.451-2.815,2.782-6.2,6.136a.644.644,0,0,0-.044.868c1.608,1.955,3.139,3.7,4.669,5.329a1.123,1.123,0,0,0,.85.462c.812,0,1.251-.722,6.377-5.579.963,3.054.344,4.376-.75,6.09-3.054,4.741-6.665,6.344-10.79,4.762a.662.662,0,0,0-.706.164Z" transform="translate(0)"/><path class="a" d="M73.94,82.428a.645.645,0,0,0,.894-.93c-3.747-3.593-7.415-7.363-10.908-11.211a.645.645,0,0,0-.955.866c3.511,3.868,7.2,7.664,10.97,11.275Z" transform="translate(-20.365 -22.993)"/><path class="a" d="M79.774,76.587a.645.645,0,0,0,.894-.93C69.654,65.1,69.793,63.544,68.85,64.4a.643.643,0,0,0-.044.909c3.5,3.863,7.192,7.657,10.967,11.278Z" transform="translate(-22.366 -20.983)"/></g></svg>