<svg xmlns="http://www.w3.org/2000/svg" viewBox="0 0 69.66 67.282"><defs><style>.a{fill:#45b6e4;}</style></defs><path class="a" d="M26,16.719,15.375,27.346l1.142.666,9.643,5.773V67.759h2.728a15.137,15.137,0,0,0-.7,4.568v6.6h2.633l.285-.539C33.536,73.957,37.049,70.8,42.4,70.8h5.075v8.121h5.075V84H85.035V43.4H79.96V38.322H70.824V33.786l9.643-5.773,1.142-.666L70.983,16.719l-.7.412-7.93,4.949H34.63L26.7,17.132Zm.317,2.569,6.5,4.092-5.932,8.5-8.216-4.949Zm44.347,0,7.645,7.645L70.1,31.882l-5.932-8.5ZM34.789,24.11H62.2l5.678,8.121H29.11Zm-6.6,10.151h40.6v4.06H47.478V56.593H44.432a16.335,16.335,0,0,0-14.719,9.136H28.191Zm21.317,6.091H77.93V43.4H52.553v13.2H49.508Zm5.075,5.075H83.006V81.97H54.583V70.8h6.091v7.518L75.3,63.7l-.7-.73L60.673,49.043v7.55H54.583ZM62.7,53.96,72.411,63.7,62.7,73.405V68.774H42.4c-5.575,0-9.512,3.172-12.181,7.328V72.327a13.98,13.98,0,0,1,14.211-13.7H62.7ZM49.508,70.8h3.045v6.091H49.508Z" transform="translate(-15.375 -16.719)"/></svg>