<svg xmlns="http://www.w3.org/2000/svg" viewBox="0 0 39 51.153"><defs><style>.a{fill:#dc3098;}.b{fill:#fff;stroke:#dc3098;stroke-width:2px;}.c{stroke:none;}.d{fill:none;}</style></defs><g transform="translate(-1577 -2646.596)"><g transform="translate(1558.77 2638.471)"><path class="a" d="M53.478,39.936h1.973V38.027H52.778V36.118h2.672V34.21H52.778V32.3h2.672V30.392H52.778V28.484h2.672V26.575H52.778V24.666h2.672V22.758H52.778V20.849h2.672V18.94H52.778V17.031h2.672V15.123H52.778V15a6.871,6.871,0,1,0-13.743,0v6.3l-.573,2.417-1.591.954.763-3.371L36.3,20.977l-.954-1.019L32.8,22.313V20.469l3.817-3.562-1.272-1.4L32.8,17.861V13.343H30.89v4.516L28.345,15.5l-1.272,1.4,3.817,3.562v1.844l-2.546-2.355-.826,1.021-1.336.317.763,3.371-1.591-.954L24.21,18.623l-1.909.446.763,3.371-3.879-2.29L18.231,21.8l3.882,2.226L18.8,25.048l.573,1.844,4.963-1.527,1.591.954-3.309,1.019L23,28.674l-.382,1.336,3.309,1.019-1.591.954-4.963-1.527L18.8,32.3l3.309,1.019-3.882,2.226.954,1.653,3.882-2.226-.763,3.18,1.844.446,1.145-5.089,1.591-.954-.7,3.371,1.336.317.954,1.019,2.546-2.355v1.844L27.2,40.315l1.272,1.4,2.546-2.355v4.521h1.909V39.365l2.546,2.355,1.272-1.4-3.817-3.562V34.913l2.546,2.355.954-1.019,1.336-.317L37,32.556l1.591.954.573,2.417v3.309A11.2,11.2,0,1,0,57.23,48.081a11.658,11.658,0,0,0-3.753-8.145ZM33.818,28.613,35.6,27.594l3.307,1.019L35.6,29.631Zm5.218,1.971v1.081l-1.21-.7Zm-1.21-4.326,1.21-.7v1.081Zm-2.417-3.691-.763,3.371-1.782,1.019V24.922Zm-7,0,2.546,2.355v2.035l-1.782-1.019Zm-3.5,6.046,3.309-1.019L30,28.613l-1.782,1.019Zm3.5,6.043.763-3.371,1.782-1.019V32.3Zm7,0L32.863,32.3V30.266l1.782,1.019Zm10.5,22.714a9.271,9.271,0,0,1-5.344-16.859l.382-.255V14.932a4.963,4.963,0,0,1,9.925,0V40.253l.382.255A9.273,9.273,0,0,1,45.907,57.37Z"/></g><g class="b" transform="translate(1598 2680)"><circle class="c" cx="6.5" cy="6.5" r="6.5"/><circle class="d" cx="6.5" cy="6.5" r="5.5"/></g></g></svg>