<svg xmlns="http://www.w3.org/2000/svg" viewBox="0 0 72.997 49.881"><defs><style>.a{fill:#f3d95a;}</style></defs><g transform="translate(-3.126 -18.75)"><path class="a" d="M33.349,28.125A14.611,14.611,0,1,0,43.67,32.4a14.6,14.6,0,0,0-10.32-4.28Zm.544,14.545a7.309,7.309,0,0,0-1.095,0,3.648,3.648,0,1,1,1.095,0ZM32.8,45.1c.182.015.365.055.547.055s.365-.04.547-.055h.052a8.757,8.757,0,0,1,7.458,6.71,12.3,12.3,0,0,1-1.971,1.433v-2H37v2.433H29.7V51.241H27.266v2a12.356,12.356,0,0,1-1.977-1.433,8.743,8.743,0,0,1,7.391-6.7Zm10.475,4.629a11.425,11.425,0,0,0-5.84-6.187,6.081,6.081,0,1,0-8.2-.015,11.473,11.473,0,0,0-5.819,6.2,12.167,12.167,0,1,1,19.855,0Z" transform="translate(-3.459 -2.075)"/><path class="a" d="M72.473,60.115V21.183A2.43,2.43,0,0,0,70.04,18.75H9.209a2.433,2.433,0,0,0-2.433,2.433V60.115H3.126v4.866a3.649,3.649,0,0,0,3.65,3.65h65.7a3.649,3.649,0,0,0,3.65-3.65V60.115ZM9.209,21.183H70.04V60.115H9.209Zm64.48,43.8A1.215,1.215,0,0,1,72.472,66.2H6.775a1.216,1.216,0,0,1-1.217-1.217V62.548H73.689Z"/><path class="a" d="M70.9,57.5V25.871a2.43,2.43,0,0,0-2.433-2.433H14.933A2.433,2.433,0,0,0,12.5,25.871V57.5a2.43,2.43,0,0,0,2.433,2.433H68.465A2.43,2.43,0,0,0,70.9,57.5ZM14.933,25.871H68.465V57.5H14.933Z" transform="translate(-2.075 -1.038)"/><path class="a" d="M57.812,56.954h18.25V48.437H57.812Zm2.433-6.083H73.628v3.65H60.245Z" transform="translate(-12.106 -6.572)"/><path class="a" d="M60.938,40.625H74.321v2.433H60.938Z" transform="translate(-12.798 -4.842)"/></g></svg>