<svg xmlns="http://www.w3.org/2000/svg" viewBox="0 0 57.859 57.97"><defs><style>.a{fill:#afd960;stroke:#afd960;}</style></defs><path class="a" d="M67.44,13.672c-2.539,0-8.793,4.458-15.3,10.96C47.253,29.524,43.29,34.54,41.8,37.7a4.124,4.124,0,0,0-.291.858,5.127,5.127,0,0,0-3.362-.548,3.982,3.982,0,0,0-2.972,2.229,6.369,6.369,0,0,0-.372,3.777l.062.5a.669.669,0,0,1-.186.433,2.327,2.327,0,0,1-1.92.743,6.175,6.175,0,0,1-.991-.124.588.588,0,0,0-.681.248.563.563,0,0,0,.062.681,7.541,7.541,0,0,0,6.007,2.477,8.679,8.679,0,0,0,3.963-.929c2.725-1.3,3.963-3.406,3.406-5.7a6.1,6.1,0,0,0-.424-1.17,2.276,2.276,0,0,0,.548-.192c3.158-1.362,8.236-5.387,13.314-10.465,4.706-4.644,12.88-14.118,10.589-16.41a1.325,1.325,0,0,0-1.115-.433Zm0,1.238c.124,0,.248,0,.248.062.681.681-2.415,6.5-10.589,14.676a79.378,79.378,0,0,1-8.654,7.57l-3-3a77.91,77.91,0,0,1,7.57-8.654C59.948,18.626,65.583,14.91,67.44,14.91Zm-51.335,6.13a2.062,2.062,0,0,0-2.043,2.043v36.1a2.062,2.062,0,0,0,2.043,2.043h19.63c-.124,1.177-.248,3.468-.372,4.458,0,.248,0,.433-.062.433-.062.743-.186.991-.372,1.177-.062.062-.062.062-.124.062-.062.062-.186.124-.248.186-.186.124-.372.248-.619.433l-.186.124a1.53,1.53,0,0,0-.743,1.177.8.8,0,0,0,.5.743,9.775,9.775,0,0,0,3.282.619H48.182a8.415,8.415,0,0,0,3.282-.619.724.724,0,0,0,.5-.681,1.37,1.37,0,0,0-.743-1.115,7.519,7.519,0,0,1-.867-.619.855.855,0,0,0-.248-.186l-.124-.124a1.357,1.357,0,0,1-.372-.991,2.32,2.32,0,0,0-.062-.5c-.062-1.053-.248-3.282-.31-4.52h19.63a2.062,2.062,0,0,0,2.043-2.043V23.085a1.869,1.869,0,0,0-1.746-2.025,13.238,13.238,0,0,1-.855,1.22h.681a.82.82,0,0,1,.8.8V54.542H15.3V23.085a.82.82,0,0,1,.8-.8H51.03c.372-.372.8-.8,1.3-1.238Zm53.057.019s.009-.015.012-.019h-.186a1.647,1.647,0,0,1,.173.019ZM44.73,35.237l2.7,2.7a20.956,20.956,0,0,1-3.27,1.932,1.034,1.034,0,0,1-.557.186c-.062,0-.124,0-.31-.248l-.31-.31c-.31-.31-.433-.433-.062-1.177a21.459,21.459,0,0,1,1.811-3.081Zm-5.716,3.941a3.862,3.862,0,0,1,2.109.625l.124.062a4.345,4.345,0,0,1,2.043,2.787c.433,1.672-.557,3.22-2.725,4.273a7.331,7.331,0,0,1-3.468.8,7.854,7.854,0,0,1-3.715-.929,2.994,2.994,0,0,0,2.105-1.053,1.787,1.787,0,0,0,.433-1.424l-.062-.5a5.318,5.318,0,0,1,.31-3.034,2.754,2.754,0,0,1,2.105-1.548,4.013,4.013,0,0,1,.74-.068ZM15.3,55.78H69.794v3.406a.82.82,0,0,1-.8.8H16.106a.82.82,0,0,1-.8-.8Zm21.735,5.511H48.12c.124,1.177.31,3.592.372,4.582a1.714,1.714,0,0,0,.062.5,2.566,2.566,0,0,0,.8,1.8l.062.124a1.087,1.087,0,0,0,.31.248l.743.557a7.3,7.3,0,0,1-2.167.31H36.85a11.4,11.4,0,0,1-2.291-.31,5.652,5.652,0,0,0,.8-.5c.062,0,.062-.062.124-.062a1.087,1.087,0,0,0,.31-.248,2.873,2.873,0,0,0,.8-1.92,2.805,2.805,0,0,1,.062-.5c.062-.991.248-3.406.372-4.582Z" transform="translate(-13.562 -13.172)"/></svg>