<svg xmlns="http://www.w3.org/2000/svg" viewBox="0 0 56.39 56.391"><defs><style>.a{fill:#dc3098;stroke:#fff;stroke-width:2px;}</style></defs><g transform="translate(-7.002 -7)"><path class="a" d="M20.885,19.655H17V17.713a5.832,5.832,0,0,1,5.828-5.828A1.946,1.946,0,0,0,24.77,9.943V8h3.885V9.943a5.832,5.832,0,0,1-5.828,5.828,1.946,1.946,0,0,0-1.943,1.943Z" transform="translate(-3.172)"/><path class="a" d="M41.885,19.655H38V17.713a5.832,5.832,0,0,1,5.828-5.828A1.946,1.946,0,0,0,45.77,9.943V8h3.885V9.943a5.832,5.832,0,0,1-5.828,5.828,1.946,1.946,0,0,0-1.943,1.943Z" transform="translate(-10.574)"/><path class="a" d="M62.885,19.655H59V17.713a5.832,5.832,0,0,1,5.828-5.828A1.946,1.946,0,0,0,66.77,9.943V8h3.885V9.943a5.832,5.832,0,0,1-5.828,5.828,1.946,1.946,0,0,0-1.943,1.943Z" transform="translate(-17.976)"/><path class="a" d="M52.679,37.828h-.169c.063-1.257.129-2.509.169-3.824a1.944,1.944,0,0,0-1.942-2H9.943A1.94,1.94,0,0,0,8,34c.445,14.357,2.221,24.987,5.936,35.55a1.942,1.942,0,0,0,1.831,1.3H44.909a1.942,1.942,0,0,0,1.831-1.3,96.035,96.035,0,0,0,3.432-12.3h2.507a9.713,9.713,0,1,0,0-19.425ZM43.522,66.965H17.157c-3.106-9.252-4.765-18.73-5.271-31.08H48.723c-.438,10.707-1.793,20.927-5.2,31.08Zm9.156-13.6H50.906c.46-2.722,1.047-7.317,1.368-11.655a5.834,5.834,0,1,1,.4,11.655Z" transform="translate(0 -8.46)"/></g></svg>