<svg xmlns="http://www.w3.org/2000/svg" viewBox="0 0 54.189 64.623"><defs><style>.a{fill:#afd960;}</style></defs><g transform="translate(-12.266 -5)"><path class="a" d="M39.9,50.155a3.039,3.039,0,0,0,3.035-3.038V27.972a3.037,3.037,0,0,0-6.039-.463,5.032,5.032,0,0,0-4.185,4.448,5.971,5.971,0,0,0,0,11.174A5.032,5.032,0,0,0,36.9,47.58a3.045,3.045,0,0,0,3,2.575Zm-2.191-4.305a3.23,3.23,0,0,1-3.228-3.223l-.9-.034.906-.07a.894.894,0,0,0-.679-.926,4.177,4.177,0,0,1,0-8.106.894.894,0,0,0,.679-.926c0-.006-.008-.1-.008-.1A3.228,3.228,0,0,1,37.7,29.237h0a.884.884,0,0,0,.746-.272.9.9,0,0,0,.238-.757,1.68,1.68,0,0,1-.025-.236,1.241,1.241,0,1,1,2.482,0v8.855h-.659c-.017,0-.034-.006-.05-.006a.574.574,0,0,0-.067-.014h-.07a2.336,2.336,0,0,1-2.084-1.77,2.015,2.015,0,1,0-1.447.042,3.707,3.707,0,0,0,.763,1.725l-1.021,0a1.93,1.93,0,1,0,0,1.436H40.3c.065,0,.123.02.188.02h.659v8.855a1.241,1.241,0,1,1-2.482,0,1.29,1.29,0,0,1,.025-.236.891.891,0,0,0-.875-1.035c-.036,0-.07,0-.1,0Zm-.289-12.086a.567.567,0,1,1,.567-.567A.567.567,0,0,1,37.422,33.764Zm-2.213,3.761a.494.494,0,1,1-.494-.494A.494.494,0,0,1,35.209,37.525Z" transform="translate(-4.676 -5.621)"/><path class="a" d="M54.562,50.155a3.045,3.045,0,0,0,3-2.575,5.032,5.032,0,0,0,4.185-4.448,5.971,5.971,0,0,0,0-11.174,5.032,5.032,0,0,0-4.185-4.448,3.037,3.037,0,0,0-6.039.463V47.117a3.041,3.041,0,0,0,3.035,3.038Zm0-23.426A1.245,1.245,0,0,1,55.8,27.972a1.675,1.675,0,0,1-.025.238.89.89,0,0,0,.973,1.029,3.23,3.23,0,0,1,3.228,3.223l.9.034-.906.07a.894.894,0,0,0,.679.926,4.176,4.176,0,0,1,0,8.106.894.894,0,0,0-.679.926c0,.006.008.1.008.1a3.228,3.228,0,0,1-3.214,3.228h0a.876.876,0,0,0-.746.272.9.9,0,0,0-.241.757,1.675,1.675,0,0,1,.025.238,1.241,1.241,0,1,1-2.482,0l0-8.858h.659a2.342,2.342,0,0,1,2.269,1.789,2.017,2.017,0,1,0,1.45-.042,3.729,3.729,0,0,0-.777-1.745h1.24a.62.62,0,0,0,.07-.014,2,2,0,1,0,0-1.408.517.517,0,0,0-.07-.014H54.638a.707.707,0,0,0-.219.045,3.791,3.791,0,0,0-.438-.045h-.659l0-8.858a1.24,1.24,0,0,1,1.237-1.243Zm2.482,14.6a.567.567,0,1,1-.567.567A.567.567,0,0,1,57.044,41.325Zm2.491-3.781a.567.567,0,1,1,.567.567A.567.567,0,0,1,59.535,37.544Z" transform="translate(-11.071 -5.621)"/><path class="a" d="M40.375,71.065a2.359,2.359,0,0,0,4.552,0A5.941,5.941,0,0,0,50.1,65.184V58.878a7.2,7.2,0,0,0,2.339-5.315,5.073,5.073,0,0,1,.508-2.207,5.329,5.329,0,0,1,1.436-1.8,18.709,18.709,0,1,0-23.4.053,5.01,5.01,0,0,1,1.882,3.949,7.2,7.2,0,0,0,2.126,5.127c.067.067.143.126.213.191v6.3a5.939,5.939,0,0,0,5.172,5.884ZM38,67.284a3.722,3.722,0,0,1-.547-1.29l10.5-2.356v1.411Zm-.642-4.154,10.591-2.373v1.411L37.355,64.544Zm0-1.47V59.807h8.272Zm6.81,7.3H41.138a3.734,3.734,0,0,1-1.843-.5l8.375-1.879a3.781,3.781,0,0,1-3.506,2.378ZM32.326,47.928a16.553,16.553,0,0,1,9.236-29.456A16.551,16.551,0,0,1,53.031,47.883a7.478,7.478,0,0,0-2.017,2.524,7.217,7.217,0,0,0-.726,3.155,5.063,5.063,0,0,1-2.078,4.092l-11.118,0a4.792,4.792,0,0,1-.578-.488,5.062,5.062,0,0,1-1.495-3.6,7.155,7.155,0,0,0-2.693-5.632Z" transform="translate(-3.293 -3.182)"/><path class="a" d="M13.27,41.336a1,1,0,1,0,0,2.008h3.809a1,1,0,1,0,0-2.008Z" transform="translate(0 -10.246)"/><path class="a" d="M80.637,41.336a1,1,0,0,0,0,2.008h3.809a1,1,0,0,0,0-2.008Z" transform="translate(-18.996 -10.246)"/><path class="a" d="M25.9,20.05a1,1,0,0,0,1.419-1.422l-2.693-2.693A1.006,1.006,0,0,0,23.2,17.357Z" transform="translate(-3 -3)"/><path class="a" d="M73.529,67.683a1,1,0,0,0,1.419-1.422l-2.693-2.693a1.006,1.006,0,0,0-1.422,1.422Z" transform="translate(-16.431 -16.431)"/><path class="a" d="M23.2,67.683a1,1,0,0,0,1.419,0l2.693-2.693a1.006,1.006,0,1,0-1.422-1.422L23.2,66.26a1.008,1.008,0,0,0,0,1.422Z" transform="translate(-3 -16.431)"/><path class="a" d="M74.953,15.935a1.006,1.006,0,0,0-1.422,0l-2.693,2.693a1.006,1.006,0,0,0,.71,1.717.993.993,0,0,0,.71-.295l2.693-2.693a1,1,0,0,0,0-1.422Z" transform="translate(-16.433 -3)"/><path class="a" d="M48.6,6V9.813a1,1,0,0,0,2.008,0V6A1,1,0,0,0,48.6,6Z" transform="translate(-10.246 0)"/></g></svg>