<svg xmlns="http://www.w3.org/2000/svg" viewBox="0 0 51.967 51.782"><defs><style>.a{fill:none;stroke:#dc3098;stroke-width:2px;fill-rule:evenodd;}</style></defs><path class="a" d="M52.5,55.259H35.914a2.738,2.738,0,0,1-2.765-2.765V35.9a2.738,2.738,0,0,1,2.765-2.765H52.5A2.738,2.738,0,0,1,55.269,35.9v16.59A2.738,2.738,0,0,1,52.5,55.259ZM45.7,27a2.1,2.1,0,0,1-2.985,0l-8.958-8.958a2.1,2.1,0,0,1,0-2.985L42.716,6.1a2.1,2.1,0,0,1,2.985,0l8.958,8.958a2.1,2.1,0,0,1,0,2.985ZM24.855,55.259H8.265A2.738,2.738,0,0,1,5.5,52.494V35.9a2.738,2.738,0,0,1,2.765-2.765h16.59A2.738,2.738,0,0,1,27.62,35.9v16.59A2.738,2.738,0,0,1,24.855,55.259Zm0-27.649H8.265A2.738,2.738,0,0,1,5.5,24.844V8.254A2.738,2.738,0,0,1,8.265,5.49h16.59A2.738,2.738,0,0,1,27.62,8.254v16.59A2.738,2.738,0,0,1,24.855,27.609Z" transform="translate(-4.5 -4.477)"/></svg>