<svg xmlns="http://www.w3.org/2000/svg" viewBox="0 0 67.509 67.506"><defs><style>.a{fill:#45b6e4;}</style></defs><g transform="translate(-1175 -1673)"><g transform="translate(1175 1673)"><path class="a" d="M82.628,59.375h-31.5A1.125,1.125,0,0,0,50,60.5V80.752a1.124,1.124,0,0,0,1.125,1.125H62.376v2.25h-2.25v2.25h13.5v-2.25h-2.25v-2.25H82.628a1.124,1.124,0,0,0,1.125-1.125V60.5a1.124,1.124,0,0,0-1.125-1.125Zm-13.5,24.752h-4.5v-2.25h4.5Zm12.377-4.5H52.25v-18H81.5Z" transform="translate(-16.244 -18.872)"/><path class="a" d="M33.5,16.626a3.372,3.372,0,0,0-3.167,2.25H27.876V4.251a1.124,1.124,0,0,0-1.125-1.125A16.9,16.9,0,0,0,10.273,16.384,4.487,4.487,0,1,0,6.5,24.342v6.911H4.249a1.125,1.125,0,0,0-1.125,1.125v4.5A1.124,1.124,0,0,0,4.249,38H11a1.124,1.124,0,0,0,1.125-1.125v-4.5A1.124,1.124,0,0,0,11,31.253H8.749V24.342a4.4,4.4,0,0,0,1.525-.723A16.9,16.9,0,0,0,26.751,36.878a1.124,1.124,0,0,0,1.125-1.125V21.127h2.458a3.369,3.369,0,1,0,3.167-4.5ZM9.875,35.753h-4.5V33.5h4.5Zm-2.25-13.5a2.247,2.247,0,1,1,1.592-.658,2.249,2.249,0,0,1-1.592.658Zm18,12.334a14.627,14.627,0,0,1,0-29.168ZM33.5,21.127a1.124,1.124,0,1,1,.8-.329,1.124,1.124,0,0,1-.8.329Z" transform="translate(-3.121 -3.125)"/><path class="a" d="M67.752,43.66,66.3,42.205,64.706,43.8l3.375,3.375a1.127,1.127,0,0,0,1.592,0L73.048,43.8l-1.592-1.592L70,43.66V26.125A1.124,1.124,0,0,0,68.877,25H53.126v2.25H67.752Z" transform="translate(-17.119 -9.249)"/><path class="a" d="M24.5,56.967l1.454,1.454,1.592-1.592-3.375-3.375a1.127,1.127,0,0,0-1.592,0l-3.375,3.375L20.8,58.421l1.454-1.454V71.127a1.124,1.124,0,0,0,1.125,1.125H39.129V70H24.5Z" transform="translate(-7.624 -17.122)"/></g></g></svg>