<svg xmlns="http://www.w3.org/2000/svg" viewBox="0 0 73.432 51.769">
  <defs>
    <style>
      .cls-1, .cls-2 {
        fill: #dc3098;
      }

      .cls-1, .cls-3 {
        stroke: #dc3098;
      }

      .cls-3 {
        fill: none;
        stroke-linecap: round;
        stroke-width: 4px;
      }
    </style>
  </defs>
  <g id="Group_803" data-name="Group 803" transform="translate(-376.318 -2589.431)">
    <g id="Group_783" data-name="Group 783" transform="translate(413 2564.515)">
      <path id="Path_417" data-name="Path 417" class="cls-1" d="M33.171,4.818c-.209-3.7-2.235-4.679-2.3-4.749A.42.42,0,0,0,30.587,0H6.425a.257.257,0,0,0-.209.07A5.291,5.291,0,0,0,3.073,4.888,3.628,3.628,0,0,0,.209,7.472,6.887,6.887,0,0,0,0,9.148a.689.689,0,0,0,.7.628H3l.349,8.1h-.21a.634.634,0,0,0-.489.209.754.754,0,0,0-.21.489l.768,18.645a.751.751,0,0,0,.7.7H4.4l.559,10.894a2.075,2.075,0,0,0,2.095,1.955H29.19a2.075,2.075,0,0,0,2.095-1.955l.559-10.964h.489a.7.7,0,0,0,.7-.7L33.8,18.576a.716.716,0,0,0-.7-.7h-.209l.349-8.031h2.3a.689.689,0,0,0,.7-.628,5.034,5.034,0,0,0-.908-3.212A2.84,2.84,0,0,0,33.171,4.818ZM6.564,1.4H30.377c.349.279,1.257,1.117,1.4,3.422H4.469A3.966,3.966,0,0,1,6.564,1.4ZM29.819,48.674a.645.645,0,0,1-.7.628H7.053a.743.743,0,0,1-.7-.628L5.8,37.85H30.447Zm1.816-12.221H4.609l-.7-17.179H32.4Zm-.14-18.506H4.749L4.4,9.846H31.844ZM1.4,8.45a1.644,1.644,0,0,1,.14-.559A2.265,2.265,0,0,1,3.771,6.285h29.4a1.231,1.231,0,0,1,1.048.559,3.5,3.5,0,0,1,.628,1.676H1.4Z" transform="translate(0 25.417)"/>
      <path id="Path_418" data-name="Path 418" class="cls-2" d="M26.644,35.078c-1.955-1.955-4.888-2.235-6.494-.629s-1.327,4.539.629,6.494a5.481,5.481,0,0,0,3.841,1.676,3.633,3.633,0,0,0,2.654-1.047A3.789,3.789,0,0,0,28.32,38.36,6.184,6.184,0,0,0,26.644,35.078Zm-4.958,4.888A3.7,3.7,0,0,1,20.5,36.544a6.135,6.135,0,0,0,1.466.628,3.447,3.447,0,0,1,2.514,2.514,4.228,4.228,0,0,0,.7,1.536A4.014,4.014,0,0,1,21.686,39.966Zm4.679.489a3.54,3.54,0,0,1-.628-1.257,4.881,4.881,0,0,0-3.422-3.422,3.894,3.894,0,0,1-1.117-.489,2.44,2.44,0,0,1,1.536-.559,4.369,4.369,0,0,1,4.12,3.771A2.33,2.33,0,0,1,26.365,40.455Z" transform="translate(-5.764 15.339)"/>
    </g>
    <path id="Path_407" data-name="Path 407" class="cls-3" d="M7264.025,1394.82h-21.707" transform="translate(-6864 1222)"/>
    <path id="Path_408" data-name="Path 408" class="cls-3" d="M7264.025,1394.82h-21.707" transform="translate(-6860 1230)"/>
    <path id="Path_409" data-name="Path 409" class="cls-3" d="M7264.025,1394.82h-21.707" transform="translate(-6857 1238)"/>
    <path id="Path_410" data-name="Path 410" class="cls-3" d="M7264.025,1394.82h-21.707" transform="translate(-6860 1214)"/>
  </g>
</svg>
