<svg xmlns="http://www.w3.org/2000/svg" viewBox="0 0 56.783 38.186"><defs><style>.a{fill:#489490;}</style></defs><path class="a" d="M61.372,34.47a1.461,1.461,0,0,1-1.024-.4A36.086,36.086,0,0,0,34.433,23.251,36.493,36.493,0,0,0,8.462,34.016a1.409,1.409,0,0,1-1.993-1.993,39.6,39.6,0,0,1,55.928,0,1.375,1.375,0,0,1,0,1.993,1.432,1.432,0,0,1-1.024.454Zm-6.436,7.062a1.375,1.375,0,0,0,0-1.993,29.01,29.01,0,0,0-40.949,0,1.375,1.375,0,0,0,0,1.993,1.426,1.426,0,0,0,1.993,0,26.158,26.158,0,0,1,36.963,0,1.37,1.37,0,0,0,1.024.4,1.25,1.25,0,0,0,.969-.4Zm-7.518,7.46a1.375,1.375,0,0,0,0-1.993,18.358,18.358,0,0,0-25.971,0,1.375,1.375,0,0,0,0,1.993,1.426,1.426,0,0,0,1.993,0,15.606,15.606,0,0,1,21.985,0,1.37,1.37,0,0,0,1.024.4,1.25,1.25,0,0,0,.969-.4ZM32.154,57.707a3.23,3.23,0,0,0,4.556,0l2.22-2.22a6.328,6.328,0,0,0-9,0Z" transform="translate(-6.041 -20.461)"/></svg>