<svg xmlns="http://www.w3.org/2000/svg" xmlns:xlink="http://www.w3.org/1999/xlink" viewBox="0 0 1179.621 1185.474">
  <defs>
    <style>
      .cls-1 {
        opacity: 0.18;
      }

      .cls-2 {
        fill: #dbd9d6;
      }

      .cls-3 {
        clip-path: url(#clip-path);
      }

      .cls-4 {
        clip-path: url(#clip-path-2);
      }

      .cls-5 {
        clip-path: url(#clip-path-4);
      }

      .cls-6 {
        clip-path: url(#clip-path-5);
      }

      .cls-7 {
        clip-path: url(#clip-path-7);
      }

      .cls-8 {
        clip-path: url(#clip-path-8);
      }

      .cls-9 {
        clip-path: url(#clip-path-10);
      }

      .cls-10 {
        clip-path: url(#clip-path-11);
      }
    </style>
    <clipPath id="clip-path">
      <path id="Path_210" data-name="Path 210" d="M96.917,378.9c22.694,224.9,113.286,216.9,206.855,209.087,64.177-5.395,129.656-10.789,175.6,58.6,0,0,10.6-186.764-194.577-151.421-53.76,9.3-96.731-16.742-105.66-82.965-3.348-25.3-1.86-56.55,5.953-93.754-55.062-4.65-89.662-32.74-89.662-32.74-1.116,61.387,1.488,93.2,1.488,93.2" transform="translate(-95.151 -285.7)"/>
    </clipPath>
    <clipPath id="clip-path-2">
      <path id="Path_216" data-name="Path 216" d="M201.534,304.239a185.464,185.464,0,0,1-54.5,3.348c-7.813,37.39-9.3,68.455-5.953,93.754,27.345,5.209,58.968,1.86,91.15-1.3,66.223-6.883,134.307-13.579,170.953,54.132,0,0,1.674-156.071-146.77-156.071-16.37,0-34.6,2.046-54.876,6.139" transform="translate(-139.396 -298.1)"/>
    </clipPath>
    <clipPath id="clip-path-4">
      <path id="Path_222" data-name="Path 222" d="M375.5,908.4c224.9-22.694,216.9-113.286,209.087-206.855-5.395-64.177-10.789-129.656,58.6-175.6,0,0-186.764-10.6-151.421,194.577,9.3,53.76-16.742,96.731-82.965,105.66-25.3,3.348-56.55,1.86-93.754-5.953-4.651,55.062-32.74,89.662-32.74,89.662,61.387,1.3,93.2-1.488,93.2-1.488" transform="translate(-282.3 -525.85)"/>
    </clipPath>
    <clipPath id="clip-path-5">
      <path id="Path_228" data-name="Path 228" d="M300.939,748.046a185.469,185.469,0,0,1,3.348,54.5c37.39,7.813,68.455,9.3,93.754,5.953,5.208-27.345,1.86-58.969-1.3-91.15C389.856,651.13,383.16,583.046,450.871,546.4c0,0-156.071-1.674-156.071,146.77a264.66,264.66,0,0,0,6.139,54.876" transform="translate(-294.8 -546.4)"/>
    </clipPath>
    <clipPath id="clip-path-7">
      <path id="Path_234" data-name="Path 234" d="M905.2,615.683C882.693,390.785,791.915,398.6,698.346,406.6c-64.177,5.395-129.656,10.789-175.6-58.6,0,0-10.6,186.764,194.577,151.421,53.76-9.3,96.731,16.742,105.66,82.965,3.348,25.3,1.86,56.55-5.953,93.754,55.062,4.651,89.662,32.74,89.662,32.74,1.3-61.573-1.488-93.2-1.488-93.2" transform="translate(-522.65 -348)"/>
    </clipPath>
    <clipPath id="clip-path-8">
      <path id="Path_240" data-name="Path 240" d="M744.947,595.532a185.465,185.465,0,0,1,54.5-3.348c7.813-37.39,9.3-68.456,5.953-93.754-27.345-5.209-58.969-1.86-91.15,1.3C648.03,506.615,579.947,513.311,543.3,445.6c0,0-1.674,156.071,146.77,156.071a266.031,266.031,0,0,0,54.876-6.139" transform="translate(-543.3 -445.6)"/>
    </clipPath>
    <clipPath id="clip-path-10">
      <path id="Path_246" data-name="Path 246" d="M615.7,96.871C390.985,119.565,398.8,210.157,406.8,303.911c5.395,64.177,10.789,129.656-58.6,175.6,0,0,186.764,10.6,151.421-194.577-9.3-53.76,16.742-96.731,82.965-105.66,25.3-3.348,56.55-1.86,93.754,5.953,4.651-55.062,32.74-89.662,32.74-89.662-61.573-1.3-93.382,1.3-93.382,1.3" transform="translate(-348.2 -95.204)"/>
    </clipPath>
    <clipPath id="clip-path-11">
      <path id="Path_252" data-name="Path 252" d="M595.732,201.534a185.466,185.466,0,0,1-3.348-54.5c-37.39-7.813-68.455-9.3-93.754-5.953-5.209,27.345-1.86,58.968,1.3,91.15,6.883,66.223,13.579,134.307-54.132,170.953,0,0,156.071,1.674,156.071-146.77a266.018,266.018,0,0,0-6.139-54.876" transform="translate(-445.8 -139.396)"/>
    </clipPath>
  </defs>
  <g id="Group_582" data-name="Group 582" class="cls-1" transform="translate(-643.378 -975.403)">
    <g id="Group_580" data-name="Group 580" transform="translate(643.379 975.403)">
      <g id="Group_533" data-name="Group 533" transform="translate(196.001 17.478)">
        <path id="Path_207" data-name="Path 207" class="cls-2" d="M286.614,171.381C39.579,465.666,407.155,426.043,363.44,624.9c0,0,142.678-124.82-28.089-241.454-44.645-30.693-56.178-78.687-14.7-131.7,15.812-20.276,39.622-41.3,71.99-62.131-35.53-41.3-39.808-85.011-39.808-85.011-45.2,42.413-66.223,66.781-66.223,66.781" transform="translate(-200.516 -104.6)"/>
      </g>
      <g id="Group_535" data-name="Group 535" transform="translate(0 354.361)">
        <path id="Path_209" data-name="Path 209" class="cls-2" d="M96.917,378.9c22.694,224.9,113.286,216.9,206.855,209.087,64.177-5.395,129.656-10.789,175.6,58.6,0,0,10.6-186.764-194.577-151.421-53.76,9.3-96.731-16.742-105.66-82.965-3.348-25.3-1.86-56.55,5.953-93.754-55.062-4.65-89.662-32.74-89.662-32.74-1.116,61.387,1.488,93.2,1.488,93.2" transform="translate(-95.151 -285.7)"/>
        <g id="Group_534" data-name="Group 534" class="cls-3">
          <rect id="Rectangle_430" data-name="Rectangle 430" class="cls-2" width="395.851" height="360.879" transform="translate(-0.838 0)"/>
        </g>
      </g>
      <g id="Group_537" data-name="Group 537" transform="translate(0 354.361)">
        <path id="Path_211" data-name="Path 211" class="cls-2" d="M96.917,378.9c22.694,224.9,113.286,216.9,206.855,209.087,64.177-5.395,129.656-10.789,175.6,58.6,0,0,10.6-186.764-194.577-151.421-53.76,9.3-96.731-16.742-105.66-82.965-3.348-25.3-1.86-56.55,5.953-93.754-55.062-4.65-89.662-32.74-89.662-32.74-1.116,61.387,1.488,93.2,1.488,93.2" transform="translate(-95.151 -285.7)"/>
      </g>
      <g id="Group_539" data-name="Group 539" transform="translate(316.141 102.49)">
        <path id="Path_213" data-name="Path 213" class="cls-2" d="M265.1,212.431C312.907,281.63,446.47,322.183,412.242,431c0,0,140.817-134.679-34.042-245.547A185.276,185.276,0,0,1,337.276,150.3c-32.554,20.834-56.178,41.855-72.176,62.131" transform="translate(-265.1 -150.3)"/>
      </g>
      <g id="Group_541" data-name="Group 541" transform="translate(82.306 377.428)">
        <path id="Path_215" data-name="Path 215" class="cls-2" d="M201.534,304.239a185.464,185.464,0,0,1-54.5,3.348c-7.813,37.39-9.3,68.455-5.953,93.754,27.345,5.209,58.968,1.86,91.15-1.3,66.223-6.883,134.307-13.579,170.953,54.132,0,0,1.674-156.071-146.77-156.071-16.37,0-34.6,2.046-54.876,6.139" transform="translate(-139.396 -298.1)"/>
        <g id="Group_540" data-name="Group 540" class="cls-4">
          <rect id="Rectangle_433" data-name="Rectangle 433" class="cls-2" width="267.125" height="156.071" transform="translate(-1.667 0)"/>
        </g>
      </g>
      <g id="Group_543" data-name="Group 543" transform="translate(82.306 377.428)">
        <path id="Path_217" data-name="Path 217" class="cls-2" d="M201.534,304.239a185.464,185.464,0,0,1-54.5,3.348c-7.813,37.39-9.3,68.455-5.953,93.754,27.345,5.209,58.968,1.86,91.15-1.3,66.223-6.883,134.307-13.579,170.953,54.132,0,0,1.674-156.071-146.77-156.071-16.37,0-34.6,2.046-54.876,6.139" transform="translate(-139.396 -298.1)"/>
        <g id="Group_542" data-name="Group 542" class="cls-4">
          <rect id="Rectangle_434" data-name="Rectangle 434" class="cls-2" width="267.125" height="156.071" transform="translate(-1.667 0)"/>
        </g>
      </g>
      <g id="Group_545" data-name="Group 545" transform="translate(11.439 770.824)">
        <path id="Path_219" data-name="Path 219" class="cls-2" d="M168.081,642.249C462.366,889.284,422.743,521.708,621.6,565.423c0,0-124.82-142.678-241.454,28.089-30.693,44.645-78.687,56.178-131.7,14.7-20.276-15.812-41.3-39.622-62.131-71.99-41.3,35.53-85.011,39.808-85.011,39.808,42.413,45.017,66.781,66.223,66.781,66.223" transform="translate(-101.3 -509.58)"/>
      </g>
      <g id="Group_547" data-name="Group 547" transform="translate(348.136 801.089)">
        <path id="Path_221" data-name="Path 221" class="cls-2" d="M375.5,908.4c224.9-22.694,216.9-113.286,209.087-206.855-5.395-64.177-10.789-129.656,58.6-175.6,0,0-186.764-10.6-151.421,194.577,9.3,53.76-16.742,96.731-82.965,105.66-25.3,3.348-56.55,1.86-93.754-5.953-4.651,55.062-32.74,89.662-32.74,89.662,61.387,1.3,93.2-1.488,93.2-1.488" transform="translate(-282.3 -525.85)"/>
        <g id="Group_546" data-name="Group 546" class="cls-5">
          <rect id="Rectangle_436" data-name="Rectangle 436" class="cls-2" width="360.879" height="395.851" transform="translate(0 -10.51)"/>
        </g>
      </g>
      <g id="Group_549" data-name="Group 549" transform="translate(348.136 801.089)">
        <path id="Path_223" data-name="Path 223" class="cls-2" d="M375.5,908.4c224.9-22.694,216.9-113.286,209.087-206.855-5.395-64.177-10.789-129.656,58.6-175.6,0,0-186.764-10.6-151.421,194.577,9.3,53.76-16.742,96.731-82.965,105.66-25.3,3.348-56.55,1.86-93.754-5.953-4.651,55.062-32.74,89.662-32.74,89.662,61.387,1.3,93.2-1.488,93.2-1.488" transform="translate(-282.3 -525.85)"/>
      </g>
      <g id="Group_551" data-name="Group 551" transform="translate(96.265 668.524)">
        <path id="Path_225" data-name="Path 225" class="cls-2" d="M209.031,655.328c69.2-47.807,109.752-181.37,218.574-147.142,0,0-134.679-140.817-245.547,34.042A185.273,185.273,0,0,1,146.9,583.152c20.834,32.554,41.855,56.364,62.131,72.176" transform="translate(-146.9 -454.586)"/>
      </g>
      <g id="Group_553" data-name="Group 553" transform="translate(371.389 839.316)">
        <path id="Path_227" data-name="Path 227" class="cls-2" d="M300.939,748.046a185.469,185.469,0,0,1,3.348,54.5c37.39,7.813,68.455,9.3,93.754,5.953,5.208-27.345,1.86-58.969-1.3-91.15C389.856,651.13,383.16,583.046,450.871,546.4c0,0-156.071-1.674-156.071,146.77a264.66,264.66,0,0,0,6.139,54.876" transform="translate(-294.8 -546.4)"/>
        <g id="Group_552" data-name="Group 552" class="cls-6">
          <rect id="Rectangle_439" data-name="Rectangle 439" class="cls-2" width="156.071" height="267.125" transform="translate(0 -1.673)"/>
        </g>
      </g>
      <g id="Group_555" data-name="Group 555" transform="translate(371.389 839.316)">
        <path id="Path_229" data-name="Path 229" class="cls-2" d="M300.939,748.046a185.469,185.469,0,0,1,3.348,54.5c37.39,7.813,68.455,9.3,93.754,5.953,5.208-27.345,1.86-58.969-1.3-91.15C389.856,651.13,383.16,583.046,450.871,546.4c0,0-156.071-1.674-156.071,146.77a264.66,264.66,0,0,0,6.139,54.876" transform="translate(-294.8 -546.4)"/>
        <g id="Group_554" data-name="Group 554" class="cls-6">
          <rect id="Rectangle_440" data-name="Rectangle 440" class="cls-2" width="156.071" height="267.125" transform="translate(0 -1.673)"/>
        </g>
      </g>
      <g id="Group_557" data-name="Group 557" transform="translate(764.971 647.529)">
        <path id="Path_231" data-name="Path 231" class="cls-2" d="M639.049,896.818C886.084,602.533,518.508,642.156,562.223,443.3c0,0-142.678,124.82,28.089,241.454,44.645,30.693,56.178,78.687,14.7,131.7-15.812,20.276-39.622,41.3-71.99,62.131,35.53,41.3,39.808,85.011,39.808,85.011,45.017-42.412,66.223-66.781,66.223-66.781" transform="translate(-506.38 -443.3)"/>
      </g>
      <g id="Group_559" data-name="Group 559" transform="translate(795.236 470.252)">
        <path id="Path_233" data-name="Path 233" class="cls-2" d="M905.2,615.683C882.693,390.785,791.915,398.6,698.346,406.6c-64.177,5.395-129.656,10.789-175.6-58.6,0,0-10.6,186.764,194.577,151.421,53.76-9.3,96.731,16.742,105.66,82.965,3.348,25.3,1.86,56.55-5.953,93.754,55.062,4.651,89.662,32.74,89.662,32.74,1.3-61.573-1.488-93.2-1.488-93.2" transform="translate(-522.65 -348)"/>
        <g id="Group_558" data-name="Group 558" class="cls-7">
          <rect id="Rectangle_442" data-name="Rectangle 442" class="cls-2" width="395.851" height="360.879" transform="translate(-10.51)"/>
        </g>
      </g>
      <g id="Group_563" data-name="Group 563" transform="translate(662.671 802.298)">
        <path id="Path_237" data-name="Path 237" class="cls-2" d="M652.128,745.074c-47.807-69.2-181.37-109.752-147.142-218.574,0,0-140.817,134.679,34.042,245.547A185.274,185.274,0,0,1,579.952,807.2c32.74-21.02,56.364-41.855,72.176-62.131" transform="translate(-451.386 -526.5)"/>
      </g>
      <g id="Group_565" data-name="Group 565" transform="translate(833.648 651.808)">
        <path id="Path_239" data-name="Path 239" class="cls-2" d="M744.947,595.532a185.465,185.465,0,0,1,54.5-3.348c7.813-37.39,9.3-68.456,5.953-93.754-27.345-5.209-58.969-1.86-91.15,1.3C648.03,506.615,579.947,513.311,543.3,445.6c0,0-1.674,156.071,146.77,156.071a266.031,266.031,0,0,0,54.876-6.139" transform="translate(-543.3 -445.6)"/>
        <g id="Group_564" data-name="Group 564" class="cls-8">
          <rect id="Rectangle_445" data-name="Rectangle 445" class="cls-2" width="267.125" height="156.071" transform="translate(-1.859 0)"/>
        </g>
      </g>
      <g id="Group_567" data-name="Group 567" transform="translate(833.648 651.808)">
        <path id="Path_241" data-name="Path 241" class="cls-2" d="M744.947,595.532a185.465,185.465,0,0,1,54.5-3.348c7.813-37.39,9.3-68.456,5.953-93.754-27.345-5.209-58.969-1.86-91.15,1.3C648.03,506.615,579.947,513.311,543.3,445.6c0,0-1.674,156.071,146.77,156.071a266.031,266.031,0,0,0,54.876-6.139" transform="translate(-543.3 -445.6)"/>
        <g id="Group_566" data-name="Group 566" class="cls-8">
          <rect id="Rectangle_446" data-name="Rectangle 446" class="cls-2" width="267.125" height="156.071" transform="translate(-1.859 0)"/>
        </g>
      </g>
      <g id="Group_569" data-name="Group 569" transform="translate(648.001 195.902)">
        <path id="Path_243" data-name="Path 243" class="cls-2" d="M897.018,286.614C602.733,39.579,642.356,407.155,443.5,363.44c0,0,124.82,142.678,241.454-28.089,30.693-44.645,78.687-56.178,131.7-14.7,20.276,15.812,41.3,39.622,62.131,71.99,41.3-35.53,85.011-39.808,85.011-39.808-42.412-45.2-66.781-66.223-66.781-66.223" transform="translate(-443.5 -200.516)"/>
      </g>
      <g id="Group_571" data-name="Group 571" transform="translate(470.724 0)">
        <path id="Path_245" data-name="Path 245" class="cls-2" d="M615.7,96.871C390.985,119.565,398.8,210.157,406.8,303.911c5.395,64.177,10.789,129.656-58.6,175.6,0,0,186.764,10.6,151.421-194.577-9.3-53.76,16.742-96.731,82.965-105.66,25.3-3.348,56.55-1.86,93.754,5.953,4.651-55.062,32.74-89.662,32.74-89.662-61.573-1.3-93.382,1.3-93.382,1.3" transform="translate(-348.2 -95.204)"/>
        <g id="Group_570" data-name="Group 570" class="cls-9">
          <rect id="Rectangle_448" data-name="Rectangle 448" class="cls-2" width="360.879" height="395.851" transform="translate(0 -0.938)"/>
        </g>
      </g>
      <g id="Group_573" data-name="Group 573" transform="translate(470.724 0)">
        <path id="Path_247" data-name="Path 247" class="cls-2" d="M615.7,96.871C390.985,119.565,398.8,210.157,406.8,303.911c5.395,64.177,10.789,129.656-58.6,175.6,0,0,186.764,10.6,151.421-194.577-9.3-53.76,16.742-96.731,82.965-105.66,25.3-3.348,56.55-1.86,93.754,5.953,4.651-55.062,32.74-89.662,32.74-89.662-61.573-1.3-93.382,1.3-93.382,1.3" transform="translate(-348.2 -95.204)"/>
      </g>
      <g id="Group_575" data-name="Group 575" transform="translate(802.77 316.041)">
        <path id="Path_249" data-name="Path 249" class="cls-2" d="M745.274,265.1c-69.2,47.807-109.752,181.37-218.574,147.142,0,0,134.679,140.817,245.547-34.042A185.271,185.271,0,0,1,807.4,337.276c-21.02-32.554-42.041-56.178-62.131-72.176" transform="translate(-526.7 -265.1)"/>
      </g>
      <g id="Group_577" data-name="Group 577" transform="translate(652.28 82.206)">
        <path id="Path_251" data-name="Path 251" class="cls-2" d="M595.732,201.534a185.466,185.466,0,0,1-3.348-54.5c-37.39-7.813-68.455-9.3-93.754-5.953-5.209,27.345-1.86,58.968,1.3,91.15,6.883,66.223,13.579,134.307-54.132,170.953,0,0,156.071,1.674,156.071-146.77a266.018,266.018,0,0,0-6.139-54.876" transform="translate(-445.8 -139.396)"/>
        <g id="Group_576" data-name="Group 576" class="cls-10">
          <rect id="Rectangle_451" data-name="Rectangle 451" class="cls-2" width="156.071" height="267.125" transform="translate(-0.186 -1.667)"/>
        </g>
      </g>
      <g id="Group_579" data-name="Group 579" transform="translate(652.28 82.206)">
        <path id="Path_253" data-name="Path 253" class="cls-2" d="M595.732,201.534a185.466,185.466,0,0,1-3.348-54.5c-37.39-7.813-68.455-9.3-93.754-5.953-5.209,27.345-1.86,58.968,1.3,91.15,6.883,66.223,13.579,134.307-54.132,170.953,0,0,156.071,1.674,156.071-146.77a266.018,266.018,0,0,0-6.139-54.876" transform="translate(-445.8 -139.396)"/>
        <g id="Group_578" data-name="Group 578" class="cls-10">
          <rect id="Rectangle_452" data-name="Rectangle 452" class="cls-2" width="156.071" height="267.125" transform="translate(-0.186 -1.667)"/>
        </g>
      </g>
    </g>
  </g>
</svg>
