<svg xmlns="http://www.w3.org/2000/svg" xmlns:xlink="http://www.w3.org/1999/xlink" width="57" height="60.559" viewBox="0 0 57 60.559"><defs><style>.a{fill:none;}.b{fill:#7acaec;}.c{clip-path:url(#a);}.d,.e{fill:#2f3d46;}.d{stroke:#2f3d45;}</style><clipPath id="a"><path class="a" d="M0,6.6H50.64V-44.042H0Z" transform="translate(0 44.042)"/></clipPath></defs><g transform="translate(-932 -2133.441)"><circle class="b" cx="28.5" cy="28.5" r="28.5" transform="translate(932 2137)"/><g transform="translate(935 2177.483)"><g class="c" transform="translate(0 -44.042)"><g transform="translate(0 0)"><path class="d" d="M3.911,6.6A4.891,4.891,0,0,1,.394,5.14L-24.636-19.889a4.892,4.892,0,0,1-1.46-3.517V-39.062a4.981,4.981,0,0,1,4.979-4.98H-5.461A4.9,4.9,0,0,1-1.944-42.58L23.084-17.552a4.973,4.973,0,0,1,0,7.036L7.429,5.14A4.941,4.941,0,0,1,3.911,6.6M-21.117-41.463v0a2.406,2.406,0,0,0-2.4,2.4v15.656a2.408,2.408,0,0,0,.7,1.716L2.212,3.32a2.39,2.39,0,0,0,3.435,0L21.3-12.335a2.392,2.392,0,0,0,.727-1.714,2.4,2.4,0,0,0-.727-1.719L-3.762-40.761a2.379,2.379,0,0,0-1.716-.7Z" transform="translate(26.096 44.042)"/></g><g transform="translate(9.15 9.15)"><path class="e" d="M.671.336a2.575,2.575,0,1,1-5.15,0,2.575,2.575,0,1,1,5.15,0" transform="translate(4.479 2.24)"/></g></g></g></g></svg>