<svg xmlns="http://www.w3.org/2000/svg" viewBox="0 0 36 36">
  <defs>
    <style>
      .cls-1 {
        fill: #55acee;
      }

      .cls-2 {
        fill: #f1f2f2;
      }
    </style>
  </defs>
  <g id="Group_87" data-name="Group 87" transform="translate(0 0)">
    <circle id="Ellipse_1" data-name="Ellipse 1" class="cls-1" cx="18" cy="18" r="18" transform="translate(0 0)"/>
    <g id="Group_86" data-name="Group 86" transform="translate(8.086 10.941)">
      <path id="Path_58" data-name="Path 58" class="cls-2" d="M46.152,36.089a8.059,8.059,0,0,1-2.471.674,4.338,4.338,0,0,0,1.893-2.374,9.1,9.1,0,0,1-2.727,1.059A4.256,4.256,0,0,0,39.7,34.1a4.3,4.3,0,0,0-4.3,4.3,4.982,4.982,0,0,0,.1.995A12.264,12.264,0,0,1,26.644,34.9a4.152,4.152,0,0,0-.578,2.15,4.309,4.309,0,0,0,1.925,3.594,4.459,4.459,0,0,1-1.957-.545v.064a4.271,4.271,0,0,0,3.465,4.2,4.315,4.315,0,0,1-1.123.16,6.251,6.251,0,0,1-.8-.064,4.32,4.32,0,0,0,4.011,2.984,8.653,8.653,0,0,1-5.358,1.829c-.353,0-.674-.032-1.027-.064A12.269,12.269,0,0,0,44.066,38.881v-.545a9.975,9.975,0,0,0,2.086-2.246Z" transform="translate(-25.2 -34.1)"/>
    </g>
  </g>
</svg>
