<svg id="Group_804" data-name="Group 804" xmlns="http://www.w3.org/2000/svg" viewBox="0 0 75.74 63.907">
  <defs>
    <style>
      .cls-1 {
        fill: #afd960;
      }
    </style>
  </defs>
  <path id="Path_470" data-name="Path 470" class="cls-1" d="M93.859,249.779a1.556,1.556,0,0,0-.429-1.05,1.464,1.464,0,0,0-1.05-.429,1.556,1.556,0,0,0-1.05.429,1.464,1.464,0,0,0-.429,1.05,1.556,1.556,0,0,0,.429,1.05,1.464,1.464,0,0,0,1.05.429,1.556,1.556,0,0,0,1.05-.429A1.528,1.528,0,0,0,93.859,249.779Z" transform="translate(-77.453 -211.568)"/>
  <path id="Path_471" data-name="Path 471" class="cls-1" d="M186.679,248.3a1.556,1.556,0,0,0-1.05.429,1.464,1.464,0,0,0-.429,1.05,1.556,1.556,0,0,0,.429,1.05,1.464,1.464,0,0,0,1.05.429,1.528,1.528,0,0,0,1.05-.429,1.489,1.489,0,0,0,.429-1.05,1.556,1.556,0,0,0-.429-1.05A1.5,1.5,0,0,0,186.679,248.3Z" transform="translate(-157.803 -211.568)"/>
  <path id="Path_472" data-name="Path 472" class="cls-1" d="M116.662,305.914a1.471,1.471,0,0,0-1.8,1.05,3.61,3.61,0,0,1-6.982,0,1.477,1.477,0,1,0-2.855.754,6.585,6.585,0,0,0,12.722,0A1.525,1.525,0,0,0,116.662,305.914Z" transform="translate(-89.442 -260.617)"/>
  <path id="Path_473" data-name="Path 473" class="cls-1" d="M247.579,12.352a1.484,1.484,0,0,0,1.479-1.479V1.479a1.479,1.479,0,0,0-2.959,0v9.394A1.484,1.484,0,0,0,247.579,12.352Z" transform="translate(-209.693)"/>
  <path id="Path_474" data-name="Path 474" class="cls-1" d="M247.579,98.9a1.556,1.556,0,0,0-1.05.429,1.464,1.464,0,0,0-.429,1.05,1.556,1.556,0,0,0,.429,1.05,1.464,1.464,0,0,0,1.05.429,1.556,1.556,0,0,0,1.05-.429,1.464,1.464,0,0,0,.429-1.05,1.556,1.556,0,0,0-.429-1.05A1.464,1.464,0,0,0,247.579,98.9Z" transform="translate(-209.693 -84.269)"/>
  <path id="Path_475" data-name="Path 475" class="cls-1" d="M156.865,68.866a1.453,1.453,0,0,0,1.05.429,1.515,1.515,0,0,0,1.05-.429,1.473,1.473,0,0,0,0-2.086l-3.772-3.772a1.475,1.475,0,0,0-2.086,2.086Z" transform="translate(-130.089 -53.318)"/>
  <path id="Path_476" data-name="Path 476" class="cls-1" d="M314.143,69.546a1.515,1.515,0,0,0,1.05-.429l4.024-4.024a1.475,1.475,0,0,0-2.086-2.086l-4.024,4.024a1.473,1.473,0,0,0,0,2.086A1.455,1.455,0,0,0,314.143,69.546Z" transform="translate(-266.42 -53.318)"/>
  <path id="Path_477" data-name="Path 477" class="cls-1" d="M74.988,151.982a21.934,21.934,0,0,0-37.146-9.335,21.893,21.893,0,1,0,.044,30.016,21.972,21.972,0,0,0,15.962,6.909,21.473,21.473,0,0,0,5.666-.754A21.923,21.923,0,0,0,74.988,151.982ZM21.909,176.613A18.95,18.95,0,1,1,35.978,144.97a19.116,19.116,0,0,0-1.11,1.731,21.789,21.789,0,0,0-2.189,16.628,22.087,22.087,0,0,0,3.3,7.027A18.852,18.852,0,0,1,21.909,176.613Zm36.836-.651a18.949,18.949,0,0,1-21.3-27.782A20.767,20.767,0,0,1,39,145.888c.03-.03.044-.059.074-.089a18.949,18.949,0,1,1,19.675,30.164Z" transform="translate(0 -115.665)"/>
  <path id="Path_478" data-name="Path 478" class="cls-1" d="M298.26,250.625a3.21,3.21,0,0,0-6.2,1.672,1.47,1.47,0,0,0,1.435,1.095,1.706,1.706,0,0,0,.385-.044,1.491,1.491,0,0,0,1.05-1.82.265.265,0,0,1,.178-.311.254.254,0,0,1,.192.03.309.309,0,0,1,.118.148,1.471,1.471,0,1,0,2.84-.769Z" transform="translate(-248.762 -211.526)"/>
  <path id="Path_479" data-name="Path 479" class="cls-1" d="M387.288,224.294a3.215,3.215,0,0,0-4.719,3.61A1.47,1.47,0,0,0,384,229a1.706,1.706,0,0,0,.385-.044,1.491,1.491,0,0,0,1.05-1.82.254.254,0,0,1,.03-.192.309.309,0,0,1,.148-.118.254.254,0,0,1,.192.03.309.309,0,0,1,.118.148,1.486,1.486,0,0,0,2.87-.769A3.294,3.294,0,0,0,387.288,224.294Z" transform="translate(-325.88 -190.743)"/>
  <path id="Path_480" data-name="Path 480" class="cls-1" d="M342.06,295.414a1.491,1.491,0,0,0-1.05,1.82,3.529,3.529,0,0,1-5.178,3.965,3.479,3.479,0,0,1-1.642-2.145,1.486,1.486,0,1,0-2.87.769,6.419,6.419,0,0,0,3.018,3.935,6.493,6.493,0,0,0,3.24.873,6.6,6.6,0,0,0,1.686-.222,6.489,6.489,0,0,0,4.586-7.944A1.449,1.449,0,0,0,342.06,295.414Z" transform="translate(-282.265 -251.67)"/>
</svg>
