<svg id="Capa_1" enable-background="new 0 0 512 512" height="512" viewBox="0 0 512 512" width="512" xmlns="http://www.w3.org/2000/svg" style="fill: #fff;"><g><path d="m255.748 196.667c-74.783 0-135.632 60.849-135.632 135.632 0 74.793 60.849 135.632 135.632 135.632s135.632-60.84 135.632-135.632c0-74.783-60.849-135.632-135.632-135.632zm0 241.234c-58.226 0-105.602-47.366-105.602-105.603 0-58.227 47.376-105.603 105.602-105.603s105.603 47.376 105.603 105.603c0 58.237-47.376 105.603-105.603 105.603z"/><path d="m227.131 295.063c0-8.544-7.357-15.863-16.487-14.935-7.848.655-14.331 8.027-13.462 16.416.869 8.375 8.297 14.296 16.415 13.463 7.845-.797 13.534-7.381 13.534-14.944z"/><path d="m300.852 280.128c-8.942-.909-16.495 6.251-16.495 14.935 0 7.69 5.83 14.159 13.542 14.944 6.509.668 12.929-3.17 15.335-9.199 3.981-9.403-2.746-19.877-12.382-20.68z"/><path d="m284.491 340.695c-8.043-2.017-16.198 2.869-18.215 10.913-2.728 10.881-18.325 10.89-21.056 0-2.017-8.044-10.173-12.931-18.215-10.913-8.043 2.016-12.93 10.171-10.913 18.214 4.403 17.567 20.272 30.921 39.656 30.921 18.785 0 35.092-12.715 39.656-30.92 2.017-8.044-2.869-16.199-10.913-18.215z"/><path d="m507.312 138.731c7.095-8.46 6.027-21.067-2.463-28.207l-73.611-61.76c-8.519-7.147-21.127-5.98-28.207 2.462l-40.77 48.587c-168.785-77.701-362.261 46.575-362.261 232.486 0 8.298 6.726 15.015 15.015 15.015h60.058c8.288 0 15.015-6.716 15.015-15.015 0-91.339 74.312-165.661 165.661-165.661s165.661 74.322 165.661 165.661c0 8.298 6.727 15.015 15.015 15.015h60.058c8.288 0 15.015-6.716 15.015-15.015 0-53.722-16.656-103.641-45.064-144.841zm-388.727 54.132c-32.772 32.211-54.263 75.874-57.956 124.421h-30.109c3.754-56.825 28.628-107.975 66.835-145.651 0 0 .001-.001.001-.001l21.23 21.231s0 0-.001 0zm23.032-19.438s-.001.001-.001.001l-21.471-21.471s.001 0 .001-.001c69.444-52.35 160.942-59.067 235.649-21.961l.731 34.614c-66.704-40.232-151.325-36.989-214.909 8.818zm243.967-54.693c4.979-5.927-.77.922 34.013-40.529l58.277 48.897c-34.745 41.403-29.047 34.613-34.013 40.529-65.248 10.081 7.277-1.126-57.045 8.809-.95-44.12.078 3.492-1.232-57.706zm95.393 198.552h-30.109c-3.283-43.052-20.55-82.25-47.266-113.05l34.173-5.275c24.674 33.603 40.289 74.262 43.202 118.325z"/></g></svg>