<svg id="Group_1020" data-name="Group 1020" xmlns="http://www.w3.org/2000/svg" xmlns:xlink="http://www.w3.org/1999/xlink" viewBox="0 0 59.634 63.894">
  <defs>
    <style>
      .cls-1 {
        fill: #333e48;
      }

      .cls-2 {
        clip-path: url(#clip-path);
      }
    </style>
    <clipPath id="clip-path">
      <rect id="Rectangle_651" data-name="Rectangle 651" class="cls-1" width="59.634" height="63.893"/>
    </clipPath>
  </defs>
  <g id="Group_1016" data-name="Group 1016">
    <g id="Group_1015" data-name="Group 1015" class="cls-2">
      <path id="Path_609" data-name="Path 609" class="cls-1" d="M42.423,56.819a22.905,22.905,0,0,1-7.765-1.642c-6.389-2.418-13.333-7.188-19.59-13.422-6.234-6.234-11-13.2-13.422-19.59C-.55,16.354-.55,11.584,1.624,9.41c.311-.333.643-.666.976-1C4.6,6.3,6.882,3.93,9.833,4.063c2.063.089,4.06,1.353,6.1,3.9,6.034,7.5,3.306,10.161.155,13.267l-.555.555c-.51.51-1.486,2.884,7.565,11.958a49.723,49.723,0,0,0,7.5,6.412c1.265.821,3.527,2.063,4.459,1.131l.555-.555c3.084-3.128,5.768-5.857,13.267.177,2.551,2.041,3.816,4.038,3.9,6.1.133,3-2.241,5.236-4.348,7.232-.355.333-.688.643-1,.954a7.093,7.093,0,0,1-5.014,1.62ZM9.633,5.838C7.5,5.838,5.6,7.857,3.887,9.631c-.333.355-.666.71-1,1.021-1.62,1.62-1.464,5.9.422,10.893,2.329,6.167,6.944,12.89,13,18.946s12.8,10.693,18.946,13c4.992,1.886,9.273,2.041,10.893.422.311-.333.666-.666,1.021-1,1.819-1.73,3.882-3.7,3.794-5.879-.067-1.509-1.154-3.106-3.239-4.792C41.469,37.23,39.738,39,36.832,41.933l-.577.577c-1.375,1.375-3.638,1.087-6.678-.91a52.283,52.283,0,0,1-7.765-6.656c-7.5-7.521-9.917-12.113-7.565-14.465l.555-.555c2.951-2.884,4.7-4.637-.311-10.893-1.62-2.041-3.239-3.15-4.725-3.195Zm0,0" transform="translate(-0.005 4.944)"/>
    </g>
  </g>
  <path id="Path_610" data-name="Path 610" class="cls-1" d="M36.514,46.518a.879.879,0,0,1-.51-1.6,24.141,24.141,0,0,0,4.859-4.77,23.188,23.188,0,0,0,4.77-14.176A23.464,23.464,0,0,0,10.979,5.365a.856.856,0,0,1-1.2-.355.874.874,0,0,1,.355-1.2A25.244,25.244,0,0,1,47.429,25.975a24.935,24.935,0,0,1-5.147,15.263,25.364,25.364,0,0,1-5.214,5.125,1.226,1.226,0,0,1-.555.155Zm0,0" transform="translate(11.783 0.914)"/>
  <path id="Path_611" data-name="Path 611" class="cls-1" d="M13.87,8.07a11.03,11.03,0,0,1,3.172-.51c2.818,0,4.548,1.42,4.548,3.816,0,1.331-.732,2.352-2.307,3.394l-3.15,2.13a3.271,3.271,0,0,0-1.42,2.818h6.478a.21.21,0,0,1,.222.222V21.47a.2.2,0,0,1-.222.222H12.672a.2.2,0,0,1-.222-.222v-.954a5.9,5.9,0,0,1,2.573-5.369l3.15-2.108c.8-.532,1.154-1.065,1.154-1.664,0-1.109-.887-1.841-2.307-1.841a7.617,7.617,0,0,0-2.507.422l-1.154.377a.22.22,0,0,1-.266-.155l-.488-1.486c-.067-.111,0-.222.133-.266Zm0,0" transform="translate(15.171 9.212)"/>
  <path id="Path_612" data-name="Path 612" class="cls-1" d="M27.945,17.776a.21.21,0,0,1-.222.222H26.48v3.35a.2.2,0,0,1-.222.222h-1.8a.2.2,0,0,1-.222-.222V18H17.562a.21.21,0,0,1-.222-.222V16.113a.354.354,0,0,1,.089-.266c.51-.577.932-1.109,1.42-1.775l3.683-4.748c.377-.51.666-.976,1.021-1.531a.325.325,0,0,1,.288-.133h2.418a.21.21,0,0,1,.222.222v8.164h1.242a.2.2,0,0,1,.222.222v1.509Zm-3.683-5.214c0-.643.044-1.265.111-1.952.044-.244-.133-.288-.288-.067l-3.239,4.1a9.07,9.07,0,0,1-.91,1.065c-.155.155-.067.288.089.288h4.237Zm0,0" transform="translate(21.129 9.334)"/>
</svg>
