<svg id="Group_1028" data-name="Group 1028" xmlns="http://www.w3.org/2000/svg" viewBox="0 0 38.547 58.624">
  <defs>
    <style>
      .cls-1 {
        fill: #97c93d;
      }
    </style>
  </defs>
  <path id="Path_629" data-name="Path 629" class="cls-1" d="M17.667,40.153a1.158,1.158,0,0,0,.883-.723L26.5,20.157a1.223,1.223,0,1,0-2.249-.964L16.945,36.78l-4.1-4.176a1.192,1.192,0,1,0-1.686,1.686l5.461,5.461a1.208,1.208,0,0,0,.883.321C17.507,40.153,17.587,40.153,17.667,40.153Zm20.88-26.9h0V57.419a1.211,1.211,0,0,1-.723,1.124,1.019,1.019,0,0,1-.482.08,1.031,1.031,0,0,1-.8-.321l-2.811-2.489L30.918,58.3a1.221,1.221,0,0,1-1.606,0L26.5,55.813,23.69,58.3a1.221,1.221,0,0,1-1.606,0l-2.811-2.489L16.463,58.3a1.221,1.221,0,0,1-1.606,0l-2.811-2.489L9.235,58.3a1.221,1.221,0,0,1-1.606,0L4.818,55.813,2.008,58.3a1.091,1.091,0,0,1-1.285.161A1.037,1.037,0,0,1,0,57.419V1.2A1.235,1.235,0,0,1,1.2,0H25.537c.08,0,.08,0,.161.08h.08c.08,0,.08.08.161.08h.08c.08.08.161.08.161.161L32.2,6.344c3.453,3.453,4.979,4.979,5.7,5.782a1.243,1.243,0,0,1,.642.883q0,.12,0,.241ZM26.5,4.1v7.95h7.95Zm9.637,50.673V14.455H25.3a1.235,1.235,0,0,1-1.2-1.2V2.409H2.409v52.36l1.606-1.446a1.031,1.031,0,0,1,.8-.321,1.031,1.031,0,0,1,.8.321l2.811,2.489,2.811-2.489a1.221,1.221,0,0,1,1.606,0l2.811,2.489,2.811-2.489a1.221,1.221,0,0,1,1.606,0l2.811,2.489L25.7,53.323a1.221,1.221,0,0,1,1.606,0l2.811,2.489,2.811-2.489a1.221,1.221,0,0,1,1.606,0Zm-4.818-8.191H7.228a1.2,1.2,0,0,0,0,2.409H31.319a1.2,1.2,0,1,0,0-2.409Z"/>
</svg>
