<svg id="Group_1035" data-name="Group 1035" xmlns="http://www.w3.org/2000/svg" viewBox="0 0 53.7 70.2">
  <defs>
    <style>
      .cls-1 {
        fill: #45b6e4;
      }
    </style>
  </defs>
  <g id="Group_1032" data-name="Group 1032">
    <g id="Group_1030" data-name="Group 1030">
      <path id="Path_632" data-name="Path 632" class="cls-1" d="M23.2,70.2a.909.909,0,0,1-.8-.4l-6.1-7.3L6.9,65.6a1.128,1.128,0,0,1-1.1-.3,1.09,1.09,0,0,1-.2-1.1l7.2-16.4a.985.985,0,0,1,1.8.8L8.4,63l7.9-2.6a1.128,1.128,0,0,1,1.1.3l4.8,5.7V52.5a1,1,0,0,1,2,0V69.2a.961.961,0,0,1-.7.9A.367.367,0,0,1,23.2,70.2Z"/>
    </g>
    <g id="Group_1031" data-name="Group 1031">
      <path id="Path_633" data-name="Path 633" class="cls-1" d="M30.5,70.2a.367.367,0,0,1-.3-.1.961.961,0,0,1-.7-.9V52.5a1,1,0,0,1,2,0V66.4l4.8-5.7a1.128,1.128,0,0,1,1.1-.3L45.3,63,39,48.7a.985.985,0,1,1,1.8-.8L48,64.3a.913.913,0,0,1-.2,1.1,1.128,1.128,0,0,1-1.1.3l-9.4-3.1-6.1,7.3A1.493,1.493,0,0,1,30.5,70.2Z"/>
    </g>
  </g>
  <g id="Group_1033" data-name="Group 1033">
    <path id="Path_634" data-name="Path 634" class="cls-1" d="M26.8,53.6c-2.5,0-4.7-1.2-6.8-2.4-.9-.5-1.8-1-2.7-1.4a26.37,26.37,0,0,0-3-1c-2.3-.7-4.7-1.3-6.4-3.1C6.2,44,5.5,41.6,4.8,39.3a21.082,21.082,0,0,0-1-3c-.4-.9-.9-1.8-1.4-2.7C1.2,31.5,0,29.4,0,26.8S1.2,22.1,2.4,20c.5-.9,1-1.8,1.4-2.7a26.37,26.37,0,0,0,1-3C5.5,12,6.1,9.6,7.9,7.9,9.6,6.2,12,5.5,14.3,4.8a21.082,21.082,0,0,0,3-1c.9-.4,1.8-.9,2.7-1.4C22.1,1.2,24.3,0,26.8,0s4.7,1.2,6.8,2.4c.9.5,1.8,1,2.7,1.4a22.587,22.587,0,0,0,3.1,1c2.3.7,4.7,1.3,6.4,3.1,1.7,1.7,2.4,4.1,3.1,6.4a21.082,21.082,0,0,0,1,3c.4.9.9,1.8,1.4,2.7,1.2,2.1,2.4,4.3,2.4,6.8s-1.2,4.7-2.4,6.8c-.5.9-1,1.8-1.4,2.7a26.37,26.37,0,0,0-1,3c-.7,2.3-1.3,4.7-3.1,6.4-1.7,1.7-4.1,2.4-6.4,3.1a21.082,21.082,0,0,0-3,1c-.9.4-1.8.9-2.7,1.4C31.5,52.4,29.4,53.6,26.8,53.6ZM26.8,2c-2,0-3.9,1-5.8,2.1a27.973,27.973,0,0,1-3,1.5c-1.1.4-2.2.8-3.3,1.1-2.1.6-4.2,1.2-5.5,2.5s-1.9,3.4-2.5,5.5A21.289,21.289,0,0,1,5.6,18c-.4,1-1,2-1.5,3C3,23,2,24.8,2,26.8s1,3.9,2.1,5.8a27.973,27.973,0,0,1,1.5,3c.4,1.1.8,2.2,1.1,3.3C7.3,41,7.9,43,9.3,44.4s3.4,1.9,5.5,2.5A21.289,21.289,0,0,1,18.1,48c1,.4,2,1,3,1.5,2,1.1,3.8,2.1,5.8,2.1s3.9-1,5.8-2.1a27.974,27.974,0,0,1,3-1.5c1.1-.4,2.2-.8,3.3-1.1,2.1-.6,4.2-1.2,5.5-2.5C45.9,43,46.4,41,47,38.9a21.289,21.289,0,0,1,1.1-3.3c.4-1,1-2,1.5-3,1.1-2,2.1-3.8,2.1-5.8s-1-3.9-2.1-5.8a27.973,27.973,0,0,1-1.5-3c-.4-1.1-.8-2.2-1.1-3.3-.6-2.1-1.2-4.2-2.5-5.5a14.15,14.15,0,0,0-5.7-2.5,21.289,21.289,0,0,1-3.3-1.1c-1-.4-2-1-3-1.5A11.369,11.369,0,0,0,26.8,2Z"/>
  </g>
  <g id="Group_1034" data-name="Group 1034">
    <path id="Path_635" data-name="Path 635" class="cls-1" d="M26.8,15c.2,0,.4.2.6.5l2.8,5.8a3.1,3.1,0,0,0,2,1.5l6.4.9c.8.1.9.6.4,1.2l-4.6,4.5a2.952,2.952,0,0,0-.8,2.4l1.1,6.3c.1.5-.1.9-.5.9a1.087,1.087,0,0,1-.5-.1l-5.7-3a2.55,2.55,0,0,0-2.4,0l-5.7,3a1.087,1.087,0,0,1-.5.1c-.4,0-.6-.3-.5-.9L20,31.8a3.069,3.069,0,0,0-.8-2.4l-4.6-4.5c-.6-.5-.4-1.1.4-1.2l6.4-.9a2.817,2.817,0,0,0,2-1.5l2.8-5.8c.2-.4.4-.5.6-.5m0-2a2.705,2.705,0,0,0-2.4,1.6l-2.8,5.8c-.1.1-.4.3-.5.4l-6.4.9a2.611,2.611,0,0,0-1.5,4.6l4.6,4.5a1.072,1.072,0,0,1,.2.6l-1.1,6.3a2.374,2.374,0,0,0,.6,2.3,2.463,2.463,0,0,0,1.9.9,2.3,2.3,0,0,0,1.4-.4l5.7-3h.6l5.7,3a4.292,4.292,0,0,0,1.4.4,2.463,2.463,0,0,0,1.9-.9,2.988,2.988,0,0,0,.6-2.3l-1.1-6.3a1.421,1.421,0,0,1,.2-.6l4.6-4.5a2.611,2.611,0,0,0-1.5-4.6l-6.4-.9a.887.887,0,0,1-.5-.4l-2.8-5.8A2.705,2.705,0,0,0,26.8,13Z"/>
  </g>
</svg>
