<svg xmlns="http://www.w3.org/2000/svg" viewBox="0 0 53.714 80.094">
  <defs>
    <style>
      .cls-1 {
        fill: #e21f8f;
      }
    </style>
  </defs>
  <g id="Group_1025" data-name="Group 1025" transform="translate(0.1 -0.006)">
    <path id="Path_620" data-name="Path 620" class="cls-1" d="M3.7,51Q.4,51,.4,46.5a8.9,8.9,0,0,1,2.9-6.1l.4-.4.5.4c.1.1,2.9,2.8,2.9,6.1C7.1,49.6,6,51,3.7,51Zm0-9.1a7.628,7.628,0,0,0-2,4.7c0,3.2,1.2,3.2,2,3.2s2,0,2-3.2A7.628,7.628,0,0,0,3.7,41.9Z"/>
    <path id="Path_621" data-name="Path 621" class="cls-1" d="M53.4,25.5v-.2L30,1.6,28.8.4c-.2-.6-3.5-.5-3.6.2L24.1,1.7,13.2,13.5a2.188,2.188,0,0,0-1.3,2,2.551,2.551,0,0,0,2.3,2.3v3.1L1.7,29.6a.55.55,0,0,0-.3.5v3.1c-.7.4-1.5,1-1.5,1.9,0,1.3.7,2.3,1.6,2.3H6c.9,0,1.6-1,1.6-2.3V35a2.843,2.843,0,0,0-1.3-1.6v-.9L14.2,27v6.6a.684.684,0,0,0,.7.7h3.3v42H16.5a1.923,1.923,0,0,0-2,1.9,1.988,1.988,0,0,0,2,1.9H27.8a1.923,1.923,0,0,0,2-1.9,1.988,1.988,0,0,0-2-1.9H26.1v-42h3.6a.684.684,0,0,0,.7-.7V17.7a2.414,2.414,0,0,0,2-2.2,2.6,2.6,0,0,0-2.8-2.3h-.7V7.4L50.1,28.6h.2a9.2,9.2,0,0,0,1.7.2,1.7,1.7,0,0,0,1.3-.4C53.8,27.9,53.6,26.5,53.4,25.5ZM27.1,1a1.135,1.135,0,0,1,.8.3l.2.2a1.689,1.689,0,0,1,.3,1A1.378,1.378,0,0,1,27.1,4a1.442,1.442,0,0,1-1.3-1.5A1.442,1.442,0,0,1,27.1,1Zm.5,4.4v7.8H26.5V5.4a1.483,1.483,0,0,0,.7.1C27.3,5.5,27.4,5.4,27.6,5.4ZM24.5,3.1A2.763,2.763,0,0,0,25.7,5l-8.2,8.2H15.4Zm.6,10.1H19.3L25,7.5ZM6,36H1.6c-.1,0-.3-.4-.3-.9,0-.3,1.1-.9,1.5-.9H5a2.43,2.43,0,0,1,1.3,1C6.3,35.7,6.1,36,6,36ZM27.8,77.5c.4,0,.7.2.7.6a.669.669,0,0,1-.7.6H16.5c-.4,0-.7-.2-.7-.6a.669.669,0,0,1,.7-.6h3V34.1h5.3V77.5ZM29,32.8H15.5V25.6a.622.622,0,0,0-.4-.6.854.854,0,0,0-.7,0L5.2,31.4A1.421,1.421,0,0,0,5,32v.8H2.8V30.5l12.5-8.8a.713.713,0,0,0,.3-.6V17.8H29v15Zm.6-18.3c.8,0,1.5.5,1.5,1s-.7,1-1.5,1H14.7c-.8,0-1.5-.5-1.5-1s.7-1,1.5-1H29.6ZM52.3,27.4H52c-.4,0-.9-.1-1.2-.1L28.5,5a2.787,2.787,0,0,0,1.2-1.8L52.2,25.9A9.889,9.889,0,0,1,52.3,27.4Z"/>
  </g>
</svg>
