<svg id="Group_787" data-name="Group 787" xmlns="http://www.w3.org/2000/svg" viewBox="0 0 53.449 53.467">
  <defs>
    <style>
      .cls-1 {
        fill: #dc3098;
      }
    </style>
  </defs>
  <path id="Path_428" data-name="Path 428" class="cls-1" d="M24.77,53.467a28.361,28.361,0,0,0,20.273-8.423,28.737,28.737,0,0,0,0-40.618L40.76.214a.69.69,0,0,0-1,0L.214,39.832a.69.69,0,0,0,0,1L4.5,45.044A28.361,28.361,0,0,0,24.77,53.467ZM36.335,5.711l3.141,3.141A21.7,21.7,0,0,1,8.709,39.476L5.568,36.335ZM4.64,37.334l3.141,3.141A23.093,23.093,0,0,0,40.475,7.852L37.334,4.711l3-3,3.712,3.712A27.308,27.308,0,0,1,5.425,44.044L1.713,40.332Z" transform="translate(0)"/>
  <path id="Path_429" data-name="Path 429" class="cls-1" d="M50.456,51.37a1.146,1.146,0,0,0,.785-.357,1.209,1.209,0,0,0,0-1.642,4.349,4.349,0,0,0-1.785-.571c-.143,0-.214,0-.286.071a.644.644,0,0,0-.071.357,4.349,4.349,0,0,0,.571,1.785A1.146,1.146,0,0,0,50.456,51.37Z" transform="translate(-14.05 -13.964)"/>
  <path id="Path_430" data-name="Path 430" class="cls-1" d="M43.744,41.7a1.111,1.111,0,0,0,.785-1.927,4.349,4.349,0,0,0-1.785-.571c-.143,0-.214,0-.286.071s-.143.214-.071.286a4.349,4.349,0,0,0,.571,1.785A.909.909,0,0,0,43.744,41.7Z" transform="translate(-12.121 -11.217)"/>
  <path id="Path_431" data-name="Path 431" class="cls-1" d="M56.344,32.6a1.111,1.111,0,0,0,.785-1.927,4.349,4.349,0,0,0-1.785-.571.429.429,0,0,0-.286.071c-.071.071-.143.214-.071.286a4.349,4.349,0,0,0,.571,1.785A1.146,1.146,0,0,0,56.344,32.6Z" transform="translate(-15.727 -8.613)"/>
  <path id="Path_432" data-name="Path 432" class="cls-1" d="M34.144,34.5a1.111,1.111,0,0,0,.785-1.927A4.349,4.349,0,0,0,33.145,32c-.143,0-.214,0-.286.071s-.143.214-.071.286a4.349,4.349,0,0,0,.571,1.785A.909.909,0,0,0,34.144,34.5Z" transform="translate(-9.374 -9.157)"/>
  <path id="Path_433" data-name="Path 433" class="cls-1" d="M32.544,47.17a1.146,1.146,0,0,0,.785-.357,1.209,1.209,0,0,0,0-1.642,4.349,4.349,0,0,0-1.785-.571c-.143,0-.214,0-.286.071s-.143.214-.071.286a4.349,4.349,0,0,0,.571,1.785A.986.986,0,0,0,32.544,47.17Z" transform="translate(-8.916 -12.763)"/>
  <path id="Path_434" data-name="Path 434" class="cls-1" d="M32.444,58.2a1.111,1.111,0,0,0,.785-1.927,4.349,4.349,0,0,0-1.785-.571c-.143,0-.214,0-.286.071s-.143.214-.071.286a4.349,4.349,0,0,0,.571,1.785A.921.921,0,0,0,32.444,58.2Z" transform="translate(-8.888 -15.939)"/>
  <path id="Path_435" data-name="Path 435" class="cls-1" d="M19.344,49.3a1.111,1.111,0,0,0,.785-1.927,4.349,4.349,0,0,0-1.785-.571c-.143,0-.214,0-.286.071s-.143.214-.071.286a4.349,4.349,0,0,0,.571,1.785A1.146,1.146,0,0,0,19.344,49.3Z" transform="translate(-5.139 -13.392)"/>
  <path id="Path_436" data-name="Path 436" class="cls-1" d="M51.344,17.57a1.146,1.146,0,0,0,.785-.357,1.209,1.209,0,0,0,0-1.642A4.349,4.349,0,0,0,50.345,15c-.143,0-.214,0-.286.071s-.143.214-.071.286a4.349,4.349,0,0,0,.571,1.785A.986.986,0,0,0,51.344,17.57Z" transform="translate(-14.296 -4.292)"/>
  <path id="Path_437" data-name="Path 437" class="cls-1" d="M46.456,28.3a1.111,1.111,0,0,0,.785-1.927,4.349,4.349,0,0,0-1.785-.571.286.286,0,0,0-.357.357,4.349,4.349,0,0,0,.571,1.785A1.146,1.146,0,0,0,46.456,28.3Z" transform="translate(-12.906 -7.383)"/>
</svg>
