<svg xmlns="http://www.w3.org/2000/svg" viewBox="0 0 60.107 54.99">
  <defs>
    <style>
      .cls-1 {
        fill: #f3d95a;
      }
    </style>
  </defs>
  <g id="Group_785" data-name="Group 785" transform="translate(0 0.029)">
    <path id="Path_419" data-name="Path 419" class="cls-1" d="M54.9,54.975a168.609,168.609,0,0,1-49.834,0A4.317,4.317,0,0,0,0,59.311v.867a5.716,5.716,0,0,0,4.8,5.537A167.594,167.594,0,0,0,30.02,67.65c1.134,0,2.268,0,3.4-.067,4.4.467,9.006,1.067,11.208,1.8,0,0,3.669-1.334,5-2.869,1.868-.2,3.8-.467,5.67-.734a5.836,5.836,0,0,0,4.8-5.537v-.867A4.438,4.438,0,0,0,54.9,54.975Zm3.069,5.2A3.705,3.705,0,0,1,54.9,63.714a168.609,168.609,0,0,1-49.834,0,3.7,3.7,0,0,1-3-3.536v-.867a2.226,2.226,0,0,1,2.268-2.335H4.8a168.179,168.179,0,0,0,50.434,0,2.252,2.252,0,0,1,2.735,2.268Z" transform="translate(0 -18.293)"/>
    <path id="Path_420" data-name="Path 420" class="cls-1" d="M57.134,71.8a1.026,1.026,0,0,0-1,1c0,1.2-7.939,4.069-23.416,4.069S9.3,74.068,9.3,72.8a1,1,0,0,0-2,0c0,4.8,16.678,6.071,25.484,6.071S58.268,77.6,58.268,72.8A1.271,1.271,0,0,0,57.134,71.8Z" transform="translate(-2.43 -23.911)"/>
    <path id="Path_421" data-name="Path 421" class="cls-1" d="M8.2,49.44a1.026,1.026,0,0,0,1-1c0-1.668,2.935-3.869,9.473-5.337a8.986,8.986,0,0,0-.534,2,1.143,1.143,0,0,0,.734,1.067,1.078,1.078,0,0,0,1.2-.467,11.66,11.66,0,0,1,4.136-3.536c1.468-.2,3-.334,4.536-.4a7.18,7.18,0,0,0-1.2,3.336,1.143,1.143,0,0,0,.734,1.067,1.078,1.078,0,0,0,1.2-.467,11.677,11.677,0,0,1,5.137-4,31.407,31.407,0,0,1,3.536.2,7.416,7.416,0,0,0-1.134,3.2,1.143,1.143,0,0,0,.734,1.067,1.078,1.078,0,0,0,1.2-.467,11.647,11.647,0,0,1,3.736-3.336c8.806,1.268,13.409,4,13.409,6.071a1,1,0,1,0,2,0c0-3.736-5.8-6.8-15.477-8.139a.991.991,0,0,0-.6.133c-.334.2-.734.4-1,.6a.846.846,0,0,0-.067-.4.95.95,0,0,0-.867-.6c-1.8-.2-3.669-.267-5.6-.334a.846.846,0,0,0-.4.067A14.37,14.37,0,0,0,31.817,40.9a.942.942,0,0,0-.067-.6,1.13,1.13,0,0,0-.934-.6h0c-2.4.067-4.737.2-7,.467-.133,0-.2.067-.334.067-.667.334-1.334.734-1.868,1.067a.506.506,0,0,0-.133-.267,1.042,1.042,0,0,0-1.067-.467C12,42.168,7.2,44.97,7.2,48.439A.982.982,0,0,0,8.2,49.44Z" transform="translate(-2.397 -13.225)"/>
    <path id="Path_422" data-name="Path 422" class="cls-1" d="M23.594,25.95a.815.815,0,0,0,.6-.267.771.771,0,0,0-.067-1.134c-2.4-2.268-1.268-4.27.734-7.472,1.8-2.735,4-6.2.467-9.473a.8.8,0,0,0-1.067,1.2c2.4,2.268,1.268,4.27-.734,7.472-1.8,2.735-4,6.2-.467,9.473A.758.758,0,0,0,23.594,25.95Z" transform="translate(-7.05 -2.477)"/>
    <path id="Path_423" data-name="Path 423" class="cls-1" d="M66.994,25.95a.815.815,0,0,0,.6-.267.83.83,0,0,0-.067-1.134c-2.4-2.268-1.268-4.27.734-7.472,1.8-2.735,4-6.2.467-9.473a.8.8,0,0,0-1.067,1.2c2.4,2.268,1.268,4.27-.734,7.472-1.8,2.735-4,6.2-.467,9.473A.757.757,0,0,0,66.994,25.95Z" transform="translate(-21.497 -2.477)"/>
    <path id="Path_424" data-name="Path 424" class="cls-1" d="M52.431,22.005a.815.815,0,0,0,.6-.267.83.83,0,0,0-.067-1.134c-3.135-2.935-1.268-5.871.867-9.206,2.2-3.469,4.737-7.338.6-11.208A.771.771,0,0,0,53.3.257a.771.771,0,0,0,.067,1.134C56.5,4.327,54.632,7.262,52.5,10.6c-2.2,3.469-4.737,7.338-.6,11.208A.758.758,0,0,0,52.431,22.005Z" transform="translate(-16.54 0)"/>
    <path id="Path_425" data-name="Path 425" class="cls-1" d="M37.431,22.019a.815.815,0,0,0,.6-.267.83.83,0,0,0-.067-1.134c-3.135-2.935-1.268-5.871.867-9.206,2.2-3.469,4.737-7.338.6-11.208A.83.83,0,0,0,38.3.271.83.83,0,0,0,38.365,1.4C41.5,4.34,39.7,7.209,37.5,10.611c-2.2,3.469-4.737,7.338-.6,11.208A.887.887,0,0,0,37.431,22.019Z" transform="translate(-11.546 -0.013)"/>
  </g>
</svg>
