<svg xmlns="http://www.w3.org/2000/svg" viewBox="0 0 38.383 56.078">
  <defs>
    <style>
      .cls-1 {
        fill: #7acaec;
      }
    </style>
  </defs>
  <g id="Group_786" data-name="Group 786" transform="translate(-0.015 0.08)">
    <path id="Path_426" data-name="Path 426" class="cls-1" d="M38.4,14.08A11.849,11.849,0,0,0,26.584,2.266a12.625,12.625,0,0,0-3.966.675,8.582,8.582,0,0,0-12.152-.928A9.239,9.239,0,0,0,7.6,6.738,9.664,9.664,0,0,0,.256,18.3a9.4,9.4,0,0,0,2.616,4.726,3.49,3.49,0,0,0-.422,1.6A3.385,3.385,0,0,0,5.825,28H7.6l9.029,25.991a2.961,2.961,0,0,0,3.713,1.856A2.907,2.907,0,0,0,22.2,53.995l9.029-25.907h1.6a3.4,3.4,0,0,0,2.363-5.823A11.764,11.764,0,0,0,38.4,14.08ZM16.036,2.519a5.931,5.931,0,0,1,4.219,1.688,12.361,12.361,0,0,0-4.219,4.641A9.576,9.576,0,0,0,10.3,6.57,6.172,6.172,0,0,1,16.036,2.519Zm3.8,50.632a.422.422,0,0,1-.844,0L10.213,28H12.66v2.954a3.375,3.375,0,1,0,6.751,0v-.928a2.871,2.871,0,0,0,.844.084A3.4,3.4,0,0,0,23.377,28h5.232Zm13-27.679H22.365A1.3,1.3,0,0,0,21.1,26.738a.844.844,0,0,1-1.688,0,1.266,1.266,0,1,0-2.532,0v4.219a.844.844,0,0,1-1.688,0V26.738a1.3,1.3,0,0,0-1.266-1.266h-8.1a.846.846,0,0,1-.844-.844,1.042,1.042,0,0,1,.338-.675,1.171,1.171,0,0,0,.591-1.013A1.2,1.2,0,0,0,5.4,21.928,7.173,7.173,0,1,1,15.445,11.886a1.2,1.2,0,0,0,1.266.506,1.267,1.267,0,0,0,1.013-.928A9.251,9.251,0,0,1,35.867,14.08a9.193,9.193,0,0,1-3.713,7.426,1.233,1.233,0,0,0-.253,1.772,1.166,1.166,0,0,0,.928.506.844.844,0,0,1,0,1.688Z" transform="translate(0)"/>
    <path id="Path_427" data-name="Path 427" class="cls-1" d="M38.017,15.451A6.771,6.771,0,0,0,31.266,8.7a1.266,1.266,0,0,0,0,2.532h0a4.178,4.178,0,0,1,4.219,4.219,1.3,1.3,0,0,0,1.266,1.266A1.243,1.243,0,0,0,38.017,15.451Z" transform="translate(-4.682 -1.371)"/>
  </g>
</svg>
