<svg xmlns="http://www.w3.org/2000/svg" viewBox="0 0 45.676 61.481">
  <defs>
    <style>
      .cls-1 {
        fill: #afd960;
      }
    </style>
  </defs>
  <path id="Path_444" data-name="Path 444" class="cls-1" d="M44.743,59.6H42.5V27.035a.939.939,0,0,0-.933-.933H40.229V5.161a.939.939,0,0,0-.933-.933h-11.3a.939.939,0,0,0-.933.933V26.1H24.448V10.533a3.494,3.494,0,0,0-6.989,0V26.1H15.3V6.665a3.486,3.486,0,0,0-.7-2.089V2.8A2.8,2.8,0,0,0,9,2.8V4.576a3.887,3.887,0,0,0-.485.9.724.724,0,0,0-.236-.037A4.72,4.72,0,0,0,5.074,6.641a3.091,3.091,0,0,0-.808,2.375,22.162,22.162,0,0,0,.622,3.333c.6,2.537,1.331,5.683.485,7.573a.929.929,0,0,0,.473,1.231,1.025,1.025,0,0,0,.386.087.907.907,0,0,0,.846-.547c1.107-2.462.286-5.957-.373-8.767A22.385,22.385,0,0,1,6.118,8.9a1.2,1.2,0,0,1,.286-.97,2.881,2.881,0,0,1,1.828-.622h.05v18.8H4.1a.939.939,0,0,0-.933.933V59.616H.933a.933.933,0,0,0,0,1.865h43.81a.939.939,0,0,0,.933-.933A.95.95,0,0,0,44.743,59.6ZM5.036,27.968h35.6V59.6H5.036ZM11.8,1.865a.939.939,0,0,1,.933.933v.5a3.311,3.311,0,0,0-.933-.124,3.834,3.834,0,0,0-.933.124V2.8A.939.939,0,0,1,11.8,1.865Zm-1.629,4.8a1.629,1.629,0,1,1,3.258,0V26.115H10.172ZM20.954,8.916a1.635,1.635,0,0,1,1.629,1.629V12.3H19.337V10.533A1.606,1.606,0,0,1,20.954,8.916Zm-1.629,5.235H22.57V16H19.325Zm0,3.718H22.57V26.1H19.325ZM38.364,6.093v2.9h-4.5a.933.933,0,1,0,0,1.865h4.5v2.412H35.205a.933.933,0,1,0,0,1.865h3.159v2.412H35.205a.933.933,0,1,0,0,1.865h3.159v2.412H35.205a.933.933,0,1,0,0,1.865h3.159V26.1H28.925V6.093Z"/>
</svg>
