<svg xmlns="http://www.w3.org/2000/svg" viewBox="0 0 65.405 57">
  <defs>
    <style>
      .cls-1 {
        fill: #dc3098;
      }
    </style>
  </defs>
  <g id="Group_789" data-name="Group 789" transform="translate(-0.05)">
    <path id="Path_439" data-name="Path 439" class="cls-1" d="M42.389,0H21.278A5.227,5.227,0,0,0,16,5.278V51.722A5.227,5.227,0,0,0,21.278,57H42.389a5.227,5.227,0,0,0,5.278-5.278V5.278A5.227,5.227,0,0,0,42.389,0ZM18.111,10.556H45.556V42.222H18.111Zm3.167-8.444H42.389a3.11,3.11,0,0,1,3.167,3.167V8.444H18.111V5.278A3.11,3.11,0,0,1,21.278,2.111ZM42.389,54.889H21.278a3.11,3.11,0,0,1-3.167-3.167V44.333H45.556v7.389A3.11,3.11,0,0,1,42.389,54.889Z" transform="translate(0.886)"/>
    <path id="Path_440" data-name="Path 440" class="cls-1" d="M51.137,16.1a1.1,1.1,0,0,0-.633,1.372,22.427,22.427,0,0,1,0,16.15A1.1,1.1,0,0,0,51.137,35c.106,0,.211.106.422.106a1.069,1.069,0,0,0,.95-.633,24.2,24.2,0,0,0,0-17.628A.975.975,0,0,0,51.137,16.1Z" transform="translate(2.799 0.89)"/>
    <path id="Path_441" data-name="Path 441" class="cls-1" d="M11.06,16.1a1.1,1.1,0,0,0-1.372.633,24.2,24.2,0,0,0,0,17.628.923.923,0,0,0,.95.633.8.8,0,0,0,.422-.106,1.1,1.1,0,0,0,.633-1.372,22.427,22.427,0,0,1,0-16.15A1.077,1.077,0,0,0,11.06,16.1Z" transform="translate(0.443 0.891)"/>
    <path id="Path_442" data-name="Path 442" class="cls-1" d="M59.51,12.637a1.069,1.069,0,1,0-2.006.739v.106a30.857,30.857,0,0,1,0,24.489,1.047,1.047,0,0,0,.528,1.372h0a.635.635,0,0,0,.422.106.923.923,0,0,0,.95-.633A31.885,31.885,0,0,0,59.51,12.637Z" transform="translate(3.187 0.663)"/>
    <path id="Path_443" data-name="Path 443" class="cls-1" d="M4.114,12.1a1.047,1.047,0,0,0-1.372.528h0a33.17,33.17,0,0,0,0,26.178.923.923,0,0,0,.95.633.635.635,0,0,0,.422-.106,1.047,1.047,0,0,0,.528-1.372h0a30.857,30.857,0,0,1,0-24.489A1.047,1.047,0,0,0,4.114,12.1Z" transform="translate(0 0.668)"/>
    <circle id="Ellipse_21" data-name="Ellipse 21" class="cls-1" cx="2.111" cy="2.111" r="2.111" transform="translate(30.608 47.5)"/>
  </g>
</svg>
