<svg xmlns="http://www.w3.org/2000/svg" viewBox="0 0 149.387 108.905">
  <defs>
    <style>
      .cls-1 {
        fill: #fff;
        stroke: #fff;
      }
    </style>
  </defs>
  <g id="Group_82" data-name="Group 82" transform="translate(0.5 -951.9)">
    <path id="Path_55" data-name="Path 55" class="cls-1" d="M38.762,952.4c10.853,0,20.673,6.2,27.564,15.677,6.891,9.647,11.2,22.74,11.2,37.383s-4.307,27.736-11.2,37.383-16.711,15.677-27.564,15.677-20.673-6.2-27.564-15.677C4.307,1033.2,0,1020.1,0,1005.46c0-14.471,4.307-27.736,11.2-37.383S27.908,952.4,38.762,952.4Zm-1.034,3.445c-9.131.345-17.572,5.685-23.774,14.3C7.58,979.1,3.445,991.506,3.445,1005.46c0,13.782,4.135,26.358,10.509,35.316,4.824,6.719,10.853,11.37,17.744,13.265-5.34-9.13-7.58-16.71-7.408-23.774.172-7.925,3.79-14.988,9.475-22.568h0c5.513-7.236,9.647-14.988,10.853-23.6,1.206-8.441-.517-17.572-6.891-28.253Zm4.135.172c5.857,10.509,7.408,19.984,6.2,28.6-1.378,9.3-5.857,17.572-11.542,25.152h0c-5.513,7.236-8.441,13.61-8.786,20.673-.172,6.891,2.24,14.643,8.441,24.463.861,0,1.723.172,2.584.172,9.647,0,18.261-5.34,24.807-14.3s10.509-21.534,10.509-35.316S69.943,979.1,63.569,970.144c-5.857-8.1-13.437-13.093-21.706-14.126Z" transform="translate(0 0)"/>
    <path id="Path_56" data-name="Path 56" class="cls-1" d="M72.719,978.6a11.939,11.939,0,0,1,3.445.517h0c7.752,2.067,12.4,10.164,12.576,19.467a30.009,30.009,0,0,1,3.79-.861c5.685-1.034,11.2,0,15.16,3.79,3.79,3.618,5,9.13,3.962,14.643s-4.307,11.2-9.3,16.021a31.685,31.685,0,0,1-16.711,8.786c-5.685,1.034-11.2,0-15.16-3.79h0a14.467,14.467,0,0,1-4.135-8.786,13.116,13.116,0,0,1-3.618-.517h0c-5.168-1.378-8.958-5.513-10.853-10.681a30.334,30.334,0,0,1-.345-18.433h0a32.3,32.3,0,0,1,9.82-15.677,17.267,17.267,0,0,1,11.37-4.479Zm0,3.445a14.77,14.77,0,0,0-9.3,3.618,28.685,28.685,0,0,0-8.786,13.954h0a25.687,25.687,0,0,0,.345,16.194,16.4,16.4,0,0,0,3.79,6.03c-.689-3.79-.689-6.891.345-9.647,1.206-3.618,3.79-6.546,7.235-9.3h0a23.844,23.844,0,0,0,7.408-8.786c1.55-3.273,1.9-7.236.689-12.231a6.464,6.464,0,0,1-1.723.172Zm5.513,1.551A20.932,20.932,0,0,1,76.853,996c-1.9,4.135-5,7.236-8.441,9.992h0c-3.273,2.584-5.168,4.824-6.03,7.58s-.861,6.03.517,11.025c.172,0,.345.172.517.172h0a13.4,13.4,0,0,0,2.756.344,33.554,33.554,0,0,1,19.122-24.98c.172-7.752-2.584-13.782-7.063-16.538Zm18.433,17.055a25.706,25.706,0,0,0-3.618.344,31.216,31.216,0,0,0-5.34,1.551h0c-8.958,4.651-17.916,12.921-18.089,23.946v.172a13.114,13.114,0,0,0,.517,3.618,22.688,22.688,0,0,1,5.168-8.269c2.929-2.584,6.546-3.79,11.026-4.479h0c4.135-.689,7.925-1.723,11.026-4.135,2.929-2.067,5.34-5.34,6.891-10.336-1.9-1.551-4.651-2.24-7.58-2.412ZM107,1006.164a20.689,20.689,0,0,1-7.58,9.992c-3.79,2.756-8.1,3.962-12.576,4.651h0c-4.135.689-7.063,1.723-9.3,3.618s-3.962,5-5.168,9.647c.172.172.172.345.345.345,2.756,2.756,7.235,3.618,12.059,2.756a30.382,30.382,0,0,0,14.988-7.924,26.851,26.851,0,0,0,8.269-14.3A12.733,12.733,0,0,0,107,1006.164Z" transform="translate(36.331 18.936)"/>
  </g>
</svg>
