<svg xmlns="http://www.w3.org/2000/svg" xmlns:xlink="http://www.w3.org/1999/xlink" width="94.924" height="67.426" viewBox="0 0 94.924 67.426"><defs><style>.a{fill:none;}.b{fill:#dc3098;}.c{clip-path:url(#a);}.d{fill:#2f3d46;}</style><clipPath id="a"><path class="a" d="M0,18.709H82.924V-37.574H0Z" transform="translate(0 37.574)"/></clipPath></defs><g transform="translate(-932 -1956.574)"><circle class="b" cx="28.5" cy="28.5" r="28.5" transform="translate(932 1967)"/><g transform="translate(944 1994.148)"><g class="c" transform="translate(0 -37.574)"><g transform="translate(60.077 16.731)"><path class="d" d="M.626,0A1.884,1.884,0,0,0-1.258,1.884v9.172A1.884,1.884,0,0,0,.626,12.941H13.581a1.883,1.883,0,0,0,1.535-2.975L8.591.791A1.884,1.884,0,0,0,7.056,0ZM2.511,3.769H6.085L9.93,9.175H2.511Z" transform="translate(1.258)"/></g><g transform="translate(0.001 0)"><path class="d" d="M1.99,0A6.016,6.016,0,0,0-4,5.987v32.7A6.015,6.015,0,0,0,1.99,44.679H7.834a8.427,8.427,0,0,0,16.232,0H57.011a8.426,8.426,0,0,0,16.23,0H74a4.946,4.946,0,0,0,4.921-4.921V27.83h0a1.894,1.894,0,0,0-.07-.8c-.01-.036-.025-.076-.04-.114V26.91a1.835,1.835,0,0,0-.389-.644L68.353,12.307a1.889,1.889,0,0,0-1.526-.779l-12.2-.007V5.989A6.017,6.017,0,0,0,48.642,0Zm0,3.769H48.637a2.207,2.207,0,0,1,2.22,2.218V40.91H24.242a8.428,8.428,0,0,0-16.591,0H1.987a2.209,2.209,0,0,1-2.22-2.22V5.987a2.208,2.208,0,0,1,2.22-2.218ZM54.626,15.288l11.232.007,9.286,12.882V39.758a1.148,1.148,0,0,1-1.152,1.153h-.574a8.428,8.428,0,0,0-16.591,0h-2.2ZM15.945,37.737a4.636,4.636,0,0,1,4.66,4.671v.1a4.66,4.66,0,0,1-9.319-.081v-.015a4.638,4.638,0,0,1,4.659-4.671Zm49.173,0a4.665,4.665,0,1,1-4.66,4.671,4.635,4.635,0,0,1,4.66-4.671" transform="translate(3.997)"/></g><g transform="translate(28.724 13.202)"><path class="d" d="M.634,0A1.883,1.883,0,0,0-.713,3.224a1.858,1.858,0,0,0,1.347.545H19.112a1.858,1.858,0,0,0,1.347-.545A1.885,1.885,0,0,0,19.112,0Z" transform="translate(1.273 0)"/></g><g transform="translate(20.27 21.658)"><path class="d" d="M.634,0A1.883,1.883,0,0,0-.713,3.224a1.872,1.872,0,0,0,1.347.541H27.567a1.882,1.882,0,1,0,0-3.764Z" transform="translate(1.273 0)"/></g><g transform="translate(2.774 52.518)"><path class="d" d="M.634,0A1.887,1.887,0,0,0-.713.541a1.886,1.886,0,0,0,0,2.683,1.887,1.887,0,0,0,1.347.541H72.213a1.882,1.882,0,1,0,0-3.764Z" transform="translate(1.273 0)"/></g></g></g></g></svg>