<svg xmlns="http://www.w3.org/2000/svg" xmlns:xlink="http://www.w3.org/1999/xlink" width="74.477" height="78.94" viewBox="0 0 74.477 78.94"><defs><style>.a{fill:none;}.b{fill:#f78d2e;}.c{clip-path:url(#a);}.d{fill:#2f3d46;}</style><clipPath id="a"><path class="a" d="M0,15.35H53.477V-52.41H0Z" transform="translate(0 52.41)"/></clipPath></defs><g transform="translate(-1279 -1945.06)"><circle class="b" cx="28.5" cy="28.5" r="28.5" transform="translate(1279 1967)"/><g transform="translate(1300 1997.47)"><g class="c" transform="translate(0 -52.41)"><g transform="translate(0 0)"><path class="d" d="M2.2,10.132a2.053,2.053,0,0,0,.154-2.9,22.647,22.647,0,0,1-5.6-17.849A22.629,22.629,0,0,1,6.508-26.578a22.619,22.619,0,0,1,18.438-3.166A22.622,22.622,0,0,1,39.462-17.949,22.621,22.621,0,0,1,40.141.742,22.628,22.628,0,0,1,26.514,13.558a2.058,2.058,0,1,0,1.328,3.9A26.73,26.73,0,0,0,43.952,2.314a26.738,26.738,0,0,0-.794-22.093A26.74,26.74,0,0,0,26-33.722a26.743,26.743,0,0,0-21.789,3.74A26.747,26.747,0,0,0-7.317-11.116,26.747,26.747,0,0,0-.7,9.979a2.056,2.056,0,0,0,2.9.154Z" transform="translate(7.516 34.595)"/></g><g transform="translate(19.528 19.531)"><path class="d" d="M1.631,0A7.2,7.2,0,1,0,6.722,2.109,7.194,7.194,0,0,0,1.631,0m0,10.284A3.085,3.085,0,1,1,4.716,7.2a3.088,3.088,0,0,1-3.085,3.085" transform="translate(5.568)"/></g><g transform="translate(26.001 25.994)"><path class="d" d="M0,3.915A2.059,2.059,0,0,0,2.058,5.808h.164A18.4,18.4,0,0,0,13.83.467,18.411,18.411,0,0,0,19.162-11.14a2.066,2.066,0,0,0-1.893-2.221,2.061,2.061,0,0,0-2.221,1.893A14.315,14.315,0,0,1,10.9-2.447,14.3,14.3,0,0,1,1.884,1.7,2.054,2.054,0,0,0,0,3.915Z" transform="translate(0.005 13.368)"/></g><g transform="translate(8.281 8.272)"><path class="d" d="M3.841,0a18.41,18.41,0,0,0-16.95,16.95,2.061,2.061,0,0,0,1.884,2.211h.164A2.057,2.057,0,0,0-9,17.271,14.309,14.309,0,0,1,4.169,4.107,2.064,2.064,0,1,0,3.841-.007Z" transform="translate(13.115 0.013)"/></g><g transform="translate(4.086 38.3)"><path class="d" d="M.16,3.236A2.059,2.059,0,0,0,0,6.176L10.28,17.714a2.053,2.053,0,0,0,3.085,0L23.63,6.176a2.062,2.062,0,1,0-3.086-2.734l-6.675,7.475V-8.992a2.058,2.058,0,0,0-2.056-2.057A2.058,2.058,0,0,0,9.757-8.992V10.917L3.062,3.409A2.058,2.058,0,0,0,.16,3.236Z" transform="translate(0.545 11.049)"/></g></g></g></g></svg>