<svg xmlns="http://www.w3.org/2000/svg" width="69.183" height="65.257" viewBox="0 0 69.183 65.257"><defs><style>.a{fill:#44c1c0;}.b{fill:#2f3d46;stroke:#2f3d46;}</style></defs><g transform="translate(-1279 -2128.743)"><circle class="a" cx="28.5" cy="28.5" r="28.5" transform="translate(1279 2137)"/><g transform="translate(1289.981 2124.341)"><path class="b" d="M15.745,26.452a10.749,10.749,0,0,0,3.484-.594L21.372,28a.877.877,0,0,0,1.239-1.241l-2.519-2.519a.876.876,0,0,0-.962-.208A8.967,8.967,0,0,1,6.88,14.4l3.056,3.056a3.86,3.86,0,0,0,5.452,0l2.092-2.092a3.855,3.855,0,0,0,0-5.452L14.419,6.86a8.962,8.962,0,0,1,9.689,12.1l-.919.923a.878.878,0,0,0,1.246,1.239l.434-.437,5.509,5.509a.877.877,0,0,0,1.239-1.241l-5.74-5.74A10.719,10.719,0,0,0,12.41,5.532c-.014,0-.025.011-.039.016a.324.324,0,0,0-.041.018.941.941,0,0,0-.256.169s-.009,0-.014.009a.128.128,0,0,0-.011.018.906.906,0,0,0-.169.256.279.279,0,0,0-.016.039.884.884,0,0,0-.057.288v.039a.861.861,0,0,0,.039.251.3.3,0,0,0,.018.039c0,.014.011.025.016.039a.941.941,0,0,0,.169.256s0,.009.009.014l4.169,4.169a2.1,2.1,0,0,1,0,2.969l-2.092,2.092a2.1,2.1,0,0,1-2.969,0L7,12.042s-.009,0-.014-.009a.846.846,0,0,0-.256-.169l-.039-.018a.279.279,0,0,0-.039-.016.858.858,0,0,0-.249-.039H6.368a.818.818,0,0,0-.288.057.279.279,0,0,0-.039.016.878.878,0,0,0-.258.171s-.011.007-.016.011,0,.009-.009.014a.846.846,0,0,0-.169.256c-.007.014-.011.027-.018.041a.279.279,0,0,0-.016.039,10.726,10.726,0,0,0,10.19,14.055Z"/><path class="b" d="M56.54,64.529A.878.878,0,0,0,55.3,65.77l1.09,1.09a.878.878,0,1,0,1.244-1.239Z" transform="translate(-20.75 -24.59)"/><path class="b" d="M77.6,67.106C73.228,62.733,66.99,56.5,60.434,49.935a.878.878,0,1,0-1.241,1.241c6.553,6.56,12.794,12.8,17.167,17.171L77.415,69.4a2.958,2.958,0,0,1,0,4.169,2.958,2.958,0,0,1-4.172,0l-11.5-11.512A.878.878,0,0,0,60.5,63.3L72,74.814a4.7,4.7,0,0,0,6.652-6.652Z" transform="translate(-22.366 -18.536)"/><path class="b" d="M87.359,85.946a1.414,1.414,0,0,1-2.828,0,1.414,1.414,0,1,1,2.828,0" transform="translate(-32.984 -32.994)"/><path class="b" d="M34.088,37.656l-2.67-2.67L49.644,16.752l2.812.2a.557.557,0,0,0,.062,0,.877.877,0,0,0,.768-.453l4.279-7.71a.879.879,0,0,0-.146-1.047L54.94,5.264a.879.879,0,0,0-1.047-.146L46.183,9.4a.877.877,0,0,0-.45.827l.2,2.812L27.695,31.263l-2.656-2.656a.877.877,0,0,0-1.241,0l-2.263,2.263a.88.88,0,0,0,0,1.241.932.932,0,0,1,.283.606.609.609,0,0,1-.162.464l-.082.082a.586.586,0,0,1-.423.162.93.93,0,0,1-.647-.283.9.9,0,0,0-1.241,0L6.217,46.191A4.111,4.111,0,0,0,5.035,49.36a4.866,4.866,0,0,0,1.449,3.184l3.666,3.666a4.9,4.9,0,0,0,3.426,1.456,4.113,4.113,0,0,0,2.93-1.186l13.05-13.05a.88.88,0,0,0,0-1.241.932.932,0,0,1-.283-.606.609.609,0,0,1,.162-.464l.082-.082a.586.586,0,0,1,.423-.162.923.923,0,0,1,.647.286.877.877,0,0,0,1.241,0L34.093,38.9a.882.882,0,0,0,0-1.241ZM47.451,14c.007-.007.009-.016.016-.023a.9.9,0,0,0,.16-.24c.007-.016.016-.032.023-.05A.864.864,0,0,0,47.7,13.4c0-.018,0-.034,0-.05s0-.027,0-.043l-.185-2.649,6.643-3.687L55.71,8.516l-3.687,6.643-2.649-.185a.291.291,0,0,0-.043,0l-.05,0a.864.864,0,0,0-.279.055c-.018.007-.034.016-.05.023a.862.862,0,0,0-.238.158.241.241,0,0,1-.025.016L30.177,33.745l-1.239-1.239ZM31.1,39.4a2.493,2.493,0,0,0-2.83.4l-.082.082a2.329,2.329,0,0,0-.674,1.8,2.6,2.6,0,0,0,.274,1.035L15.264,55.239a2.359,2.359,0,0,1-1.689.672,3.132,3.132,0,0,1-2.185-.942L7.723,51.3a3.122,3.122,0,0,1-.937-2.037,2.383,2.383,0,0,1,.67-1.836L19.984,34.9a2.489,2.489,0,0,0,2.83-.4l.082-.082a2.329,2.329,0,0,0,.674-1.8,2.6,2.6,0,0,0-.274-1.035l1.122-1.122,2.647,2.647.007.009.009.007L29.548,35.6l.007.009.009.007,2.663,2.663Z" transform="translate(-0.004 -0.005)"/></g></g></svg>