<svg xmlns="http://www.w3.org/2000/svg" xmlns:xlink="http://www.w3.org/1999/xlink" width="70.114" height="87.866" viewBox="0 0 70.114 87.866"><defs><style>.a{fill:none;}.b{fill:#ea1d2d;}.c{clip-path:url(#a);}.d{fill:#2f3d46;}</style><clipPath id="a"><path class="a" d="M0,19.895H52.114V-54.029H0Z" transform="translate(0 54.029)"/></clipPath></defs><g transform="translate(-582 -2107.134)"><circle class="b" cx="28.5" cy="28.5" r="28.5" transform="translate(582 2138)"/><g transform="translate(600 2161.163)"><g class="c" transform="translate(0 -54.029)"><g transform="translate(29.78 0)"><path class="d" d="M5.54,8.985H3.059V1.628A25.439,25.439,0,0,0,.18-10.093H5.54v-7.153H3.059V-24.4H-6.867v7.154H-9.349v7.153H-3.99A25.472,25.472,0,0,0-6.867,1.628V8.985H-9.349a3.655,3.655,0,0,0-3.722,3.578V34.023A3.654,3.654,0,0,0-9.349,37.6h1.24v4.77h2.482v7.154H1.818V42.369H4.3V37.6H5.54a3.654,3.654,0,0,0,3.722-3.577V12.563A3.655,3.655,0,0,0,5.54,8.985m-9.926-31H.578v4.77H-4.385Zm-2.482,7.154H3.059v2.385H-6.867ZM-4.385,1.628A23.156,23.156,0,0,1-1.9-8.752,23.147,23.147,0,0,1,.577,1.628V8.985H-4.385ZM-.663,47.139H-3.145v-4.77H-.663Zm2.482-7.154H-5.627V37.6H1.818ZM5.54,35.216H-9.349a1.218,1.218,0,0,1-1.242-1.193V32.831h5.658V30.447h-5.658V16.139H5V13.754H-10.591V12.563a1.217,1.217,0,0,1,1.242-1.193H5.54a1.216,1.216,0,0,1,1.24,1.193v1.192H4.3v2.385h2.48V30.447H-5.627v2.385H6.781v1.192a1.217,1.217,0,0,1-1.24,1.193" transform="translate(13.071 24.4)"/></g><g transform="translate(0.001 0.001)"><path class="d" d="M5.54,3.209H4.3v-4.77H1.818V-8.714H-5.627v7.153H-8.109v4.77h-1.24a3.654,3.654,0,0,0-3.722,3.577V28.247a3.654,3.654,0,0,0,3.722,3.577h1.24v6.985a12.775,12.775,0,0,0,4,9.272l.449.435L-7.6,52.3a9.608,9.608,0,0,0-2.913,5.755h-2.562v7.154h7.444V58.054H-8a7.279,7.279,0,0,1,2.163-4.07L-1.9,50.2l3.937,3.783a7.3,7.3,0,0,1,2.163,4.072l-2.376,0v7.154H9.262V58.054H6.7A9.608,9.608,0,0,0,3.785,52.3L-.148,48.516.3,48.081a12.783,12.783,0,0,0,4-9.272V31.824H5.54a3.654,3.654,0,0,0,3.722-3.577V6.785A3.654,3.654,0,0,0,5.54,3.209M-8.109,62.825h-2.482V60.44h2.482Zm14.889,0H4.3V60.44H6.781ZM-3.145-6.329H-.663v4.77H-3.145ZM-5.627.824H1.818V3.209H-5.627ZM1.817,38.807A10.46,10.46,0,0,1-1.452,46.4l-.453.432-.453-.435A10.455,10.455,0,0,1-5.627,38.8V31.824H1.817ZM5.54,29.439H-9.349a1.217,1.217,0,0,1-1.242-1.192V27.054h2.482V24.671h-2.482V10.363H1.817V7.978H-10.591V6.785A1.217,1.217,0,0,1-9.349,5.593H5.54a1.217,1.217,0,0,1,1.24,1.192V7.978H1.122v2.385H6.781V24.671H-8.8v2.383H6.781v1.193a1.217,1.217,0,0,1-1.24,1.192" transform="translate(13.071 8.714)"/></g></g></g></g></svg>