<svg xmlns="http://www.w3.org/2000/svg" xmlns:xlink="http://www.w3.org/1999/xlink" width="67.722" height="67.91" viewBox="0 0 67.722 67.91"><defs><style>.a{fill:none;}.b{fill:#f3d95a;}.c{clip-path:url(#a);}.d{fill:#333e48;stroke:#333e48;}</style><clipPath id="a"><path class="a" d="M0,8.324H55.722V-47.414H0Z" transform="translate(0 47.414)"/></clipPath></defs><g transform="translate(-582 -1950.09)"><circle class="b" cx="28.5" cy="28.5" r="28.5" transform="translate(582 1961)"/><g transform="translate(594 1997.504)"><g class="c" transform="translate(0 -47.414)"><g transform="translate(0 0)"><path class="d" d="M7.741,3.413l-9.66,9.662a1.2,1.2,0,0,1-1.734,0,1.2,1.2,0,0,1,0-1.734l9.66-9.722a10.878,10.878,0,0,0,0-15.42,10.878,10.878,0,0,0-15.42,0l-9.722,9.66A10.81,10.81,0,0,0-22.293,3.6a11.02,11.02,0,0,0,3.159,7.741,10.964,10.964,0,0,0,4.089,2.6A1.218,1.218,0,0,1-14.3,15.49a1.272,1.272,0,0,1-1.176.805,1.208,1.208,0,0,1-.434-.062,14.017,14.017,0,0,1-5.077-3.159,13.247,13.247,0,0,1-3.9-9.476,13.244,13.244,0,0,1,3.9-9.475l9.662-9.663a13.46,13.46,0,0,1,18.951,0A13.351,13.351,0,0,1,7.742,3.413ZM-16.658.626a1.2,1.2,0,0,0-1.548.743,1.2,1.2,0,0,0,.743,1.548,10.522,10.522,0,0,1,4.089,2.6,10.877,10.877,0,0,1,0,15.419l-9.662,9.725a10.879,10.879,0,0,1-15.419,0,10.877,10.877,0,0,1,0-15.419l9.662-9.662a1.2,1.2,0,0,0,0-1.735,1.2,1.2,0,0,0-1.735,0l-9.662,9.6a13.247,13.247,0,0,0-3.9,9.474,13.251,13.251,0,0,0,3.9,9.475,13.309,13.309,0,0,0,9.476,3.9,13.414,13.414,0,0,0,9.475-3.9l9.662-9.662a13.46,13.46,0,0,0,0-18.951A13.586,13.586,0,0,0-16.657.626Z" transform="translate(44.092 19.441)"/></g></g></g></g></svg>