<svg id="Group_809" data-name="Group 809" xmlns="http://www.w3.org/2000/svg" viewBox="0 0 88.829 126.899">
  <defs>
    <style>
      .cls-1 {
        fill: #fff;
      }
    </style>
  </defs>
  <g id="Group_806" data-name="Group 806">
    <path id="Path_485" data-name="Path 485" class="cls-1" d="M82.135,271.926a2.093,2.093,0,0,0-1.639.793,2.131,2.131,0,0,0-.423,1.771l6.345,29.61a2.118,2.118,0,0,0,2.062,1.666h27.495a2.1,2.1,0,0,0,2.062-1.666l.529-2.432a17.412,17.412,0,0,0,9.253-3.2c6.689-4.679,9.121-12.769,5.446-18.03a10.722,10.722,0,0,0-9.253-4.256l.37-1.718a2.131,2.131,0,0,0-.423-1.771,2.093,2.093,0,0,0-1.639-.793H82.135ZM129.8,282.871c2.353,3.331.37,8.777-4.415,12.135a13.81,13.81,0,0,1-5.922,2.379l3.622-16.946a6.965,6.965,0,0,1,6.715,2.432ZM90.2,301.536l-5.446-25.38H119.7l-5.446,25.38Zm0,0" transform="translate(-58.87 -200.017)"/>
    <path id="Path_486" data-name="Path 486" class="cls-1" d="M85.234,42.934A4.188,4.188,0,0,0,88.8,38.757V8.46A8.451,8.451,0,0,0,80.343,0H8.46A8.451,8.451,0,0,0,0,8.46v30.3a4.211,4.211,0,0,0,3.569,4.177l.661.106v66.939A4.242,4.242,0,0,0,0,114.209v8.46a4.242,4.242,0,0,0,4.23,4.23H84.6a4.242,4.242,0,0,0,4.23-4.23v-8.46a4.242,4.242,0,0,0-4.23-4.23V43.04ZM4.23,8.46A4.242,4.242,0,0,1,8.46,4.23H80.369A4.242,4.242,0,0,1,84.6,8.46v30.3A300.913,300.913,0,0,1,44.415,42.3,300.914,300.914,0,0,1,4.23,38.757ZM48.645,63.45h-8.46V57.1h8.46ZM35.955,52.875A2.121,2.121,0,0,1,33.84,50.76V46.186c3.569.211,7.138.344,10.575.344s7.006-.132,10.575-.344V50.76a2.121,2.121,0,0,1-2.115,2.115ZM84.6,122.669H4.23v-8.46H84.6Zm-4.23-12.69H8.46V43.648c5.182.714,12.928,1.666,21.15,2.274V50.76A6.33,6.33,0,0,0,35.955,57.1V63.45a4.242,4.242,0,0,0,4.23,4.23h8.46a4.242,4.242,0,0,0,4.23-4.23V57.1A6.33,6.33,0,0,0,59.22,50.76V45.922c8.248-.608,15.968-1.56,21.15-2.274Zm0,0"/>
  </g>
  <path id="Path_487" data-name="Path 487" class="cls-1" d="M56.46,48a8.46,8.46,0,1,0,8.46,8.46A8.451,8.451,0,0,0,56.46,48Zm0,12.69a4.23,4.23,0,1,1,4.23-4.23,4.242,4.242,0,0,1-4.23,4.23Zm0,0" transform="translate(-35.31 -35.31)"/>
  <path id="Path_488" data-name="Path 488" class="cls-1" d="M152.92,56.46a8.46,8.46,0,1,0-8.46,8.46,8.451,8.451,0,0,0,8.46-8.46Zm-12.69,0a4.23,4.23,0,1,1,4.23,4.23,4.242,4.242,0,0,1-4.23-4.23Zm0,0" transform="translate(-100.045 -35.31)"/>
  <path id="Path_489" data-name="Path 489" class="cls-1" d="M232.46,64.92A8.46,8.46,0,1,0,224,56.46a8.451,8.451,0,0,0,8.46,8.46Zm0-12.69a4.23,4.23,0,1,1-4.23,4.23,4.242,4.242,0,0,1,4.23-4.23Zm0,0" transform="translate(-164.78 -35.31)"/>
</svg>
