<?xml version="1.0" encoding="UTF-8"?>
<svg width="523px" height="567px" viewBox="0 0 523 567" version="1.1" xmlns="http://www.w3.org/2000/svg" xmlns:xlink="http://www.w3.org/1999/xlink">
    <title>hero-side-bg-left</title>
    <g id="Main-Show" stroke="none" stroke-width="1" fill="none" fill-rule="evenodd">
        <g id="Artboard" transform="translate(-108.000000, -780.000000)">
            <g id="hero-side-bg-left" transform="translate(369.500000, 1063.515372) scale(-1, 1) translate(-369.500000, -1063.515372) translate(108.000000, 780.515372)">
                <path d="M305.860684,220.03085 C306.226495,220.029433 306.738914,220.040983 307.098351,220.056128 C307.510907,220.07367 308.775843,220.12695 308.923159,220.142966 C309.144133,220.167481 309.388834,220.17707 309.388834,220.231766 C309.388834,220.300318 309.372357,220.3638 309.340019,220.509416 L309.318717,220.60734 L309.261703,221.074437 C309.002129,222.393684 309.59281,223.172615 309.38848,224.514852 C309.307385,225.044817 309.378564,225.575218 309.499321,226.104965 C309.543941,226.302286 309.478782,226.49928 309.477365,226.697036 C309.475949,226.872347 309.309864,227.160647 309.349526,227.335849 C309.400033,227.556459 309.371642,227.719592 309.210501,227.882403 L309.133155,227.952326 L309.090585,227.952964 C308.839099,227.9567 307.509017,227.976014 306.056042,227.988676 L305.568477,227.99262 C305.160564,227.995651 304.751363,227.997977 304.361356,227.999124 L303.472684,227.999365 C303.264973,227.998736 303.070072,227.997546 302.892405,227.99569 C302.456477,227.991114 302.18203,227.915716 302.240107,227.826808 C302.398047,227.581873 302.077563,227.227873 302.004613,227.087537 C301.729104,226.558552 301.665007,226.391304 301.748227,225.885091 C301.983012,224.45242 301.455719,224.421803 301.531502,222.565509 C301.541772,222.320574 301.4026,221.301393 301.56054,220.925166 C301.719188,220.548939 301.436242,220.368507 301.576122,220.162143 C301.668903,220.026165 302.008509,219.99424 302.110143,219.981492 C302.145555,219.977134 302.184155,219.97441 302.223463,219.973539 C303.437404,219.950767 304.643201,220.034881 305.860684,220.03085 Z M305.860684,208.788445 C306.226495,208.787028 306.738914,208.798578 307.098351,208.813722 C307.510907,208.831265 308.775843,208.884544 308.923159,208.900561 C309.144133,208.925076 309.388834,208.934664 309.388834,208.989361 C309.388834,209.057913 309.372357,209.121395 309.340019,209.267011 L309.318717,209.364934 L309.261703,209.832031 C309.002129,211.151279 309.59281,211.93021 309.38848,213.272447 C309.307385,213.802412 309.378564,214.332813 309.499321,214.86256 C309.543941,215.059881 309.478782,215.256874 309.477365,215.454631 C309.475949,215.629942 309.309864,215.918241 309.349526,216.093444 C309.407248,216.345569 309.36192,216.522624 309.133155,216.70992 L309.124968,216.710044 L309.061409,216.71099 C308.749001,216.715593 307.459883,216.734037 306.056042,216.746271 L305.568477,216.750215 C305.078982,216.753851 304.587631,216.756474 304.12982,216.757261 L303.6845,216.757404 C303.396822,216.757051 303.129294,216.755759 302.892405,216.753285 C302.456477,216.748709 302.18203,216.673311 302.240107,216.584402 C302.398047,216.339468 302.077563,215.985467 302.004613,215.845131 C301.729104,215.316147 301.665007,215.148898 301.748227,214.642686 C301.983012,213.210015 301.455719,213.179398 301.531502,211.323103 C301.541772,211.078169 301.4026,210.058988 301.56054,209.682761 C301.719188,209.306533 301.436242,209.126101 301.576122,208.919737 C301.668903,208.783759 302.008509,208.751835 302.110143,208.739087 C302.145555,208.734729 302.184155,208.732005 302.223463,208.731133 C303.437404,208.708361 304.643201,208.792476 305.860684,208.788445 Z M305.860684,197.546039 C306.226495,197.544623 306.738914,197.556172 307.098351,197.571317 C307.481439,197.587606 308.599487,197.63471 308.875203,197.65418 L308.923159,197.658156 L309.089144,197.674681 C309.25119,197.690284 309.388834,197.705933 309.388834,197.746955 C309.388834,197.815507 309.372357,197.87899 309.340019,198.024606 L309.318717,198.122529 L309.261703,198.589626 C309.002129,199.908873 309.59281,200.687804 309.38848,202.030041 C309.307385,202.560007 309.378564,203.090408 309.499321,203.620155 C309.543941,203.817475 309.478782,204.014469 309.477365,204.212225 C309.475949,204.387537 309.309864,204.675836 309.349526,204.851038 C309.407248,205.103164 309.36192,205.280219 309.133155,205.467515 C309.133155,205.467515 307.670459,205.489796 306.056042,205.503866 L305.568477,205.50781 C304.589487,205.515083 303.603072,205.518302 302.892405,205.51088 C302.456477,205.506304 302.18203,205.430906 302.240107,205.341997 C302.398047,205.097062 302.077563,204.743062 302.004613,204.602726 C301.729104,204.073741 301.665007,203.906493 301.748227,203.40028 C301.983012,201.967609 301.455719,201.936992 301.531502,200.080698 C301.541772,199.835763 301.4026,198.816583 301.56054,198.440355 C301.719188,198.064128 301.436242,197.883696 301.576122,197.677332 C301.668903,197.541354 302.008509,197.50943 302.110143,197.496682 C302.145555,197.492324 302.184155,197.4896 302.223463,197.488728 C303.437404,197.465956 304.643201,197.550071 305.860684,197.546039 Z M305.860684,186.303634 C306.226495,186.302218 306.738914,186.313767 307.098351,186.328912 C307.245693,186.335177 307.501756,186.346 307.7768,186.358057 L308.11022,186.372903 C308.496438,186.390418 308.849501,186.407742 308.923159,186.41575 C309.144133,186.440266 309.388834,186.449854 309.388834,186.50455 C309.388834,186.573102 309.372357,186.636584 309.340019,186.7822 L309.318717,186.880124 L309.261703,187.347221 C309.002129,188.666468 309.59281,189.445399 309.38848,190.787636 C309.307385,191.317601 309.378564,191.848002 309.499321,192.37775 C309.543941,192.57507 309.478782,192.772064 309.477365,192.96982 C309.475949,193.145131 309.309864,193.433431 309.349526,193.608633 C309.400033,193.829243 309.371642,193.992377 309.210501,194.155187 L309.133155,194.22511 L309.090585,194.225748 C308.839099,194.229484 307.509017,194.248798 306.056042,194.26146 L305.568477,194.265404 C305.078982,194.269041 304.587631,194.271664 304.12982,194.27245 L303.472684,194.272149 C303.264973,194.27152 303.070072,194.27033 302.892405,194.268474 C302.456477,194.263898 302.18203,194.1885 302.240107,194.099592 C302.398047,193.854657 302.077563,193.500657 302.004613,193.360321 C301.729104,192.831336 301.665007,192.664088 301.748227,192.157875 C301.983012,190.725204 301.455719,190.694587 301.531502,188.838293 C301.541772,188.593358 301.4026,187.574178 301.56054,187.19795 C301.719188,186.821723 301.436242,186.641291 301.576122,186.434927 C301.668903,186.298949 302.008509,186.267025 302.110143,186.254277 C302.145555,186.249918 302.184155,186.247194 302.223463,186.246323 C303.437404,186.223551 304.643201,186.307665 305.860684,186.303634 Z M305.860684,175.061229 C306.226495,175.059812 306.738914,175.071362 307.098351,175.086507 C307.481439,175.102796 308.599487,175.149899 308.875203,175.169369 L308.923159,175.173345 L309.089144,175.189871 C309.25119,175.205474 309.388834,175.221123 309.388834,175.262145 C309.388834,175.330697 309.372357,175.394179 309.340019,175.539795 L309.318717,175.637718 L309.261703,176.104816 C309.002129,177.424063 309.59281,178.202994 309.38848,179.545231 C309.307385,180.075196 309.378564,180.605597 309.499321,181.135344 C309.543941,181.332665 309.478782,181.529658 309.477365,181.727415 C309.475949,181.902726 309.309864,182.191025 309.349526,182.366228 C309.407248,182.618353 309.36192,182.795408 309.133155,182.982704 C309.133155,182.982704 307.728381,183.004104 306.152715,183.018201 L305.69894,183.022006 C305.166598,183.026155 304.628325,183.029189 304.12982,183.030045 L303.6845,183.030188 C303.396822,183.029835 303.129294,183.028543 302.892405,183.026069 C302.456477,183.021493 302.18203,182.946095 302.240107,182.857186 C302.398047,182.612252 302.077563,182.258252 302.004613,182.117915 C301.729104,181.588931 301.665007,181.421682 301.748227,180.91547 C301.983012,179.482799 301.455719,179.452182 301.531502,177.595887 C301.541772,177.350953 301.4026,176.331772 301.56054,175.955545 C301.719188,175.579318 301.436242,175.398885 301.576122,175.192521 C301.668903,175.056544 302.008509,175.024619 302.110143,175.011871 C302.145555,175.007513 302.184155,175.004789 302.223463,175.003917 C303.437404,174.981146 304.643201,175.06526 305.860684,175.061229 Z M305.860684,162.03085 C306.226495,162.029433 306.738914,162.040983 307.098351,162.056128 C307.510907,162.07367 308.775843,162.12695 308.923159,162.142966 C309.144133,162.167481 309.388834,162.17707 309.388834,162.231766 C309.388834,162.300318 309.372357,162.3638 309.340019,162.509416 L309.318717,162.60734 L309.261703,163.074437 C309.002129,164.393684 309.59281,165.172615 309.38848,166.514852 C309.307385,167.044817 309.378564,167.575218 309.499321,168.104965 C309.543941,168.302286 309.478782,168.49928 309.477365,168.697036 C309.475949,168.872347 309.309864,169.160647 309.349526,169.335849 C309.400033,169.556459 309.371642,169.719592 309.210501,169.882403 L309.133155,169.952326 L309.090585,169.952964 C308.839099,169.9567 307.509017,169.976014 306.056042,169.988676 L305.568477,169.99262 C305.160564,169.995651 304.751363,169.997977 304.361356,169.999124 L303.472684,169.999365 C303.264973,169.998736 303.070072,169.997546 302.892405,169.99569 C302.456477,169.991114 302.18203,169.915716 302.240107,169.826808 C302.398047,169.581873 302.077563,169.227873 302.004613,169.087537 C301.729104,168.558552 301.665007,168.391304 301.748227,167.885091 C301.983012,166.45242 301.455719,166.421803 301.531502,164.565509 C301.541772,164.320574 301.4026,163.301393 301.56054,162.925166 C301.719188,162.548939 301.436242,162.368507 301.576122,162.162143 C301.668903,162.026165 302.008509,161.99424 302.110143,161.981492 C302.145555,161.977134 302.184155,161.97441 302.223463,161.973539 C303.437404,161.950767 304.643201,162.034881 305.860684,162.03085 Z M305.860684,150.788445 C306.226495,150.787028 306.738914,150.798578 307.098351,150.813722 C307.510907,150.831265 308.775843,150.884544 308.923159,150.900561 C309.144133,150.925076 309.388834,150.934664 309.388834,150.989361 C309.388834,151.057913 309.372357,151.121395 309.340019,151.267011 L309.318717,151.364934 L309.261703,151.832031 C309.002129,153.151279 309.59281,153.93021 309.38848,155.272447 C309.307385,155.802412 309.378564,156.332813 309.499321,156.86256 C309.543941,157.059881 309.478782,157.256874 309.477365,157.454631 C309.475949,157.629942 309.309864,157.918241 309.349526,158.093444 C309.407248,158.345569 309.36192,158.522624 309.133155,158.70992 L309.124968,158.710044 L309.061409,158.71099 C308.749001,158.715593 307.459883,158.734037 306.056042,158.746271 L305.568477,158.750215 C305.078982,158.753851 304.587631,158.756474 304.12982,158.757261 L303.6845,158.757404 C303.396822,158.757051 303.129294,158.755759 302.892405,158.753285 C302.456477,158.748709 302.18203,158.673311 302.240107,158.584402 C302.398047,158.339468 302.077563,157.985467 302.004613,157.845131 C301.729104,157.316147 301.665007,157.148898 301.748227,156.642686 C301.983012,155.210015 301.455719,155.179398 301.531502,153.323103 C301.541772,153.078169 301.4026,152.058988 301.56054,151.682761 C301.719188,151.306533 301.436242,151.126101 301.576122,150.919737 C301.668903,150.783759 302.008509,150.751835 302.110143,150.739087 C302.145555,150.734729 302.184155,150.732005 302.223463,150.731133 C303.437404,150.708361 304.643201,150.792476 305.860684,150.788445 Z M305.860684,139.546039 C306.226495,139.544623 306.738914,139.556172 307.098351,139.571317 C307.481439,139.587606 308.599487,139.63471 308.875203,139.65418 L308.923159,139.658156 L309.089144,139.674681 C309.25119,139.690284 309.388834,139.705933 309.388834,139.746955 C309.388834,139.815507 309.372357,139.87899 309.340019,140.024606 L309.318717,140.122529 L309.261703,140.589626 C309.002129,141.908873 309.59281,142.687804 309.38848,144.030041 C309.307385,144.560007 309.378564,145.090408 309.499321,145.620155 C309.543941,145.817475 309.478782,146.014469 309.477365,146.212225 C309.475949,146.387537 309.309864,146.675836 309.349526,146.851038 C309.407248,147.103164 309.36192,147.280219 309.133155,147.467515 C309.133155,147.467515 307.670459,147.489796 306.056042,147.503866 L305.568477,147.50781 C304.589487,147.515083 303.603072,147.518302 302.892405,147.51088 C302.456477,147.506304 302.18203,147.430906 302.240107,147.341997 C302.398047,147.097062 302.077563,146.743062 302.004613,146.602726 C301.729104,146.073741 301.665007,145.906493 301.748227,145.40028 C301.983012,143.967609 301.455719,143.936992 301.531502,142.080698 C301.541772,141.835763 301.4026,140.816583 301.56054,140.440355 C301.719188,140.064128 301.436242,139.883696 301.576122,139.677332 C301.668903,139.541354 302.008509,139.50943 302.110143,139.496682 C302.145555,139.492324 302.184155,139.4896 302.223463,139.488728 C303.437404,139.465956 304.643201,139.550071 305.860684,139.546039 Z M305.860684,128.303634 C306.226495,128.302218 306.738914,128.313767 307.098351,128.328912 C307.245693,128.335177 307.501756,128.346 307.7768,128.358057 L308.11022,128.372903 C308.496438,128.390418 308.849501,128.407742 308.923159,128.41575 C309.144133,128.440266 309.388834,128.449854 309.388834,128.50455 C309.388834,128.573102 309.372357,128.636584 309.340019,128.7822 L309.318717,128.880124 L309.261703,129.347221 C309.002129,130.666468 309.59281,131.445399 309.38848,132.787636 C309.307385,133.317601 309.378564,133.848002 309.499321,134.37775 C309.543941,134.57507 309.478782,134.772064 309.477365,134.96982 C309.475949,135.145131 309.309864,135.433431 309.349526,135.608633 C309.400033,135.829243 309.371642,135.992377 309.210501,136.155187 L309.133155,136.22511 L309.090585,136.225748 C308.839099,136.229484 307.509017,136.248798 306.056042,136.26146 L305.568477,136.265404 C305.078982,136.269041 304.587631,136.271664 304.12982,136.27245 L303.472684,136.272149 C303.264973,136.27152 303.070072,136.27033 302.892405,136.268474 C302.456477,136.263898 302.18203,136.1885 302.240107,136.099592 C302.398047,135.854657 302.077563,135.500657 302.004613,135.360321 C301.729104,134.831336 301.665007,134.664088 301.748227,134.157875 C301.983012,132.725204 301.455719,132.694587 301.531502,130.838293 C301.541772,130.593358 301.4026,129.574178 301.56054,129.19795 C301.719188,128.821723 301.436242,128.641291 301.576122,128.434927 C301.668903,128.298949 302.008509,128.267025 302.110143,128.254277 C302.145555,128.249918 302.184155,128.247194 302.223463,128.246323 C303.437404,128.223551 304.643201,128.307665 305.860684,128.303634 Z M305.860684,117.061229 C306.226495,117.059812 306.738914,117.071362 307.098351,117.086507 C307.481439,117.102796 308.599487,117.149899 308.875203,117.169369 L308.923159,117.173345 L309.089144,117.189871 C309.25119,117.205474 309.388834,117.221123 309.388834,117.262145 C309.388834,117.330697 309.372357,117.394179 309.340019,117.539795 L309.318717,117.637718 L309.261703,118.104816 C309.002129,119.424063 309.59281,120.202994 309.38848,121.545231 C309.307385,122.075196 309.378564,122.605597 309.499321,123.135344 C309.543941,123.332665 309.478782,123.529658 309.477365,123.727415 C309.475949,123.902726 309.309864,124.191025 309.349526,124.366228 C309.407248,124.618353 309.36192,124.795408 309.133155,124.982704 C309.133155,124.982704 307.728381,125.004104 306.152715,125.018201 L305.69894,125.022006 C305.166598,125.026155 304.628325,125.029189 304.12982,125.030045 L303.6845,125.030188 C303.396822,125.029835 303.129294,125.028543 302.892405,125.026069 C302.456477,125.021493 302.18203,124.946095 302.240107,124.857186 C302.398047,124.612252 302.077563,124.258252 302.004613,124.117915 C301.729104,123.588931 301.665007,123.421682 301.748227,122.91547 C301.983012,121.482799 301.455719,121.452182 301.531502,119.595887 C301.541772,119.350953 301.4026,118.331772 301.56054,117.955545 C301.719188,117.579318 301.436242,117.398885 301.576122,117.192521 C301.668903,117.056544 302.008509,117.024619 302.110143,117.011871 C302.145555,117.007513 302.184155,117.004789 302.223463,117.003917 C303.437404,116.981146 304.643201,117.06526 305.860684,117.061229 Z M305.860684,103.03085 C306.226495,103.029433 306.738914,103.040983 307.098351,103.056128 C307.510907,103.07367 308.775843,103.12695 308.923159,103.142966 C309.144133,103.167481 309.388834,103.17707 309.388834,103.231766 C309.388834,103.300318 309.372357,103.3638 309.340019,103.509416 L309.318717,103.60734 L309.261703,104.074437 C309.002129,105.393684 309.59281,106.172615 309.38848,107.514852 C309.307385,108.044817 309.378564,108.575218 309.499321,109.104965 C309.543941,109.302286 309.478782,109.49928 309.477365,109.697036 C309.475949,109.872347 309.309864,110.160647 309.349526,110.335849 C309.400033,110.556459 309.371642,110.719592 309.210501,110.882403 L309.133155,110.952326 L309.090585,110.952964 C308.839099,110.9567 307.509017,110.976014 306.056042,110.988676 L305.568477,110.99262 C305.160564,110.995651 304.751363,110.997977 304.361356,110.999124 L303.472684,110.999365 C303.264973,110.998736 303.070072,110.997546 302.892405,110.99569 C302.456477,110.991114 302.18203,110.915716 302.240107,110.826808 C302.398047,110.581873 302.077563,110.227873 302.004613,110.087537 C301.729104,109.558552 301.665007,109.391304 301.748227,108.885091 C301.983012,107.45242 301.455719,107.421803 301.531502,105.565509 C301.541772,105.320574 301.4026,104.301393 301.56054,103.925166 C301.719188,103.548939 301.436242,103.368507 301.576122,103.162143 C301.668903,103.026165 302.008509,102.99424 302.110143,102.981492 C302.145555,102.977134 302.184155,102.97441 302.223463,102.973539 C303.437404,102.950767 304.643201,103.034881 305.860684,103.03085 Z M305.860684,91.7884445 C306.226495,91.7870281 306.738914,91.7985775 307.098351,91.8137225 C307.510907,91.8312645 308.775843,91.8845443 308.923159,91.9005609 C309.144133,91.9250762 309.388834,91.9346644 309.388834,91.9893606 C309.388834,92.0579125 309.372357,92.1213949 309.340019,92.2670109 L309.318717,92.3649342 L309.261703,92.8320314 C309.002129,94.1512786 309.59281,94.9302097 309.38848,96.2724468 C309.307385,96.8024119 309.378564,97.3328129 309.499321,97.8625602 C309.543941,98.0598807 309.478782,98.2568743 309.477365,98.4546307 C309.475949,98.6299419 309.309864,98.9182412 309.349526,99.0934435 C309.407248,99.3455692 309.36192,99.5226238 309.133155,99.7099203 L309.124968,99.7100441 L309.061409,99.7109899 C308.749001,99.7155931 307.459883,99.7340369 306.056042,99.746271 L305.568477,99.7502149 C305.078982,99.7538514 304.587631,99.7564744 304.12982,99.7572606 L303.6845,99.7574039 C303.396822,99.7570506 303.129294,99.755759 302.892405,99.753285 C302.456477,99.7487089 302.18203,99.6733109 302.240107,99.5844022 C302.398047,99.3394677 302.077563,98.9854675 302.004613,98.8451313 C301.729104,98.3161468 301.665007,98.1488983 301.748227,97.6426857 C301.983012,96.2100146 301.455719,96.1793978 301.531502,94.3231032 C301.541772,94.0781687 301.4026,93.0589881 301.56054,92.6827608 C301.719188,92.3065334 301.436242,92.1261012 301.576122,91.9197373 C301.668903,91.7837594 302.008509,91.7518351 302.110143,91.7390872 C302.145555,91.7347289 302.184155,91.732005 302.223463,91.7311333 C303.437404,91.7083614 304.643201,91.7924759 305.860684,91.7884445 Z M305.860684,80.5460393 C306.226495,80.5446228 306.738914,80.5561722 307.098351,80.5713172 C307.481439,80.5876062 308.599487,80.63471 308.875203,80.6541798 L308.923159,80.6581557 L309.089144,80.6746813 C309.25119,80.6902842 309.388834,80.7059331 309.388834,80.7469553 C309.388834,80.8155072 309.372357,80.8789896 309.340019,81.0246056 L309.318717,81.1225289 L309.261703,81.5896261 C309.002129,82.9088733 309.59281,83.6878044 309.38848,85.0300415 C309.307385,85.5600066 309.378564,86.0904076 309.499321,86.6201549 C309.543941,86.8174754 309.478782,87.014469 309.477365,87.2122254 C309.475949,87.3875366 309.309864,87.6758359 309.349526,87.8510382 C309.407248,88.1031639 309.36192,88.2802185 309.133155,88.467515 C309.133155,88.467515 307.670459,88.4897964 306.056042,88.5038657 L305.568477,88.5078096 C304.589487,88.5150827 303.603072,88.5183016 302.892405,88.5108798 C302.456477,88.5063036 302.18203,88.4309056 302.240107,88.3419969 C302.398047,88.0970624 302.077563,87.7430622 302.004613,87.602726 C301.729104,87.0737415 301.665007,86.906493 301.748227,86.4002804 C301.983012,84.9676093 301.455719,84.9369925 301.531502,83.0806979 C301.541772,82.8357634 301.4026,81.8165828 301.56054,81.4403555 C301.719188,81.0641282 301.436242,80.8836959 301.576122,80.677332 C301.668903,80.5413541 302.008509,80.5094298 302.110143,80.4966819 C302.145555,80.4923236 302.184155,80.4895997 302.223463,80.4887281 C303.437404,80.4659561 304.643201,80.5500706 305.860684,80.5460393 Z M305.860684,69.303634 C306.226495,69.3022175 306.738914,69.3137669 307.098351,69.3289119 C307.245693,69.3351769 307.501756,69.3460003 307.7768,69.3580566 L308.11022,69.3729032 C308.496438,69.3904179 308.849501,69.407742 308.923159,69.4157504 C309.144133,69.4402656 309.388834,69.4498538 309.388834,69.50455 C309.388834,69.5731019 309.372357,69.6365843 309.340019,69.7822003 L309.318717,69.8801236 L309.261703,70.3472208 C309.002129,71.666468 309.59281,72.4453991 309.38848,73.7876362 C309.307385,74.3176013 309.378564,74.8480023 309.499321,75.3777496 C309.543941,75.5750701 309.478782,75.7720637 309.477365,75.9698201 C309.475949,76.1451313 309.309864,76.4334306 309.349526,76.6086329 C309.400033,76.8292429 309.371642,76.9923766 309.210501,77.155187 L309.133155,77.2251097 L309.090585,77.2257477 C308.839099,77.2294839 307.509017,77.2487981 306.056042,77.2614604 L305.568477,77.2654043 C305.078982,77.2690408 304.587631,77.2716639 304.12982,77.27245 L303.472684,77.2721486 C303.264973,77.2715203 303.070072,77.2703299 302.892405,77.2684745 C302.456477,77.2638983 302.18203,77.1885003 302.240107,77.0995916 C302.398047,76.8546571 302.077563,76.5006569 302.004613,76.3603207 C301.729104,75.8313362 301.665007,75.6640877 301.748227,75.1578751 C301.983012,73.725204 301.455719,73.6945872 301.531502,71.8382926 C301.541772,71.5933581 301.4026,70.5741775 301.56054,70.1979502 C301.719188,69.8217229 301.436242,69.6412906 301.576122,69.4349267 C301.668903,69.2989488 302.008509,69.2670245 302.110143,69.2542766 C302.145555,69.2499183 302.184155,69.2471944 302.223463,69.2463228 C303.437404,69.2235508 304.643201,69.3076654 305.860684,69.303634 Z M305.860684,58.0612287 C306.226495,58.0598122 306.738914,58.0713616 307.098351,58.0865066 C307.481439,58.1027956 308.599487,58.1498994 308.875203,58.1693692 L308.923159,58.1733451 L309.089144,58.1898707 C309.25119,58.2054737 309.388834,58.2211226 309.388834,58.2621447 C309.388834,58.3306966 309.372357,58.394179 309.340019,58.5397951 L309.318717,58.6377183 L309.261703,59.1048155 C309.002129,60.4240627 309.59281,61.2029938 309.38848,62.5452309 C309.307385,63.0751961 309.378564,63.6055971 309.499321,64.1353443 C309.543941,64.3326648 309.478782,64.5296585 309.477365,64.7274148 C309.475949,64.902726 309.309864,65.1910254 309.349526,65.3662277 C309.407248,65.6183534 309.36192,65.7954079 309.133155,65.9827044 C309.133155,65.9827044 307.728381,66.0041035 306.152715,66.0182013 L305.69894,66.0220058 C305.166598,66.0261547 304.628325,66.0291887 304.12982,66.0300447 L303.6845,66.030188 C303.396822,66.0298348 303.129294,66.0285431 302.892405,66.0260692 C302.456477,66.021493 302.18203,65.946095 302.240107,65.8571863 C302.398047,65.6122518 302.077563,65.2582516 302.004613,65.1179154 C301.729104,64.5889309 301.665007,64.4216824 301.748227,63.9154698 C301.983012,62.4827987 301.455719,62.4521819 301.531502,60.5958874 C301.541772,60.3509528 301.4026,59.3317722 301.56054,58.9555449 C301.719188,58.5793176 301.436242,58.3988853 301.576122,58.1925214 C301.668903,58.0565435 302.008509,58.0246192 302.110143,58.0118713 C302.145555,58.007513 302.184155,58.0047891 302.223463,58.0039175 C303.437404,57.9811455 304.643201,58.0652601 305.860684,58.0612287 Z M305.860684,45.0308498 C306.226495,45.0294334 306.738914,45.0409828 307.098351,45.0561278 C307.510907,45.0736698 308.775843,45.1269496 308.923159,45.1429662 C309.144133,45.1674815 309.388834,45.1770697 309.388834,45.2317659 C309.388834,45.3003178 309.372357,45.3638002 309.340019,45.5094162 L309.318717,45.6073395 L309.261703,46.0744367 C309.002129,47.3936839 309.59281,48.172615 309.38848,49.5148521 C309.307385,50.0448172 309.378564,50.5752182 309.499321,51.1049655 C309.543941,51.302286 309.478782,51.4992796 309.477365,51.697036 C309.475949,51.8723472 309.309864,52.1606465 309.349526,52.3358488 C309.400033,52.5564588 309.371642,52.7195925 309.210501,52.8824029 L309.133155,52.9523256 L309.090585,52.9529635 C308.839099,52.9566998 307.509017,52.976014 306.056042,52.9886763 L305.568477,52.9926202 C305.160564,52.9956506 304.751363,52.9979772 304.361356,52.9991235 L303.472684,52.9993645 C303.264973,52.9987362 303.070072,52.9975458 302.892405,52.9956903 C302.456477,52.9911142 302.18203,52.9157162 302.240107,52.8268075 C302.398047,52.581873 302.077563,52.2278728 302.004613,52.0875366 C301.729104,51.558552 301.665007,51.3913036 301.748227,50.885091 C301.983012,49.4524199 301.455719,49.4218031 301.531502,47.5655085 C301.541772,47.320574 301.4026,46.3013934 301.56054,45.9251661 C301.719188,45.5489387 301.436242,45.3685065 301.576122,45.1621426 C301.668903,45.0261647 302.008509,44.9942404 302.110143,44.9814925 C302.145555,44.9771342 302.184155,44.9744103 302.223463,44.9735386 C303.437404,44.9507667 304.643201,45.0348812 305.860684,45.0308498 Z M305.860684,33.7884445 C306.226495,33.7870281 306.738914,33.7985775 307.098351,33.8137225 C307.510907,33.8312645 308.775843,33.8845443 308.923159,33.9005609 C309.144133,33.9250762 309.388834,33.9346644 309.388834,33.9893606 C309.388834,34.0579125 309.372357,34.1213949 309.340019,34.2670109 L309.318717,34.3649342 L309.261703,34.8320314 C309.002129,36.1512786 309.59281,36.9302097 309.38848,38.2724468 C309.307385,38.8024119 309.378564,39.3328129 309.499321,39.8625602 C309.543941,40.0598807 309.478782,40.2568743 309.477365,40.4546307 C309.475949,40.6299419 309.309864,40.9182412 309.349526,41.0934435 C309.407248,41.3455692 309.36192,41.5226238 309.133155,41.7099203 L309.124968,41.7100441 L309.061409,41.7109899 C308.749001,41.7155931 307.459883,41.7340369 306.056042,41.746271 L305.568477,41.7502149 C305.078982,41.7538514 304.587631,41.7564744 304.12982,41.7572606 L303.6845,41.7574039 C303.396822,41.7570506 303.129294,41.755759 302.892405,41.753285 C302.456477,41.7487089 302.18203,41.6733109 302.240107,41.5844022 C302.398047,41.3394677 302.077563,40.9854675 302.004613,40.8451313 C301.729104,40.3161468 301.665007,40.1488983 301.748227,39.6426857 C301.983012,38.2100146 301.455719,38.1793978 301.531502,36.3231032 C301.541772,36.0781687 301.4026,35.0589881 301.56054,34.6827608 C301.719188,34.3065334 301.436242,34.1261012 301.576122,33.9197373 C301.668903,33.7837594 302.008509,33.7518351 302.110143,33.7390872 C302.145555,33.7347289 302.184155,33.732005 302.223463,33.7311333 C303.437404,33.7083614 304.643201,33.7924759 305.860684,33.7884445 Z M305.860684,22.5460393 C306.226495,22.5446228 306.738914,22.5561722 307.098351,22.5713172 C307.481439,22.5876062 308.599487,22.63471 308.875203,22.6541798 L308.923159,22.6581557 L309.089144,22.6746813 C309.25119,22.6902842 309.388834,22.7059331 309.388834,22.7469553 C309.388834,22.8155072 309.372357,22.8789896 309.340019,23.0246056 L309.318717,23.1225289 L309.261703,23.5896261 C309.002129,24.9088733 309.59281,25.6878044 309.38848,27.0300415 C309.307385,27.5600066 309.378564,28.0904076 309.499321,28.6201549 C309.543941,28.8174754 309.478782,29.014469 309.477365,29.2122254 C309.475949,29.3875366 309.309864,29.6758359 309.349526,29.8510382 C309.407248,30.1031639 309.36192,30.2802185 309.133155,30.467515 C309.133155,30.467515 307.670459,30.4897964 306.056042,30.5038657 L305.568477,30.5078096 C304.589487,30.5150827 303.603072,30.5183016 302.892405,30.5108798 C302.456477,30.5063036 302.18203,30.4309056 302.240107,30.3419969 C302.398047,30.0970624 302.077563,29.7430622 302.004613,29.602726 C301.729104,29.0737415 301.665007,28.906493 301.748227,28.4002804 C301.983012,26.9676093 301.455719,26.9369925 301.531502,25.0806979 C301.541772,24.8357634 301.4026,23.8165828 301.56054,23.4403555 C301.719188,23.0641282 301.436242,22.8836959 301.576122,22.677332 C301.668903,22.5413541 302.008509,22.5094298 302.110143,22.4966819 C302.145555,22.4923236 302.184155,22.4895997 302.223463,22.4887281 C303.437404,22.4659561 304.643201,22.5500706 305.860684,22.5460393 Z M305.860684,11.303634 C306.226495,11.3022175 306.738914,11.3137669 307.098351,11.3289119 C307.245693,11.3351769 307.501756,11.3460003 307.7768,11.3580566 L308.11022,11.3729032 C308.496438,11.3904179 308.849501,11.407742 308.923159,11.4157504 C309.144133,11.4402656 309.388834,11.4498538 309.388834,11.50455 C309.388834,11.5731019 309.372357,11.6365843 309.340019,11.7822003 L309.318717,11.8801236 L309.261703,12.3472208 C309.002129,13.666468 309.59281,14.4453991 309.38848,15.7876362 C309.307385,16.3176013 309.378564,16.8480023 309.499321,17.3777496 C309.543941,17.5750701 309.478782,17.7720637 309.477365,17.9698201 C309.475949,18.1451313 309.309864,18.4334306 309.349526,18.6086329 C309.400033,18.8292429 309.371642,18.9923766 309.210501,19.155187 L309.133155,19.2251097 L309.090585,19.2257477 C308.839099,19.2294839 307.509017,19.2487981 306.056042,19.2614604 L305.568477,19.2654043 C305.078982,19.2690408 304.587631,19.2716639 304.12982,19.27245 L303.472684,19.2721486 C303.264973,19.2715203 303.070072,19.2703299 302.892405,19.2684745 C302.456477,19.2638983 302.18203,19.1885003 302.240107,19.0995916 C302.398047,18.8546571 302.077563,18.5006569 302.004613,18.3603207 C301.729104,17.8313362 301.665007,17.6640877 301.748227,17.1578751 C301.983012,15.725204 301.455719,15.6945872 301.531502,13.8382926 C301.541772,13.5933581 301.4026,12.5741775 301.56054,12.1979502 C301.719188,11.8217229 301.436242,11.6412906 301.576122,11.4349267 C301.668903,11.2989488 302.008509,11.2670245 302.110143,11.2542766 C302.145555,11.2499183 302.184155,11.2471944 302.223463,11.2463228 C303.437404,11.2235508 304.643201,11.3076654 305.860684,11.303634 Z M305.860684,0.0612286669 C306.226495,0.0598122303 306.738914,0.0713616358 307.098351,0.086506611 C307.481439,0.102795631 308.599487,0.149899372 308.875203,0.16936918 L308.923159,0.173345066 L309.089144,0.189870726 C309.25119,0.20547366 309.388834,0.221122559 309.388834,0.26214474 C309.388834,0.330696636 309.372357,0.394179021 309.340019,0.539795052 L309.318717,0.637718333 L309.261703,1.10481552 C309.002129,2.42406271 309.59281,3.20299384 309.38848,4.54523088 C309.307385,5.07519605 309.378564,5.60559706 309.499321,6.13534432 C309.543941,6.33266482 309.478782,6.52965845 309.477365,6.72741478 C309.475949,6.90272604 309.309864,7.19102535 309.349526,7.36622766 C309.407248,7.61835336 309.36192,7.79540792 309.133155,7.98270442 C309.133155,7.98270442 307.728381,8.00410352 306.152715,8.01820132 L305.69894,8.0220058 C305.166598,8.02615472 304.628325,8.02918868 304.12982,8.0300447 L303.6845,8.03018805 C303.396822,8.02983477 303.129294,8.02854312 302.892405,8.02606916 C302.456477,8.02149298 302.18203,7.94609498 302.240107,7.85718635 C302.398047,7.61225179 302.077563,7.25825161 302.004613,7.11791544 C301.729104,6.58893087 301.665007,6.42168241 301.748227,5.91546978 C301.983012,4.48279872 301.455719,4.4521819 301.531502,2.59588735 C301.541772,2.35095279 301.4026,1.33177223 301.56054,0.955544898 C301.719188,0.579317565 301.436242,0.398885343 301.576122,0.192521437 C301.668903,0.0565435307 302.008509,0.0246192305 302.110143,0.0118713018 C302.145555,0.00751303554 302.184155,0.00478911914 302.223463,0.00391746589 C303.437404,-0.0188544752 304.643201,0.0652600631 305.860684,0.0612286669 Z" id="Combined-Shape" fill="#91B9B4"></path>
                <path d="M285.860684,437.03085 C286.226495,437.029433 286.738914,437.040983 287.098351,437.056128 C287.510907,437.07367 288.775843,437.12695 288.923159,437.142966 C289.144133,437.167481 289.388834,437.17707 289.388834,437.231766 C289.388834,437.300318 289.372357,437.3638 289.340019,437.509416 L289.318717,437.60734 L289.261703,438.074437 C289.002129,439.393684 289.59281,440.172615 289.38848,441.514852 C289.307385,442.044817 289.378564,442.575218 289.499321,443.104965 C289.543941,443.302286 289.478782,443.49928 289.477365,443.697036 C289.475949,443.872347 289.309864,444.160647 289.349526,444.335849 C289.400033,444.556459 289.371642,444.719592 289.210501,444.882403 L289.133155,444.952326 L289.090585,444.952964 C288.839099,444.9567 287.509017,444.976014 286.056042,444.988676 L285.568477,444.99262 C285.160564,444.995651 284.751363,444.997977 284.361356,444.999124 L283.472684,444.999365 C283.264973,444.998736 283.070072,444.997546 282.892405,444.99569 C282.456477,444.991114 282.18203,444.915716 282.240107,444.826808 C282.398047,444.581873 282.077563,444.227873 282.004613,444.087537 C281.729104,443.558552 281.665007,443.391304 281.748227,442.885091 C281.983012,441.45242 281.455719,441.421803 281.531502,439.565509 C281.541772,439.320574 281.4026,438.301393 281.56054,437.925166 C281.719188,437.548939 281.436242,437.368507 281.576122,437.162143 C281.668903,437.026165 282.008509,436.99424 282.110143,436.981492 C282.145555,436.977134 282.184155,436.97441 282.223463,436.973539 C283.437404,436.950767 284.643201,437.034881 285.860684,437.03085 Z M285.860684,425.788445 C286.226495,425.787028 286.738914,425.798578 287.098351,425.813722 C287.510907,425.831265 288.775843,425.884544 288.923159,425.900561 C289.144133,425.925076 289.388834,425.934664 289.388834,425.989361 C289.388834,426.057913 289.372357,426.121395 289.340019,426.267011 L289.318717,426.364934 L289.261703,426.832031 C289.002129,428.151279 289.59281,428.93021 289.38848,430.272447 C289.307385,430.802412 289.378564,431.332813 289.499321,431.86256 C289.543941,432.059881 289.478782,432.256874 289.477365,432.454631 C289.475949,432.629942 289.309864,432.918241 289.349526,433.093444 C289.407248,433.345569 289.36192,433.522624 289.133155,433.70992 L289.124968,433.710044 L289.061409,433.71099 C288.749001,433.715593 287.459883,433.734037 286.056042,433.746271 L285.568477,433.750215 C285.078982,433.753851 284.587631,433.756474 284.12982,433.757261 L283.6845,433.757404 C283.396822,433.757051 283.129294,433.755759 282.892405,433.753285 C282.456477,433.748709 282.18203,433.673311 282.240107,433.584402 C282.398047,433.339468 282.077563,432.985467 282.004613,432.845131 C281.729104,432.316147 281.665007,432.148898 281.748227,431.642686 C281.983012,430.210015 281.455719,430.179398 281.531502,428.323103 C281.541772,428.078169 281.4026,427.058988 281.56054,426.682761 C281.719188,426.306533 281.436242,426.126101 281.576122,425.919737 C281.668903,425.783759 282.008509,425.751835 282.110143,425.739087 C282.145555,425.734729 282.184155,425.732005 282.223463,425.731133 C283.437404,425.708361 284.643201,425.792476 285.860684,425.788445 Z M285.860684,414.546039 C286.226495,414.544623 286.738914,414.556172 287.098351,414.571317 C287.481439,414.587606 288.599487,414.63471 288.875203,414.65418 L288.923159,414.658156 L289.089144,414.674681 C289.25119,414.690284 289.388834,414.705933 289.388834,414.746955 C289.388834,414.815507 289.372357,414.87899 289.340019,415.024606 L289.318717,415.122529 L289.261703,415.589626 C289.002129,416.908873 289.59281,417.687804 289.38848,419.030041 C289.307385,419.560007 289.378564,420.090408 289.499321,420.620155 C289.543941,420.817475 289.478782,421.014469 289.477365,421.212225 C289.475949,421.387537 289.309864,421.675836 289.349526,421.851038 C289.407248,422.103164 289.36192,422.280219 289.133155,422.467515 C289.133155,422.467515 287.670459,422.489796 286.056042,422.503866 L285.568477,422.50781 C284.589487,422.515083 283.603072,422.518302 282.892405,422.51088 C282.456477,422.506304 282.18203,422.430906 282.240107,422.341997 C282.398047,422.097062 282.077563,421.743062 282.004613,421.602726 C281.729104,421.073741 281.665007,420.906493 281.748227,420.40028 C281.983012,418.967609 281.455719,418.936992 281.531502,417.080698 C281.541772,416.835763 281.4026,415.816583 281.56054,415.440355 C281.719188,415.064128 281.436242,414.883696 281.576122,414.677332 C281.668903,414.541354 282.008509,414.50943 282.110143,414.496682 C282.145555,414.492324 282.184155,414.4896 282.223463,414.488728 C283.437404,414.465956 284.643201,414.550071 285.860684,414.546039 Z M285.860684,403.303634 C286.226495,403.302218 286.738914,403.313767 287.098351,403.328912 C287.245693,403.335177 287.501756,403.346 287.7768,403.358057 L288.11022,403.372903 C288.496438,403.390418 288.849501,403.407742 288.923159,403.41575 C289.144133,403.440266 289.388834,403.449854 289.388834,403.50455 C289.388834,403.573102 289.372357,403.636584 289.340019,403.7822 L289.318717,403.880124 L289.261703,404.347221 C289.002129,405.666468 289.59281,406.445399 289.38848,407.787636 C289.307385,408.317601 289.378564,408.848002 289.499321,409.37775 C289.543941,409.57507 289.478782,409.772064 289.477365,409.96982 C289.475949,410.145131 289.309864,410.433431 289.349526,410.608633 C289.400033,410.829243 289.371642,410.992377 289.210501,411.155187 L289.133155,411.22511 L289.090585,411.225748 C288.839099,411.229484 287.509017,411.248798 286.056042,411.26146 L285.568477,411.265404 C285.078982,411.269041 284.587631,411.271664 284.12982,411.27245 L283.472684,411.272149 C283.264973,411.27152 283.070072,411.27033 282.892405,411.268474 C282.456477,411.263898 282.18203,411.1885 282.240107,411.099592 C282.398047,410.854657 282.077563,410.500657 282.004613,410.360321 C281.729104,409.831336 281.665007,409.664088 281.748227,409.157875 C281.983012,407.725204 281.455719,407.694587 281.531502,405.838293 C281.541772,405.593358 281.4026,404.574178 281.56054,404.19795 C281.719188,403.821723 281.436242,403.641291 281.576122,403.434927 C281.668903,403.298949 282.008509,403.267025 282.110143,403.254277 C282.145555,403.249918 282.184155,403.247194 282.223463,403.246323 C283.437404,403.223551 284.643201,403.307665 285.860684,403.303634 Z M285.860684,392.061229 C286.226495,392.059812 286.738914,392.071362 287.098351,392.086507 C287.481439,392.102796 288.599487,392.149899 288.875203,392.169369 L288.923159,392.173345 L289.089144,392.189871 C289.25119,392.205474 289.388834,392.221123 289.388834,392.262145 C289.388834,392.330697 289.372357,392.394179 289.340019,392.539795 L289.318717,392.637718 L289.261703,393.104816 C289.002129,394.424063 289.59281,395.202994 289.38848,396.545231 C289.307385,397.075196 289.378564,397.605597 289.499321,398.135344 C289.543941,398.332665 289.478782,398.529658 289.477365,398.727415 C289.475949,398.902726 289.309864,399.191025 289.349526,399.366228 C289.407248,399.618353 289.36192,399.795408 289.133155,399.982704 C289.133155,399.982704 287.728381,400.004104 286.152715,400.018201 L285.69894,400.022006 C285.166598,400.026155 284.628325,400.029189 284.12982,400.030045 L283.6845,400.030188 C283.396822,400.029835 283.129294,400.028543 282.892405,400.026069 C282.456477,400.021493 282.18203,399.946095 282.240107,399.857186 C282.398047,399.612252 282.077563,399.258252 282.004613,399.117915 C281.729104,398.588931 281.665007,398.421682 281.748227,397.91547 C281.983012,396.482799 281.455719,396.452182 281.531502,394.595887 C281.541772,394.350953 281.4026,393.331772 281.56054,392.955545 C281.719188,392.579318 281.436242,392.398885 281.576122,392.192521 C281.668903,392.056544 282.008509,392.024619 282.110143,392.011871 C282.145555,392.007513 282.184155,392.004789 282.223463,392.003917 C283.437404,391.981146 284.643201,392.06526 285.860684,392.061229 Z M285.860684,379.03085 C286.226495,379.029433 286.738914,379.040983 287.098351,379.056128 C287.510907,379.07367 288.775843,379.12695 288.923159,379.142966 C289.144133,379.167481 289.388834,379.17707 289.388834,379.231766 C289.388834,379.300318 289.372357,379.3638 289.340019,379.509416 L289.318717,379.60734 L289.261703,380.074437 C289.002129,381.393684 289.59281,382.172615 289.38848,383.514852 C289.307385,384.044817 289.378564,384.575218 289.499321,385.104965 C289.543941,385.302286 289.478782,385.49928 289.477365,385.697036 C289.475949,385.872347 289.309864,386.160647 289.349526,386.335849 C289.400033,386.556459 289.371642,386.719592 289.210501,386.882403 L289.133155,386.952326 L289.090585,386.952964 C288.839099,386.9567 287.509017,386.976014 286.056042,386.988676 L285.568477,386.99262 C285.160564,386.995651 284.751363,386.997977 284.361356,386.999124 L283.472684,386.999365 C283.264973,386.998736 283.070072,386.997546 282.892405,386.99569 C282.456477,386.991114 282.18203,386.915716 282.240107,386.826808 C282.398047,386.581873 282.077563,386.227873 282.004613,386.087537 C281.729104,385.558552 281.665007,385.391304 281.748227,384.885091 C281.983012,383.45242 281.455719,383.421803 281.531502,381.565509 C281.541772,381.320574 281.4026,380.301393 281.56054,379.925166 C281.719188,379.548939 281.436242,379.368507 281.576122,379.162143 C281.668903,379.026165 282.008509,378.99424 282.110143,378.981492 C282.145555,378.977134 282.184155,378.97441 282.223463,378.973539 C283.437404,378.950767 284.643201,379.034881 285.860684,379.03085 Z M285.860684,367.788445 C286.226495,367.787028 286.738914,367.798578 287.098351,367.813722 C287.510907,367.831265 288.775843,367.884544 288.923159,367.900561 C289.144133,367.925076 289.388834,367.934664 289.388834,367.989361 C289.388834,368.057913 289.372357,368.121395 289.340019,368.267011 L289.318717,368.364934 L289.261703,368.832031 C289.002129,370.151279 289.59281,370.93021 289.38848,372.272447 C289.307385,372.802412 289.378564,373.332813 289.499321,373.86256 C289.543941,374.059881 289.478782,374.256874 289.477365,374.454631 C289.475949,374.629942 289.309864,374.918241 289.349526,375.093444 C289.407248,375.345569 289.36192,375.522624 289.133155,375.70992 L289.124968,375.710044 L289.061409,375.71099 C288.749001,375.715593 287.459883,375.734037 286.056042,375.746271 L285.568477,375.750215 C285.078982,375.753851 284.587631,375.756474 284.12982,375.757261 L283.6845,375.757404 C283.396822,375.757051 283.129294,375.755759 282.892405,375.753285 C282.456477,375.748709 282.18203,375.673311 282.240107,375.584402 C282.398047,375.339468 282.077563,374.985467 282.004613,374.845131 C281.729104,374.316147 281.665007,374.148898 281.748227,373.642686 C281.983012,372.210015 281.455719,372.179398 281.531502,370.323103 C281.541772,370.078169 281.4026,369.058988 281.56054,368.682761 C281.719188,368.306533 281.436242,368.126101 281.576122,367.919737 C281.668903,367.783759 282.008509,367.751835 282.110143,367.739087 C282.145555,367.734729 282.184155,367.732005 282.223463,367.731133 C283.437404,367.708361 284.643201,367.792476 285.860684,367.788445 Z M285.860684,356.546039 C286.226495,356.544623 286.738914,356.556172 287.098351,356.571317 C287.481439,356.587606 288.599487,356.63471 288.875203,356.65418 L288.923159,356.658156 L289.089144,356.674681 C289.25119,356.690284 289.388834,356.705933 289.388834,356.746955 C289.388834,356.815507 289.372357,356.87899 289.340019,357.024606 L289.318717,357.122529 L289.261703,357.589626 C289.002129,358.908873 289.59281,359.687804 289.38848,361.030041 C289.307385,361.560007 289.378564,362.090408 289.499321,362.620155 C289.543941,362.817475 289.478782,363.014469 289.477365,363.212225 C289.475949,363.387537 289.309864,363.675836 289.349526,363.851038 C289.407248,364.103164 289.36192,364.280219 289.133155,364.467515 C289.133155,364.467515 287.670459,364.489796 286.056042,364.503866 L285.568477,364.50781 C284.589487,364.515083 283.603072,364.518302 282.892405,364.51088 C282.456477,364.506304 282.18203,364.430906 282.240107,364.341997 C282.398047,364.097062 282.077563,363.743062 282.004613,363.602726 C281.729104,363.073741 281.665007,362.906493 281.748227,362.40028 C281.983012,360.967609 281.455719,360.936992 281.531502,359.080698 C281.541772,358.835763 281.4026,357.816583 281.56054,357.440355 C281.719188,357.064128 281.436242,356.883696 281.576122,356.677332 C281.668903,356.541354 282.008509,356.50943 282.110143,356.496682 C282.145555,356.492324 282.184155,356.4896 282.223463,356.488728 C283.437404,356.465956 284.643201,356.550071 285.860684,356.546039 Z M285.860684,345.303634 C286.226495,345.302218 286.738914,345.313767 287.098351,345.328912 C287.245693,345.335177 287.501756,345.346 287.7768,345.358057 L288.11022,345.372903 C288.496438,345.390418 288.849501,345.407742 288.923159,345.41575 C289.144133,345.440266 289.388834,345.449854 289.388834,345.50455 C289.388834,345.573102 289.372357,345.636584 289.340019,345.7822 L289.318717,345.880124 L289.261703,346.347221 C289.002129,347.666468 289.59281,348.445399 289.38848,349.787636 C289.307385,350.317601 289.378564,350.848002 289.499321,351.37775 C289.543941,351.57507 289.478782,351.772064 289.477365,351.96982 C289.475949,352.145131 289.309864,352.433431 289.349526,352.608633 C289.400033,352.829243 289.371642,352.992377 289.210501,353.155187 L289.133155,353.22511 L289.090585,353.225748 C288.839099,353.229484 287.509017,353.248798 286.056042,353.26146 L285.568477,353.265404 C285.078982,353.269041 284.587631,353.271664 284.12982,353.27245 L283.472684,353.272149 C283.264973,353.27152 283.070072,353.27033 282.892405,353.268474 C282.456477,353.263898 282.18203,353.1885 282.240107,353.099592 C282.398047,352.854657 282.077563,352.500657 282.004613,352.360321 C281.729104,351.831336 281.665007,351.664088 281.748227,351.157875 C281.983012,349.725204 281.455719,349.694587 281.531502,347.838293 C281.541772,347.593358 281.4026,346.574178 281.56054,346.19795 C281.719188,345.821723 281.436242,345.641291 281.576122,345.434927 C281.668903,345.298949 282.008509,345.267025 282.110143,345.254277 C282.145555,345.249918 282.184155,345.247194 282.223463,345.246323 C283.437404,345.223551 284.643201,345.307665 285.860684,345.303634 Z M285.860684,334.061229 C286.226495,334.059812 286.738914,334.071362 287.098351,334.086507 C287.481439,334.102796 288.599487,334.149899 288.875203,334.169369 L288.923159,334.173345 L289.089144,334.189871 C289.25119,334.205474 289.388834,334.221123 289.388834,334.262145 C289.388834,334.330697 289.372357,334.394179 289.340019,334.539795 L289.318717,334.637718 L289.261703,335.104816 C289.002129,336.424063 289.59281,337.202994 289.38848,338.545231 C289.307385,339.075196 289.378564,339.605597 289.499321,340.135344 C289.543941,340.332665 289.478782,340.529658 289.477365,340.727415 C289.475949,340.902726 289.309864,341.191025 289.349526,341.366228 C289.407248,341.618353 289.36192,341.795408 289.133155,341.982704 C289.133155,341.982704 287.728381,342.004104 286.152715,342.018201 L285.69894,342.022006 C285.166598,342.026155 284.628325,342.029189 284.12982,342.030045 L283.6845,342.030188 C283.396822,342.029835 283.129294,342.028543 282.892405,342.026069 C282.456477,342.021493 282.18203,341.946095 282.240107,341.857186 C282.398047,341.612252 282.077563,341.258252 282.004613,341.117915 C281.729104,340.588931 281.665007,340.421682 281.748227,339.91547 C281.983012,338.482799 281.455719,338.452182 281.531502,336.595887 C281.541772,336.350953 281.4026,335.331772 281.56054,334.955545 C281.719188,334.579318 281.436242,334.398885 281.576122,334.192521 C281.668903,334.056544 282.008509,334.024619 282.110143,334.011871 C282.145555,334.007513 282.184155,334.004789 282.223463,334.003917 C283.437404,333.981146 284.643201,334.06526 285.860684,334.061229 Z M285.860684,320.03085 C286.226495,320.029433 286.738914,320.040983 287.098351,320.056128 C287.510907,320.07367 288.775843,320.12695 288.923159,320.142966 C289.144133,320.167481 289.388834,320.17707 289.388834,320.231766 C289.388834,320.300318 289.372357,320.3638 289.340019,320.509416 L289.318717,320.60734 L289.261703,321.074437 C289.002129,322.393684 289.59281,323.172615 289.38848,324.514852 C289.307385,325.044817 289.378564,325.575218 289.499321,326.104965 C289.543941,326.302286 289.478782,326.49928 289.477365,326.697036 C289.475949,326.872347 289.309864,327.160647 289.349526,327.335849 C289.400033,327.556459 289.371642,327.719592 289.210501,327.882403 L289.133155,327.952326 L289.090585,327.952964 C288.839099,327.9567 287.509017,327.976014 286.056042,327.988676 L285.568477,327.99262 C285.160564,327.995651 284.751363,327.997977 284.361356,327.999124 L283.472684,327.999365 C283.264973,327.998736 283.070072,327.997546 282.892405,327.99569 C282.456477,327.991114 282.18203,327.915716 282.240107,327.826808 C282.398047,327.581873 282.077563,327.227873 282.004613,327.087537 C281.729104,326.558552 281.665007,326.391304 281.748227,325.885091 C281.983012,324.45242 281.455719,324.421803 281.531502,322.565509 C281.541772,322.320574 281.4026,321.301393 281.56054,320.925166 C281.719188,320.548939 281.436242,320.368507 281.576122,320.162143 C281.668903,320.026165 282.008509,319.99424 282.110143,319.981492 C282.145555,319.977134 282.184155,319.97441 282.223463,319.973539 C283.437404,319.950767 284.643201,320.034881 285.860684,320.03085 Z M285.860684,308.788445 C286.226495,308.787028 286.738914,308.798578 287.098351,308.813722 C287.510907,308.831265 288.775843,308.884544 288.923159,308.900561 C289.144133,308.925076 289.388834,308.934664 289.388834,308.989361 C289.388834,309.057913 289.372357,309.121395 289.340019,309.267011 L289.318717,309.364934 L289.261703,309.832031 C289.002129,311.151279 289.59281,311.93021 289.38848,313.272447 C289.307385,313.802412 289.378564,314.332813 289.499321,314.86256 C289.543941,315.059881 289.478782,315.256874 289.477365,315.454631 C289.475949,315.629942 289.309864,315.918241 289.349526,316.093444 C289.407248,316.345569 289.36192,316.522624 289.133155,316.70992 L289.124968,316.710044 L289.061409,316.71099 C288.749001,316.715593 287.459883,316.734037 286.056042,316.746271 L285.568477,316.750215 C285.078982,316.753851 284.587631,316.756474 284.12982,316.757261 L283.6845,316.757404 C283.396822,316.757051 283.129294,316.755759 282.892405,316.753285 C282.456477,316.748709 282.18203,316.673311 282.240107,316.584402 C282.398047,316.339468 282.077563,315.985467 282.004613,315.845131 C281.729104,315.316147 281.665007,315.148898 281.748227,314.642686 C281.983012,313.210015 281.455719,313.179398 281.531502,311.323103 C281.541772,311.078169 281.4026,310.058988 281.56054,309.682761 C281.719188,309.306533 281.436242,309.126101 281.576122,308.919737 C281.668903,308.783759 282.008509,308.751835 282.110143,308.739087 C282.145555,308.734729 282.184155,308.732005 282.223463,308.731133 C283.437404,308.708361 284.643201,308.792476 285.860684,308.788445 Z M285.860684,297.546039 C286.226495,297.544623 286.738914,297.556172 287.098351,297.571317 C287.481439,297.587606 288.599487,297.63471 288.875203,297.65418 L288.923159,297.658156 L289.089144,297.674681 C289.25119,297.690284 289.388834,297.705933 289.388834,297.746955 C289.388834,297.815507 289.372357,297.87899 289.340019,298.024606 L289.318717,298.122529 L289.261703,298.589626 C289.002129,299.908873 289.59281,300.687804 289.38848,302.030041 C289.307385,302.560007 289.378564,303.090408 289.499321,303.620155 C289.543941,303.817475 289.478782,304.014469 289.477365,304.212225 C289.475949,304.387537 289.309864,304.675836 289.349526,304.851038 C289.407248,305.103164 289.36192,305.280219 289.133155,305.467515 C289.133155,305.467515 287.670459,305.489796 286.056042,305.503866 L285.568477,305.50781 C284.589487,305.515083 283.603072,305.518302 282.892405,305.51088 C282.456477,305.506304 282.18203,305.430906 282.240107,305.341997 C282.398047,305.097062 282.077563,304.743062 282.004613,304.602726 C281.729104,304.073741 281.665007,303.906493 281.748227,303.40028 C281.983012,301.967609 281.455719,301.936992 281.531502,300.080698 C281.541772,299.835763 281.4026,298.816583 281.56054,298.440355 C281.719188,298.064128 281.436242,297.883696 281.576122,297.677332 C281.668903,297.541354 282.008509,297.50943 282.110143,297.496682 C282.145555,297.492324 282.184155,297.4896 282.223463,297.488728 C283.437404,297.465956 284.643201,297.550071 285.860684,297.546039 Z M285.860684,286.303634 C286.226495,286.302218 286.738914,286.313767 287.098351,286.328912 C287.245693,286.335177 287.501756,286.346 287.7768,286.358057 L288.11022,286.372903 C288.496438,286.390418 288.849501,286.407742 288.923159,286.41575 C289.144133,286.440266 289.388834,286.449854 289.388834,286.50455 C289.388834,286.573102 289.372357,286.636584 289.340019,286.7822 L289.318717,286.880124 L289.261703,287.347221 C289.002129,288.666468 289.59281,289.445399 289.38848,290.787636 C289.307385,291.317601 289.378564,291.848002 289.499321,292.37775 C289.543941,292.57507 289.478782,292.772064 289.477365,292.96982 C289.475949,293.145131 289.309864,293.433431 289.349526,293.608633 C289.400033,293.829243 289.371642,293.992377 289.210501,294.155187 L289.133155,294.22511 L289.090585,294.225748 C288.839099,294.229484 287.509017,294.248798 286.056042,294.26146 L285.568477,294.265404 C285.078982,294.269041 284.587631,294.271664 284.12982,294.27245 L283.472684,294.272149 C283.264973,294.27152 283.070072,294.27033 282.892405,294.268474 C282.456477,294.263898 282.18203,294.1885 282.240107,294.099592 C282.398047,293.854657 282.077563,293.500657 282.004613,293.360321 C281.729104,292.831336 281.665007,292.664088 281.748227,292.157875 C281.983012,290.725204 281.455719,290.694587 281.531502,288.838293 C281.541772,288.593358 281.4026,287.574178 281.56054,287.19795 C281.719188,286.821723 281.436242,286.641291 281.576122,286.434927 C281.668903,286.298949 282.008509,286.267025 282.110143,286.254277 C282.145555,286.249918 282.184155,286.247194 282.223463,286.246323 C283.437404,286.223551 284.643201,286.307665 285.860684,286.303634 Z M285.860684,275.061229 C286.226495,275.059812 286.738914,275.071362 287.098351,275.086507 C287.481439,275.102796 288.599487,275.149899 288.875203,275.169369 L288.923159,275.173345 L289.089144,275.189871 C289.25119,275.205474 289.388834,275.221123 289.388834,275.262145 C289.388834,275.330697 289.372357,275.394179 289.340019,275.539795 L289.318717,275.637718 L289.261703,276.104816 C289.002129,277.424063 289.59281,278.202994 289.38848,279.545231 C289.307385,280.075196 289.378564,280.605597 289.499321,281.135344 C289.543941,281.332665 289.478782,281.529658 289.477365,281.727415 C289.475949,281.902726 289.309864,282.191025 289.349526,282.366228 C289.407248,282.618353 289.36192,282.795408 289.133155,282.982704 C289.133155,282.982704 287.728381,283.004104 286.152715,283.018201 L285.69894,283.022006 C285.166598,283.026155 284.628325,283.029189 284.12982,283.030045 L283.6845,283.030188 C283.396822,283.029835 283.129294,283.028543 282.892405,283.026069 C282.456477,283.021493 282.18203,282.946095 282.240107,282.857186 C282.398047,282.612252 282.077563,282.258252 282.004613,282.117915 C281.729104,281.588931 281.665007,281.421682 281.748227,280.91547 C281.983012,279.482799 281.455719,279.452182 281.531502,277.595887 C281.541772,277.350953 281.4026,276.331772 281.56054,275.955545 C281.719188,275.579318 281.436242,275.398885 281.576122,275.192521 C281.668903,275.056544 282.008509,275.024619 282.110143,275.011871 C282.145555,275.007513 282.184155,275.004789 282.223463,275.003917 C283.437404,274.981146 284.643201,275.06526 285.860684,275.061229 Z M285.860684,262.03085 C286.226495,262.029433 286.738914,262.040983 287.098351,262.056128 C287.510907,262.07367 288.775843,262.12695 288.923159,262.142966 C289.144133,262.167481 289.388834,262.17707 289.388834,262.231766 C289.388834,262.300318 289.372357,262.3638 289.340019,262.509416 L289.318717,262.60734 L289.261703,263.074437 C289.002129,264.393684 289.59281,265.172615 289.38848,266.514852 C289.307385,267.044817 289.378564,267.575218 289.499321,268.104965 C289.543941,268.302286 289.478782,268.49928 289.477365,268.697036 C289.475949,268.872347 289.309864,269.160647 289.349526,269.335849 C289.400033,269.556459 289.371642,269.719592 289.210501,269.882403 L289.133155,269.952326 L289.090585,269.952964 C288.839099,269.9567 287.509017,269.976014 286.056042,269.988676 L285.568477,269.99262 C285.160564,269.995651 284.751363,269.997977 284.361356,269.999124 L283.472684,269.999365 C283.264973,269.998736 283.070072,269.997546 282.892405,269.99569 C282.456477,269.991114 282.18203,269.915716 282.240107,269.826808 C282.398047,269.581873 282.077563,269.227873 282.004613,269.087537 C281.729104,268.558552 281.665007,268.391304 281.748227,267.885091 C281.983012,266.45242 281.455719,266.421803 281.531502,264.565509 C281.541772,264.320574 281.4026,263.301393 281.56054,262.925166 C281.719188,262.548939 281.436242,262.368507 281.576122,262.162143 C281.668903,262.026165 282.008509,261.99424 282.110143,261.981492 C282.145555,261.977134 282.184155,261.97441 282.223463,261.973539 C283.437404,261.950767 284.643201,262.034881 285.860684,262.03085 Z M285.860684,250.788445 C286.226495,250.787028 286.738914,250.798578 287.098351,250.813722 C287.510907,250.831265 288.775843,250.884544 288.923159,250.900561 C289.144133,250.925076 289.388834,250.934664 289.388834,250.989361 C289.388834,251.057913 289.372357,251.121395 289.340019,251.267011 L289.318717,251.364934 L289.261703,251.832031 C289.002129,253.151279 289.59281,253.93021 289.38848,255.272447 C289.307385,255.802412 289.378564,256.332813 289.499321,256.86256 C289.543941,257.059881 289.478782,257.256874 289.477365,257.454631 C289.475949,257.629942 289.309864,257.918241 289.349526,258.093444 C289.407248,258.345569 289.36192,258.522624 289.133155,258.70992 L289.124968,258.710044 L289.061409,258.71099 C288.749001,258.715593 287.459883,258.734037 286.056042,258.746271 L285.568477,258.750215 C285.078982,258.753851 284.587631,258.756474 284.12982,258.757261 L283.6845,258.757404 C283.396822,258.757051 283.129294,258.755759 282.892405,258.753285 C282.456477,258.748709 282.18203,258.673311 282.240107,258.584402 C282.398047,258.339468 282.077563,257.985467 282.004613,257.845131 C281.729104,257.316147 281.665007,257.148898 281.748227,256.642686 C281.983012,255.210015 281.455719,255.179398 281.531502,253.323103 C281.541772,253.078169 281.4026,252.058988 281.56054,251.682761 C281.719188,251.306533 281.436242,251.126101 281.576122,250.919737 C281.668903,250.783759 282.008509,250.751835 282.110143,250.739087 C282.145555,250.734729 282.184155,250.732005 282.223463,250.731133 C283.437404,250.708361 284.643201,250.792476 285.860684,250.788445 Z M285.860684,239.546039 C286.226495,239.544623 286.738914,239.556172 287.098351,239.571317 C287.481439,239.587606 288.599487,239.63471 288.875203,239.65418 L288.923159,239.658156 L289.089144,239.674681 C289.25119,239.690284 289.388834,239.705933 289.388834,239.746955 C289.388834,239.815507 289.372357,239.87899 289.340019,240.024606 L289.318717,240.122529 L289.261703,240.589626 C289.002129,241.908873 289.59281,242.687804 289.38848,244.030041 C289.307385,244.560007 289.378564,245.090408 289.499321,245.620155 C289.543941,245.817475 289.478782,246.014469 289.477365,246.212225 C289.475949,246.387537 289.309864,246.675836 289.349526,246.851038 C289.407248,247.103164 289.36192,247.280219 289.133155,247.467515 C289.133155,247.467515 287.670459,247.489796 286.056042,247.503866 L285.568477,247.50781 C284.589487,247.515083 283.603072,247.518302 282.892405,247.51088 C282.456477,247.506304 282.18203,247.430906 282.240107,247.341997 C282.398047,247.097062 282.077563,246.743062 282.004613,246.602726 C281.729104,246.073741 281.665007,245.906493 281.748227,245.40028 C281.983012,243.967609 281.455719,243.936992 281.531502,242.080698 C281.541772,241.835763 281.4026,240.816583 281.56054,240.440355 C281.719188,240.064128 281.436242,239.883696 281.576122,239.677332 C281.668903,239.541354 282.008509,239.50943 282.110143,239.496682 C282.145555,239.492324 282.184155,239.4896 282.223463,239.488728 C283.437404,239.465956 284.643201,239.550071 285.860684,239.546039 Z M285.860684,228.303634 C286.226495,228.302218 286.738914,228.313767 287.098351,228.328912 C287.245693,228.335177 287.501756,228.346 287.7768,228.358057 L288.11022,228.372903 C288.496438,228.390418 288.849501,228.407742 288.923159,228.41575 C289.144133,228.440266 289.388834,228.449854 289.388834,228.50455 C289.388834,228.573102 289.372357,228.636584 289.340019,228.7822 L289.318717,228.880124 L289.261703,229.347221 C289.002129,230.666468 289.59281,231.445399 289.38848,232.787636 C289.307385,233.317601 289.378564,233.848002 289.499321,234.37775 C289.543941,234.57507 289.478782,234.772064 289.477365,234.96982 C289.475949,235.145131 289.309864,235.433431 289.349526,235.608633 C289.400033,235.829243 289.371642,235.992377 289.210501,236.155187 L289.133155,236.22511 L289.090585,236.225748 C288.839099,236.229484 287.509017,236.248798 286.056042,236.26146 L285.568477,236.265404 C285.078982,236.269041 284.587631,236.271664 284.12982,236.27245 L283.472684,236.272149 C283.264973,236.27152 283.070072,236.27033 282.892405,236.268474 C282.456477,236.263898 282.18203,236.1885 282.240107,236.099592 C282.398047,235.854657 282.077563,235.500657 282.004613,235.360321 C281.729104,234.831336 281.665007,234.664088 281.748227,234.157875 C281.983012,232.725204 281.455719,232.694587 281.531502,230.838293 C281.541772,230.593358 281.4026,229.574178 281.56054,229.19795 C281.719188,228.821723 281.436242,228.641291 281.576122,228.434927 C281.668903,228.298949 282.008509,228.267025 282.110143,228.254277 C282.145555,228.249918 282.184155,228.247194 282.223463,228.246323 C283.437404,228.223551 284.643201,228.307665 285.860684,228.303634 Z M285.860684,217.061229 C286.226495,217.059812 286.738914,217.071362 287.098351,217.086507 C287.481439,217.102796 288.599487,217.149899 288.875203,217.169369 L288.923159,217.173345 L289.089144,217.189871 C289.25119,217.205474 289.388834,217.221123 289.388834,217.262145 C289.388834,217.330697 289.372357,217.394179 289.340019,217.539795 L289.318717,217.637718 L289.261703,218.104816 C289.002129,219.424063 289.59281,220.202994 289.38848,221.545231 C289.307385,222.075196 289.378564,222.605597 289.499321,223.135344 C289.543941,223.332665 289.478782,223.529658 289.477365,223.727415 C289.475949,223.902726 289.309864,224.191025 289.349526,224.366228 C289.407248,224.618353 289.36192,224.795408 289.133155,224.982704 C289.133155,224.982704 287.728381,225.004104 286.152715,225.018201 L285.69894,225.022006 C285.166598,225.026155 284.628325,225.029189 284.12982,225.030045 L283.6845,225.030188 C283.396822,225.029835 283.129294,225.028543 282.892405,225.026069 C282.456477,225.021493 282.18203,224.946095 282.240107,224.857186 C282.398047,224.612252 282.077563,224.258252 282.004613,224.117915 C281.729104,223.588931 281.665007,223.421682 281.748227,222.91547 C281.983012,221.482799 281.455719,221.452182 281.531502,219.595887 C281.541772,219.350953 281.4026,218.331772 281.56054,217.955545 C281.719188,217.579318 281.436242,217.398885 281.576122,217.192521 C281.668903,217.056544 282.008509,217.024619 282.110143,217.011871 C282.145555,217.007513 282.184155,217.004789 282.223463,217.003917 C283.437404,216.981146 284.643201,217.06526 285.860684,217.061229 Z" id="Combined-Shape-Copy-13" fill="#91B9B4"></path>
                <path d="M521.400061,406.576398 C515.102648,405.322937 509.149596,405.074573 500.672449,405.390849 C494.781675,405.608167 485.088274,404.698147 479.193837,404.690385 C472.544735,404.682624 465.921278,404.325601 459.28683,404.570084 C441.475298,405.231741 423.641785,405.62175 405.822926,405.177411 C360.693295,404.057834 334.503529,407.294325 290.146879,405.872054 L274.441811,405.559659 C267.100324,405.305474 264.579893,405.175471 261.814013,405.175471 C259.974978,405.175471 259.652598,406.516248 258.828329,407.727021 C258.289807,408.534204 256.498396,415.465108 255.908586,417.725607 C255.399371,419.695054 255.011049,422.50273 255.058673,424.507104 C255.194219,431.178002 252.366062,437.784868 253.131716,444.436363 C253.161023,444.651741 253.252609,444.863238 253.399145,445.057272 C253.827765,445.614151 254.901146,447.474939 259.47309,447.983309 C266.411602,448.749744 272.47822,447.199411 285.127998,448.068684 C297.777776,448.934077 332.045376,448.171522 340.280737,448.227792 C402.694368,448.643025 403.723788,445.753855 451.894055,447.040302 C468.914289,447.496283 474.537634,447.145081 492.323522,445.635494 C497.042003,445.235784 508.944444,443.479774 517.179805,444.345167 C520.169153,444.663383 522.704238,443.159617 522.858101,440.771056 C523.565141,429.738268 521.400061,406.576398 521.400061,406.576398" id="Fill-3" fill="#0F2837"></path>
                <path d="M513.936414,368.576398 C501.878033,367.322937 490.47904,367.074573 474.246875,367.390849 C462.967133,367.608167 444.406066,366.698147 433.11931,366.690385 C420.387512,366.682624 407.704817,366.325601 395.001078,366.570084 C360.895293,367.231741 326.747418,367.62175 292.627603,367.177411 C206.212717,366.057834 156.064164,369.294325 71.1293936,367.872054 L41.0570974,367.559659 C26.999509,367.305474 22.1733509,367.175471 16.8772036,367.175471 C13.3557917,367.175471 12.7384924,368.516248 11.1601704,369.727021 C10.129,370.534204 6.69878005,377.465108 5.56940294,379.725607 C4.59435065,381.695054 3.85078559,384.50273 3.94197753,386.507104 C4.20152382,393.178002 -1.2138745,399.784868 0.252211314,406.436363 C0.308329432,406.651741 0.483698548,406.863238 0.764289135,407.057272 C1.5850166,407.614151 3.64034265,409.474939 12.394769,409.983309 C25.6807333,410.749744 37.2971836,409.199411 61.519166,410.068684 C85.7411484,410.934077 151.357257,410.171522 167.126448,410.227792 C286.636994,410.643025 288.608143,407.753855 380.845283,409.040302 C413.43588,409.496283 424.203544,409.145081 458.260226,407.635494 C467.295243,407.235784 490.086214,405.479774 505.855405,406.345167 C511.579453,406.663383 516.43367,405.159617 516.72829,402.771056 C518.082139,391.738268 513.936414,368.576398 513.936414,368.576398" id="Fill-3-Copy-2" fill="#6E1946"></path>
                <path d="M285.860684,558.03085 C286.226495,558.029433 286.738914,558.040983 287.098351,558.056128 C287.510907,558.07367 288.775843,558.12695 288.923159,558.142966 C289.144133,558.167481 289.388834,558.17707 289.388834,558.231766 C289.388834,558.300318 289.372357,558.3638 289.340019,558.509416 L289.318717,558.60734 L289.261703,559.074437 C289.002129,560.393684 289.59281,561.172615 289.38848,562.514852 C289.307385,563.044817 289.378564,563.575218 289.499321,564.104965 C289.543941,564.302286 289.478782,564.49928 289.477365,564.697036 C289.475949,564.872347 289.309864,565.160647 289.349526,565.335849 C289.400033,565.556459 289.371642,565.719592 289.210501,565.882403 L289.133155,565.952326 L289.090585,565.952964 C288.839099,565.9567 287.509017,565.976014 286.056042,565.988676 L285.568477,565.99262 C285.160564,565.995651 284.751363,565.997977 284.361356,565.999124 L283.472684,565.999365 C283.264973,565.998736 283.070072,565.997546 282.892405,565.99569 C282.456477,565.991114 282.18203,565.915716 282.240107,565.826808 C282.398047,565.581873 282.077563,565.227873 282.004613,565.087537 C281.729104,564.558552 281.665007,564.391304 281.748227,563.885091 C281.983012,562.45242 281.455719,562.421803 281.531502,560.565509 C281.541772,560.320574 281.4026,559.301393 281.56054,558.925166 C281.719188,558.548939 281.436242,558.368507 281.576122,558.162143 C281.668903,558.026165 282.008509,557.99424 282.110143,557.981492 C282.145555,557.977134 282.184155,557.97441 282.223463,557.973539 C283.437404,557.950767 284.643201,558.034881 285.860684,558.03085 Z M285.860684,546.788445 C286.226495,546.787028 286.738914,546.798578 287.098351,546.813722 C287.510907,546.831265 288.775843,546.884544 288.923159,546.900561 C289.144133,546.925076 289.388834,546.934664 289.388834,546.989361 C289.388834,547.057913 289.372357,547.121395 289.340019,547.267011 L289.318717,547.364934 L289.261703,547.832031 C289.002129,549.151279 289.59281,549.93021 289.38848,551.272447 C289.307385,551.802412 289.378564,552.332813 289.499321,552.86256 C289.543941,553.059881 289.478782,553.256874 289.477365,553.454631 C289.475949,553.629942 289.309864,553.918241 289.349526,554.093444 C289.407248,554.345569 289.36192,554.522624 289.133155,554.70992 L289.124968,554.710044 L289.061409,554.71099 C288.749001,554.715593 287.459883,554.734037 286.056042,554.746271 L285.568477,554.750215 C285.078982,554.753851 284.587631,554.756474 284.12982,554.757261 L283.6845,554.757404 C283.396822,554.757051 283.129294,554.755759 282.892405,554.753285 C282.456477,554.748709 282.18203,554.673311 282.240107,554.584402 C282.398047,554.339468 282.077563,553.985467 282.004613,553.845131 C281.729104,553.316147 281.665007,553.148898 281.748227,552.642686 C281.983012,551.210015 281.455719,551.179398 281.531502,549.323103 C281.541772,549.078169 281.4026,548.058988 281.56054,547.682761 C281.719188,547.306533 281.436242,547.126101 281.576122,546.919737 C281.668903,546.783759 282.008509,546.751835 282.110143,546.739087 C282.145555,546.734729 282.184155,546.732005 282.223463,546.731133 C283.437404,546.708361 284.643201,546.792476 285.860684,546.788445 Z M285.860684,535.546039 C286.226495,535.544623 286.738914,535.556172 287.098351,535.571317 C287.481439,535.587606 288.599487,535.63471 288.875203,535.65418 L288.923159,535.658156 L289.089144,535.674681 C289.25119,535.690284 289.388834,535.705933 289.388834,535.746955 C289.388834,535.815507 289.372357,535.87899 289.340019,536.024606 L289.318717,536.122529 L289.261703,536.589626 C289.002129,537.908873 289.59281,538.687804 289.38848,540.030041 C289.307385,540.560007 289.378564,541.090408 289.499321,541.620155 C289.543941,541.817475 289.478782,542.014469 289.477365,542.212225 C289.475949,542.387537 289.309864,542.675836 289.349526,542.851038 C289.407248,543.103164 289.36192,543.280219 289.133155,543.467515 C289.133155,543.467515 287.670459,543.489796 286.056042,543.503866 L285.568477,543.50781 C284.589487,543.515083 283.603072,543.518302 282.892405,543.51088 C282.456477,543.506304 282.18203,543.430906 282.240107,543.341997 C282.398047,543.097062 282.077563,542.743062 282.004613,542.602726 C281.729104,542.073741 281.665007,541.906493 281.748227,541.40028 C281.983012,539.967609 281.455719,539.936992 281.531502,538.080698 C281.541772,537.835763 281.4026,536.816583 281.56054,536.440355 C281.719188,536.064128 281.436242,535.883696 281.576122,535.677332 C281.668903,535.541354 282.008509,535.50943 282.110143,535.496682 C282.145555,535.492324 282.184155,535.4896 282.223463,535.488728 C283.437404,535.465956 284.643201,535.550071 285.860684,535.546039 Z M285.860684,524.303634 C286.226495,524.302218 286.738914,524.313767 287.098351,524.328912 C287.245693,524.335177 287.501756,524.346 287.7768,524.358057 L288.11022,524.372903 C288.496438,524.390418 288.849501,524.407742 288.923159,524.41575 C289.144133,524.440266 289.388834,524.449854 289.388834,524.50455 C289.388834,524.573102 289.372357,524.636584 289.340019,524.7822 L289.318717,524.880124 L289.261703,525.347221 C289.002129,526.666468 289.59281,527.445399 289.38848,528.787636 C289.307385,529.317601 289.378564,529.848002 289.499321,530.37775 C289.543941,530.57507 289.478782,530.772064 289.477365,530.96982 C289.475949,531.145131 289.309864,531.433431 289.349526,531.608633 C289.400033,531.829243 289.371642,531.992377 289.210501,532.155187 L289.133155,532.22511 L289.090585,532.225748 C288.839099,532.229484 287.509017,532.248798 286.056042,532.26146 L285.568477,532.265404 C285.078982,532.269041 284.587631,532.271664 284.12982,532.27245 L283.472684,532.272149 C283.264973,532.27152 283.070072,532.27033 282.892405,532.268474 C282.456477,532.263898 282.18203,532.1885 282.240107,532.099592 C282.398047,531.854657 282.077563,531.500657 282.004613,531.360321 C281.729104,530.831336 281.665007,530.664088 281.748227,530.157875 C281.983012,528.725204 281.455719,528.694587 281.531502,526.838293 C281.541772,526.593358 281.4026,525.574178 281.56054,525.19795 C281.719188,524.821723 281.436242,524.641291 281.576122,524.434927 C281.668903,524.298949 282.008509,524.267025 282.110143,524.254277 C282.145555,524.249918 282.184155,524.247194 282.223463,524.246323 C283.437404,524.223551 284.643201,524.307665 285.860684,524.303634 Z M285.860684,513.061229 C286.226495,513.059812 286.738914,513.071362 287.098351,513.086507 C287.481439,513.102796 288.599487,513.149899 288.875203,513.169369 L288.923159,513.173345 L289.089144,513.189871 C289.25119,513.205474 289.388834,513.221123 289.388834,513.262145 C289.388834,513.330697 289.372357,513.394179 289.340019,513.539795 L289.318717,513.637718 L289.261703,514.104816 C289.002129,515.424063 289.59281,516.202994 289.38848,517.545231 C289.307385,518.075196 289.378564,518.605597 289.499321,519.135344 C289.543941,519.332665 289.478782,519.529658 289.477365,519.727415 C289.475949,519.902726 289.309864,520.191025 289.349526,520.366228 C289.407248,520.618353 289.36192,520.795408 289.133155,520.982704 C289.133155,520.982704 287.728381,521.004104 286.152715,521.018201 L285.69894,521.022006 C285.166598,521.026155 284.628325,521.029189 284.12982,521.030045 L283.6845,521.030188 C283.396822,521.029835 283.129294,521.028543 282.892405,521.026069 C282.456477,521.021493 282.18203,520.946095 282.240107,520.857186 C282.398047,520.612252 282.077563,520.258252 282.004613,520.117915 C281.729104,519.588931 281.665007,519.421682 281.748227,518.91547 C281.983012,517.482799 281.455719,517.452182 281.531502,515.595887 C281.541772,515.350953 281.4026,514.331772 281.56054,513.955545 C281.719188,513.579318 281.436242,513.398885 281.576122,513.192521 C281.668903,513.056544 282.008509,513.024619 282.110143,513.011871 C282.145555,513.007513 282.184155,513.004789 282.223463,513.003917 C283.437404,512.981146 284.643201,513.06526 285.860684,513.061229 Z M285.860684,500.03085 C286.226495,500.029433 286.738914,500.040983 287.098351,500.056128 C287.510907,500.07367 288.775843,500.12695 288.923159,500.142966 C289.144133,500.167481 289.388834,500.17707 289.388834,500.231766 C289.388834,500.300318 289.372357,500.3638 289.340019,500.509416 L289.318717,500.60734 L289.261703,501.074437 C289.002129,502.393684 289.59281,503.172615 289.38848,504.514852 C289.307385,505.044817 289.378564,505.575218 289.499321,506.104965 C289.543941,506.302286 289.478782,506.49928 289.477365,506.697036 C289.475949,506.872347 289.309864,507.160647 289.349526,507.335849 C289.400033,507.556459 289.371642,507.719592 289.210501,507.882403 L289.133155,507.952326 L289.090585,507.952964 C288.839099,507.9567 287.509017,507.976014 286.056042,507.988676 L285.568477,507.99262 C285.160564,507.995651 284.751363,507.997977 284.361356,507.999124 L283.472684,507.999365 C283.264973,507.998736 283.070072,507.997546 282.892405,507.99569 C282.456477,507.991114 282.18203,507.915716 282.240107,507.826808 C282.398047,507.581873 282.077563,507.227873 282.004613,507.087537 C281.729104,506.558552 281.665007,506.391304 281.748227,505.885091 C281.983012,504.45242 281.455719,504.421803 281.531502,502.565509 C281.541772,502.320574 281.4026,501.301393 281.56054,500.925166 C281.719188,500.548939 281.436242,500.368507 281.576122,500.162143 C281.668903,500.026165 282.008509,499.99424 282.110143,499.981492 C282.145555,499.977134 282.184155,499.97441 282.223463,499.973539 C283.437404,499.950767 284.643201,500.034881 285.860684,500.03085 Z M285.860684,488.788445 C286.226495,488.787028 286.738914,488.798578 287.098351,488.813722 C287.510907,488.831265 288.775843,488.884544 288.923159,488.900561 C289.144133,488.925076 289.388834,488.934664 289.388834,488.989361 C289.388834,489.057913 289.372357,489.121395 289.340019,489.267011 L289.318717,489.364934 L289.261703,489.832031 C289.002129,491.151279 289.59281,491.93021 289.38848,493.272447 C289.307385,493.802412 289.378564,494.332813 289.499321,494.86256 C289.543941,495.059881 289.478782,495.256874 289.477365,495.454631 C289.475949,495.629942 289.309864,495.918241 289.349526,496.093444 C289.407248,496.345569 289.36192,496.522624 289.133155,496.70992 L289.124968,496.710044 L289.061409,496.71099 C288.749001,496.715593 287.459883,496.734037 286.056042,496.746271 L285.568477,496.750215 C285.078982,496.753851 284.587631,496.756474 284.12982,496.757261 L283.6845,496.757404 C283.396822,496.757051 283.129294,496.755759 282.892405,496.753285 C282.456477,496.748709 282.18203,496.673311 282.240107,496.584402 C282.398047,496.339468 282.077563,495.985467 282.004613,495.845131 C281.729104,495.316147 281.665007,495.148898 281.748227,494.642686 C281.983012,493.210015 281.455719,493.179398 281.531502,491.323103 C281.541772,491.078169 281.4026,490.058988 281.56054,489.682761 C281.719188,489.306533 281.436242,489.126101 281.576122,488.919737 C281.668903,488.783759 282.008509,488.751835 282.110143,488.739087 C282.145555,488.734729 282.184155,488.732005 282.223463,488.731133 C283.437404,488.708361 284.643201,488.792476 285.860684,488.788445 Z M285.860684,477.546039 C286.226495,477.544623 286.738914,477.556172 287.098351,477.571317 C287.481439,477.587606 288.599487,477.63471 288.875203,477.65418 L288.923159,477.658156 L289.089144,477.674681 C289.25119,477.690284 289.388834,477.705933 289.388834,477.746955 C289.388834,477.815507 289.372357,477.87899 289.340019,478.024606 L289.318717,478.122529 L289.261703,478.589626 C289.002129,479.908873 289.59281,480.687804 289.38848,482.030041 C289.307385,482.560007 289.378564,483.090408 289.499321,483.620155 C289.543941,483.817475 289.478782,484.014469 289.477365,484.212225 C289.475949,484.387537 289.309864,484.675836 289.349526,484.851038 C289.407248,485.103164 289.36192,485.280219 289.133155,485.467515 C289.133155,485.467515 287.670459,485.489796 286.056042,485.503866 L285.568477,485.50781 C284.589487,485.515083 283.603072,485.518302 282.892405,485.51088 C282.456477,485.506304 282.18203,485.430906 282.240107,485.341997 C282.398047,485.097062 282.077563,484.743062 282.004613,484.602726 C281.729104,484.073741 281.665007,483.906493 281.748227,483.40028 C281.983012,481.967609 281.455719,481.936992 281.531502,480.080698 C281.541772,479.835763 281.4026,478.816583 281.56054,478.440355 C281.719188,478.064128 281.436242,477.883696 281.576122,477.677332 C281.668903,477.541354 282.008509,477.50943 282.110143,477.496682 C282.145555,477.492324 282.184155,477.4896 282.223463,477.488728 C283.437404,477.465956 284.643201,477.550071 285.860684,477.546039 Z M285.860684,466.303634 C286.226495,466.302218 286.738914,466.313767 287.098351,466.328912 C287.245693,466.335177 287.501756,466.346 287.7768,466.358057 L288.11022,466.372903 C288.496438,466.390418 288.849501,466.407742 288.923159,466.41575 C289.144133,466.440266 289.388834,466.449854 289.388834,466.50455 C289.388834,466.573102 289.372357,466.636584 289.340019,466.7822 L289.318717,466.880124 L289.261703,467.347221 C289.002129,468.666468 289.59281,469.445399 289.38848,470.787636 C289.307385,471.317601 289.378564,471.848002 289.499321,472.37775 C289.543941,472.57507 289.478782,472.772064 289.477365,472.96982 C289.475949,473.145131 289.309864,473.433431 289.349526,473.608633 C289.400033,473.829243 289.371642,473.992377 289.210501,474.155187 L289.133155,474.22511 L289.090585,474.225748 C288.839099,474.229484 287.509017,474.248798 286.056042,474.26146 L285.568477,474.265404 C285.078982,474.269041 284.587631,474.271664 284.12982,474.27245 L283.472684,474.272149 C283.264973,474.27152 283.070072,474.27033 282.892405,474.268474 C282.456477,474.263898 282.18203,474.1885 282.240107,474.099592 C282.398047,473.854657 282.077563,473.500657 282.004613,473.360321 C281.729104,472.831336 281.665007,472.664088 281.748227,472.157875 C281.983012,470.725204 281.455719,470.694587 281.531502,468.838293 C281.541772,468.593358 281.4026,467.574178 281.56054,467.19795 C281.719188,466.821723 281.436242,466.641291 281.576122,466.434927 C281.668903,466.298949 282.008509,466.267025 282.110143,466.254277 C282.145555,466.249918 282.184155,466.247194 282.223463,466.246323 C283.437404,466.223551 284.643201,466.307665 285.860684,466.303634 Z M285.860684,455.061229 C286.226495,455.059812 286.738914,455.071362 287.098351,455.086507 C287.481439,455.102796 288.599487,455.149899 288.875203,455.169369 L288.923159,455.173345 L289.089144,455.189871 C289.25119,455.205474 289.388834,455.221123 289.388834,455.262145 C289.388834,455.330697 289.372357,455.394179 289.340019,455.539795 L289.318717,455.637718 L289.261703,456.104816 C289.002129,457.424063 289.59281,458.202994 289.38848,459.545231 C289.307385,460.075196 289.378564,460.605597 289.499321,461.135344 C289.543941,461.332665 289.478782,461.529658 289.477365,461.727415 C289.475949,461.902726 289.309864,462.191025 289.349526,462.366228 C289.407248,462.618353 289.36192,462.795408 289.133155,462.982704 C289.133155,462.982704 287.728381,463.004104 286.152715,463.018201 L285.69894,463.022006 C285.166598,463.026155 284.628325,463.029189 284.12982,463.030045 L283.6845,463.030188 C283.396822,463.029835 283.129294,463.028543 282.892405,463.026069 C282.456477,463.021493 282.18203,462.946095 282.240107,462.857186 C282.398047,462.612252 282.077563,462.258252 282.004613,462.117915 C281.729104,461.588931 281.665007,461.421682 281.748227,460.91547 C281.983012,459.482799 281.455719,459.452182 281.531502,457.595887 C281.541772,457.350953 281.4026,456.331772 281.56054,455.955545 C281.719188,455.579318 281.436242,455.398885 281.576122,455.192521 C281.668903,455.056544 282.008509,455.024619 282.110143,455.011871 C282.145555,455.007513 282.184155,455.004789 282.223463,455.003917 C283.437404,454.981146 284.643201,455.06526 285.860684,455.061229 Z" id="Combined-Shape-Copy-13" fill="#FAC39B"></path>
            </g>
        </g>
    </g>
</svg>